<svg width="40" height="16" viewBox="0 0 40 16" fill="none" xmlns="http://www.w3.org/2000/svg" id="KEY-W-BKSP">
<path fill-rule="evenodd" clip-rule="evenodd" d="M0.32698 1.63803C0 2.27976 0 3.11984 0 4.8V11.2C0 12.8802 0 13.7202 0.32698 14.362C0.614601 14.9265 1.07354 15.3854 1.63803 15.673C2.27976 16 3.11984 16 4.8 16H35.2C36.8802 16 37.7202 16 38.362 15.673C38.9265 15.3854 39.3854 14.9265 39.673 14.362C40 13.7202 40 12.8802 40 11.2V4.8C40 3.11984 40 2.27976 39.673 1.63803C39.3854 1.07354 38.9265 0.614601 38.362 0.32698C37.7202 0 36.8802 0 35.2 0H4.8C3.11984 0 2.27976 0 1.63803 0.32698C1.07354 0.614601 0.614601 1.07354 0.32698 1.63803ZM25.3252 4.82703C25.4845 4.61464 25.7345 4.48964 26 4.48964H33C33.4657 4.48964 33.8433 4.86722 33.8433 5.33298V10.6663C33.8433 11.1321 33.4657 11.5096 33 11.5096H25.9999C25.7345 11.5096 25.4845 11.3847 25.3252 11.1723L23.0256 8.10577C22.9785 8.04296 22.9785 7.9566 23.0256 7.89379L25.3252 4.82703ZM26 3.50964C25.426 3.50964 24.8855 3.7799 24.5412 4.2391L22.2415 7.30586C21.9332 7.7171 21.9332 8.28251 22.2416 8.69374L24.5412 11.7602C24.8855 12.2194 25.426 12.4896 25.9999 12.4896H33C34.007 12.4896 34.8233 11.6733 34.8233 10.6663V5.33298C34.8233 4.32598 34.007 3.50964 33 3.50964H26ZM30.0403 6.46468L29.0478 7.45724L28.0552 6.46468C27.9053 6.31479 27.6623 6.31479 27.5124 6.46468C27.3625 6.61457 27.3625 6.85758 27.5124 7.00747L28.505 8.00004L27.5124 8.9926C27.3625 9.14249 27.3625 9.3855 27.5124 9.53539C27.6623 9.68528 27.9053 9.68528 28.0552 9.53539L29.0478 8.54283L30.0403 9.53539C30.1902 9.68528 30.4332 9.68528 30.5831 9.53539C30.733 9.3855 30.733 9.14249 30.5831 8.9926L29.5906 8.00004L30.5831 7.00747C30.733 6.85758 30.733 6.61457 30.5831 6.46468C30.4332 6.31479 30.1902 6.31479 30.0403 6.46468Z" fill="currentColor"/>
</svg>
