<svg width="40" height="16" viewBox="0 0 40 16" fill="none" xmlns="http://www.w3.org/2000/svg" id="KEY-W-RETURN">
<g clip-path="url(#clip0)">
<path fill-rule="evenodd" clip-rule="evenodd" d="M0.327011 1.63803C3.05176e-05 2.27976 3.05176e-05 3.11984 3.05176e-05 4.8V11.2C3.05176e-05 12.8802 3.05176e-05 13.7202 0.327011 14.362C0.614631 14.9265 1.07357 15.3854 1.63806 15.673C2.27979 16 3.11987 16 4.80003 16H35.2C36.8802 16 37.7203 16 38.362 15.673C38.9265 15.3854 39.3854 14.9265 39.673 14.362C40 13.7202 40 12.8802 40 11.2V4.8C40 3.11984 40 2.27976 39.673 1.63803C39.3854 1.07354 38.9265 0.614601 38.362 0.32698C37.7203 0 36.8802 0 35.2 0H4.80003C3.11987 0 2.27979 0 1.63806 0.32698C1.07357 0.614601 0.614631 1.07354 0.327011 1.63803ZM15.6343 10.044C15.6343 11.11 16.2843 11.617 17.2203 11.617C17.5713 11.617 17.9093 11.539 18.1303 11.422V10.512C17.9353 10.642 17.6493 10.746 17.3763 10.746C16.8823 10.746 16.6093 10.499 16.6093 9.94003V6.56003H18.0003V5.72803H16.6093V4.20703H15.6343V5.72803H14.6983V6.56003H15.6343V10.044ZM7.81314 5.61103C8.06014 5.61103 8.26814 5.65003 8.37214 5.70203V6.70303C8.21614 6.59903 7.96914 6.54703 7.72214 6.54703C7.11114 6.54703 6.57814 6.95003 6.38314 7.62603V11.5H5.40814V5.72803H6.38314V6.48203C6.63014 5.98803 7.17614 5.61103 7.81314 5.61103ZM11.6559 10.785C12.3709 10.785 12.9039 10.421 13.0599 9.77103H13.9829C13.7749 10.863 12.9559 11.617 11.6559 11.617C10.0829 11.617 9.00386 10.408 9.00386 8.62703C9.00386 6.89803 10.0569 5.61103 11.6299 5.61103C13.2159 5.61103 14.0609 6.76803 14.0609 8.44503V8.79603H9.97886C9.99186 10.031 10.6809 10.785 11.6559 10.785ZM13.0729 8.05503C13.0599 7.19703 12.6049 6.44303 11.6429 6.44303C10.7719 6.44303 10.1479 7.04103 10.0049 8.05503H13.0729ZM23.0759 5.72803H24.0639V11.5H23.0759V10.772C22.7509 11.227 22.1399 11.617 21.3989 11.617C20.0859 11.617 19.3839 10.772 19.3839 9.51103V5.72803H20.3719V9.35503C20.3719 10.161 20.7619 10.72 21.6329 10.72C22.3089 10.72 22.8679 10.265 23.0759 9.64103V5.72803ZM28.7608 5.70203C28.6568 5.65003 28.4488 5.61103 28.2018 5.61103C27.5648 5.61103 27.0188 5.98803 26.7718 6.48203V5.72803H25.7968V11.5H26.7718V7.62603C26.9668 6.95003 27.4998 6.54703 28.1108 6.54703C28.3578 6.54703 28.6048 6.59903 28.7608 6.70303V5.70203ZM30.9486 11.5H29.9736V5.72803H30.9486V6.45603C31.2866 6.00103 31.9106 5.61103 32.6516 5.61103C33.9646 5.61103 34.6796 6.45603 34.6796 7.71703V11.5H33.6916V7.87303C33.6916 7.06703 33.2886 6.50803 32.4176 6.50803C31.7416 6.50803 31.1566 6.96303 30.9486 7.58703V11.5Z" fill="currentColor"/>
</g>
<defs>
<clipPath id="clip0">
<rect width="40" height="16" fill="white"/>
</clipPath>
</defs>
</svg>
