<svg width="16" height="16" viewBox="0 0 16 16" fill="none" xmlns="http://www.w3.org/2000/svg" id="KEY-Q">
<path fill-rule="evenodd" clip-rule="evenodd" d="M0.32698 1.63803C0 2.27976 0 3.11984 0 4.8V11.2C0 12.8802 0 13.7202 0.32698 14.362C0.614601 14.9265 1.07354 15.3854 1.63803 15.673C2.27976 16 3.11984 16 4.8 16H11.2C12.8802 16 13.7202 16 14.362 15.673C14.9265 15.3854 15.3854 14.9265 15.673 14.362C16 13.7202 16 12.8802 16 11.2V4.8C16 3.11984 16 2.27976 15.673 1.63803C15.3854 1.07354 14.9265 0.614601 14.362 0.32698C13.7202 0 12.8802 0 11.2 0H4.8C3.11984 0 2.27976 0 1.63803 0.32698C1.07354 0.614601 0.614601 1.07354 0.32698 1.63803ZM11.3605 12.33L10.6045 12.904L9.9045 12.022C9.3445 12.344 8.7005 12.526 8.0005 12.526C5.7465 12.526 4.1225 10.692 4.1225 8.10198C4.1225 5.49798 5.7465 3.67798 8.0005 3.67798C10.2685 3.67798 11.8925 5.49798 11.8925 8.10198C11.8925 9.48798 11.4165 10.65 10.6465 11.434L11.3605 12.33ZM10.0165 10.65C10.5065 10.062 10.7865 9.20798 10.7865 8.10198C10.7865 6.08598 9.6665 4.67198 8.0005 4.67198C6.3485 4.67198 5.2285 6.08598 5.2285 8.10198C5.2285 10.118 6.3485 11.532 8.0005 11.532C8.4765 11.532 8.9245 11.434 9.2885 11.238L8.5605 10.314L9.3165 9.75398L10.0165 10.65Z" fill="currentColor"/>
</svg>
