<svg width="16" height="16" viewBox="0 0 16 16" fill="none" xmlns="http://www.w3.org/2000/svg" id="KEY-6">
<g clip-path="url(#clip0)">
<path fill-rule="evenodd" clip-rule="evenodd" d="M0.327011 1.63803C3.05176e-05 2.27976 3.05176e-05 3.11984 3.05176e-05 4.8V11.2C3.05176e-05 12.8802 3.05176e-05 13.7202 0.327011 14.362C0.614631 14.9265 1.07357 15.3854 1.63806 15.673C2.27979 16 3.11987 16 4.80003 16H11.2C12.8802 16 13.7203 16 14.362 15.673C14.9265 15.3854 15.3854 14.9265 15.673 14.362C16 13.7202 16 12.8802 16 11.2V4.8C16 3.11984 16 2.27976 15.673 1.63803C15.3854 1.07354 14.9265 0.614601 14.362 0.32698C13.7203 0 12.8802 0 11.2 0H4.80003C3.11987 0 2.27979 0 1.63806 0.32698C1.07357 0.614601 0.614631 1.07354 0.327011 1.63803ZM8.14003 7.69598C7.04803 7.69598 6.27803 8.49398 6.27803 9.65598C6.27803 10.776 7.03403 11.588 8.14003 11.588C9.21803 11.588 9.98803 10.79 9.98803 9.65598C9.98803 8.50798 9.21803 7.69598 8.14003 7.69598ZM8.21003 3.67798C9.72203 3.67798 10.548 4.48998 10.884 5.80598H9.79203C9.55403 5.07798 9.07803 4.58798 8.21003 4.58798C6.95003 4.58798 6.04003 6.02998 6.04003 7.87798C6.04003 7.91998 6.04353 7.99348 6.04703 8.06698C6.05053 8.14048 6.05403 8.21398 6.05403 8.25598C6.33403 7.38798 7.21603 6.78598 8.22403 6.78598C9.89003 6.78598 11.01 8.08798 11.01 9.64198C11.01 11.224 9.89003 12.526 8.12603 12.526C7.00603 12.526 6.09603 11.966 5.56403 10.888C5.20003 10.118 5.06003 9.26398 5.06003 8.25598C5.06003 5.46998 6.34803 3.67798 8.21003 3.67798Z" fill="currentColor"/>
</g>
<defs>
<clipPath id="clip0">
<rect width="16" height="16" fill="white"/>
</clipPath>
</defs>
</svg>
