<svg width="16" height="16" viewBox="0 0 16 16" fill="none" xmlns="http://www.w3.org/2000/svg" id="KEY-5">
<g clip-path="url(#clip0)">
<path fill-rule="evenodd" clip-rule="evenodd" d="M0.327041 1.63803C6.10352e-05 2.27976 6.10352e-05 3.11984 6.10352e-05 4.8V11.2C6.10352e-05 12.8802 6.10352e-05 13.7202 0.327041 14.362C0.614662 14.9265 1.0736 15.3854 1.63809 15.673C2.27982 16 3.1199 16 4.80006 16H11.2001C12.8802 16 13.7203 16 14.362 15.673C14.9265 15.3854 15.3855 14.9265 15.6731 14.362C16.0001 13.7202 16.0001 12.8802 16.0001 11.2V4.8C16.0001 3.11984 16.0001 2.27976 15.6731 1.63803C15.3855 1.07354 14.9265 0.614601 14.362 0.32698C13.7203 0 12.8802 0 11.2001 0H4.80006C3.1199 0 2.27982 0 1.63809 0.32698C1.0736 0.614601 0.614662 1.07354 0.327041 1.63803ZM9.8008 9.68402C9.8008 8.60602 9.0868 7.78002 8.0368 7.78002C7.3508 7.78002 6.8328 8.13002 6.5108 8.52202H5.6428V3.80402H10.3468V4.78402H6.5668V7.37402C6.8608 7.10802 7.4348 6.82802 8.1348 6.82802C9.7168 6.82802 10.8368 8.03202 10.8368 9.68402C10.8368 11.308 9.6748 12.526 8.0508 12.526C6.4128 12.526 5.2928 11.546 5.0968 9.95002H6.1748C6.3568 10.958 6.9728 11.574 8.0508 11.574C9.0868 11.574 9.8008 10.762 9.8008 9.68402Z" fill="currentColor"/>
</g>
<defs>
<clipPath id="clip0">
<rect width="16" height="16" fill="white"/>
</clipPath>
</defs>
</svg>
