<svg width="40" height="16" viewBox="0 0 40 16" fill="none" xmlns="http://www.w3.org/2000/svg" id="KEY-W-SHIFT">
<path fill-rule="evenodd" clip-rule="evenodd" d="M0.32698 1.63803C0 2.27976 0 3.11984 0 4.8V11.2C0 12.8802 0 13.7202 0.32698 14.362C0.614601 14.9265 1.07354 15.3854 1.63803 15.673C2.27976 16 3.11984 16 4.8 16H35.2C36.8802 16 37.7202 16 38.362 15.673C38.9265 15.3854 39.3854 14.9265 39.673 14.362C40 13.7202 40 12.8802 40 11.2V4.8C40 3.11984 40 2.27976 39.673 1.63803C39.3854 1.07354 38.9265 0.614601 38.362 0.32698C37.7202 0 36.8802 0 35.2 0H4.8C3.11984 0 2.27976 0 1.63803 0.32698C1.07354 0.614601 0.614601 1.07354 0.32698 1.63803ZM27.026 3.36303C26.805 3.27203 26.584 3.23303 26.272 3.23303C25.258 3.23303 24.504 3.90903 24.504 5.06603V6.02803H23.529V6.86003H24.504V11.8H25.466V6.86003H26.766V6.02803H25.466V5.14403C25.466 4.45503 25.843 4.09103 26.415 4.09103C26.623 4.09103 26.844 4.13003 27.026 4.24703V3.36303ZM15.0629 11.8H16.0379V7.88703C16.2459 7.26303 16.8309 6.80803 17.5069 6.80803C18.3779 6.80803 18.7809 7.36703 18.7809 8.17303V11.8H19.7689V8.01703C19.7689 6.75603 19.0539 5.91103 17.7409 5.91103C16.9999 5.91103 16.3759 6.30103 16.0379 6.75603V3.35003H15.0629V11.8ZM9.19908 10.214C9.38108 11.28 10.3041 11.917 11.5651 11.917C12.8001 11.917 13.7101 11.267 13.7101 10.175C13.7101 9.36903 13.2291 8.82303 12.2411 8.56303L11.1231 8.29003C10.5771 8.13403 10.3171 7.95203 10.3171 7.56203C10.3171 7.00303 10.8501 6.73003 11.4221 6.73003C12.1241 6.73003 12.5271 7.02903 12.6961 7.54903H13.6711C13.4631 6.53503 12.7091 5.91103 11.4351 5.91103C10.2651 5.91103 9.36808 6.58703 9.36808 7.61403C9.36808 8.51103 9.94008 8.92703 10.7591 9.13503L11.9031 9.43403C12.5011 9.59003 12.7611 9.83703 12.7611 10.24C12.7611 10.825 12.2671 11.098 11.5781 11.098C10.9021 11.098 10.3951 10.812 10.2131 10.214H9.19908ZM21.4232 6.02803H22.3982V11.8H21.4232V6.02803ZM21.9042 3.66203C22.2552 3.66203 22.5412 3.93503 22.5412 4.28603C22.5412 4.62403 22.2552 4.91003 21.9042 4.91003C21.5662 4.91003 21.2802 4.62403 21.2802 4.28603C21.2802 3.93503 21.5662 3.66203 21.9042 3.66203ZM29.7949 11.917C28.8589 11.917 28.2089 11.41 28.2089 10.344V6.86003H27.2729V6.02803H28.2089V4.50703H29.1839V6.02803H30.5749V6.86003H29.1839V10.24C29.1839 10.799 29.4569 11.046 29.9509 11.046C30.2239 11.046 30.5099 10.942 30.7049 10.812V11.722C30.4839 11.839 30.1459 11.917 29.7949 11.917Z" fill="currentColor"/>
</svg>
