<svg width="16" height="16" viewBox="0 0 16 16" fill="none" xmlns="http://www.w3.org/2000/svg" id="KEY-OPTION">
<path fill-rule="evenodd" clip-rule="evenodd" d="M0.32698 1.63803C0 2.27976 0 3.11984 0 4.8V11.2C0 12.8802 0 13.7202 0.32698 14.362C0.614601 14.9265 1.07354 15.3854 1.63803 15.673C2.27976 16 3.11984 16 4.8 16H11.2C12.8802 16 13.7202 16 14.362 15.673C14.9265 15.3854 15.3854 14.9265 15.673 14.362C16 13.7202 16 12.8802 16 11.2V4.8C16 3.11984 16 2.27976 15.673 1.63803C15.3854 1.07354 14.9265 0.614601 14.362 0.32698C13.7202 0 12.8802 0 11.2 0H4.8C3.11984 0 2.27976 0 1.63803 0.32698C1.07354 0.614601 0.614601 1.07354 0.32698 1.63803ZM4.01615 4.19995H6.09855C6.51384 4.19995 6.84608 4.44422 7.01813 4.84918L9.64095 10.9208C9.70621 11.0686 9.80707 11.1393 9.97319 11.1393H11.9898C12.2686 11.1393 12.5 11.3707 12.5 11.6664C12.5 11.9621 12.2686 12.2 11.9898 12.2H9.72401C9.27905 12.2 8.99428 12.0007 8.81036 11.5507L6.17568 5.47913C6.11042 5.33128 6.00956 5.26057 5.86124 5.26057H4.01615C3.72545 5.26057 3.5 5.03559 3.5 4.73348C3.5 4.43136 3.72545 4.19995 4.01615 4.19995ZM9.29631 4.19995H11.9957C12.2805 4.19995 12.5 4.42493 12.5 4.72705C12.5 5.02916 12.2805 5.25415 11.9957 5.25415H9.29631C9.01154 5.25415 8.79202 5.02916 8.79202 4.72705C8.79202 4.42493 9.01154 4.19995 9.29631 4.19995Z" fill="currentColor"/>
</svg>
