<svg width="16" height="16" viewBox="0 0 16 16" fill="none" xmlns="http://www.w3.org/2000/svg" id="KEY-C">
<g clip-path="url(#clip0)">
<path fill-rule="evenodd" clip-rule="evenodd" d="M0.327011 1.63803C3.05176e-05 2.27976 3.05176e-05 3.11984 3.05176e-05 4.8V11.2C3.05176e-05 12.8802 3.05176e-05 13.7202 0.327011 14.362C0.614631 14.9265 1.07357 15.3854 1.63806 15.673C2.27979 16 3.11987 16 4.80003 16H11.2C12.8802 16 13.7203 16 14.362 15.673C14.9265 15.3854 15.3854 14.9265 15.673 14.362C16 13.7202 16 12.8802 16 11.2V4.8C16 3.11984 16 2.27976 15.673 1.63803C15.3854 1.07354 14.9265 0.614601 14.362 0.32698C13.7203 0 12.8802 0 11.2 0H4.80003C3.11987 0 2.27979 0 1.63806 0.32698C1.07357 0.614601 0.614631 1.07354 0.327011 1.63803ZM8.15003 12.526C5.98003 12.526 4.30003 10.776 4.30003 8.10198C4.30003 5.42798 5.98003 3.67798 8.15003 3.67798C9.95603 3.67798 11.146 4.72798 11.496 6.32398H10.404C10.054 5.32998 9.34003 4.67198 8.15003 4.67198C6.51203 4.67198 5.40603 6.05798 5.40603 8.10198C5.40603 10.132 6.49803 11.532 8.15003 11.532C9.34003 11.532 10.054 10.874 10.404 9.86598H11.496C11.146 11.476 9.94203 12.526 8.15003 12.526Z" fill="currentColor"/>
</g>
<defs>
<clipPath id="clip0">
<rect width="16" height="16" fill="white"/>
</clipPath>
</defs>
</svg>
