<svg width="16" height="16" viewBox="0 0 16 16" fill="none" xmlns="http://www.w3.org/2000/svg" id="KEY-RIGHT-BRACE">
<g clip-path="url(#clip0)">
<path fill-rule="evenodd" clip-rule="evenodd" d="M0.327041 1.63803C6.10352e-05 2.27976 6.10352e-05 3.11984 6.10352e-05 4.8V11.2C6.10352e-05 12.8802 6.10352e-05 13.7202 0.327041 14.362C0.614662 14.9265 1.0736 15.3854 1.63809 15.673C2.27982 16 3.1199 16 4.80006 16H11.2001C12.8802 16 13.7203 16 14.362 15.673C14.9265 15.3854 15.3855 14.9265 15.6731 14.362C16.0001 13.7202 16.0001 12.8802 16.0001 11.2V4.8C16.0001 3.11984 16.0001 2.27976 15.6731 1.63803C15.3855 1.07354 14.9265 0.614601 14.362 0.32698C13.7203 0 12.8802 0 11.2001 0H4.80006C3.1199 0 2.27982 0 1.63809 0.32698C1.0736 0.614601 0.614662 1.07354 0.327041 1.63803ZM7.73007 12.224C8.05207 12.224 8.23407 12.042 8.23407 11.706V9.11602C8.23407 8.58402 8.48607 8.24802 8.83607 8.03802C8.48607 7.82802 8.23407 7.49202 8.23407 6.96002V4.37002C8.23407 4.03402 8.05207 3.85202 7.73007 3.85202H6.26007V2.90002H7.71607C8.62607 2.90002 9.27007 3.54402 9.27007 4.46802V7.03002C9.27007 7.38002 9.42407 7.54802 9.76007 7.54802H10.4041V8.52802H9.76007C9.42407 8.52802 9.27007 8.71002 9.27007 9.04602V11.608C9.27007 12.532 8.62607 13.176 7.71607 13.176H6.26007V12.224H7.73007Z" fill="currentColor"/>
</g>
<defs>
<clipPath id="clip0">
<rect width="16" height="16" fill="white"/>
</clipPath>
</defs>
</svg>
