<svg width="16" height="16" viewBox="0 0 16 16" fill="none" xmlns="http://www.w3.org/2000/svg" id="KEY-COLON">
<path fill-rule="evenodd" clip-rule="evenodd" d="M0.32698 1.63803C0 2.27976 0 3.11984 0 4.8V11.2C0 12.8802 0 13.7202 0.32698 14.362C0.614601 14.9265 1.07354 15.3854 1.63803 15.673C2.27976 16 3.11984 16 4.8 16H11.2C12.8802 16 13.7202 16 14.362 15.673C14.9265 15.3854 15.3854 14.9265 15.673 14.362C16 13.7202 16 12.8802 16 11.2V4.8C16 3.11984 16 2.27976 15.673 1.63803C15.3854 1.07354 14.9265 0.614601 14.362 0.32698C13.7202 0 12.8802 0 11.2 0H4.8C3.11984 0 2.27976 0 1.63803 0.32698C1.07354 0.614601 0.614601 1.07354 0.32698 1.63803ZM8.00771 11.27C7.58771 11.27 7.25171 10.948 7.25171 10.514C7.25171 10.08 7.58771 9.74402 8.00771 9.74402C8.41371 9.74402 8.74971 10.08 8.74971 10.514C8.74971 10.948 8.41371 11.27 8.00771 11.27ZM8.00771 6.87402C7.58771 6.87402 7.25171 6.55202 7.25171 6.11802C7.25171 5.68402 7.58771 5.34802 8.00771 5.34802C8.41371 5.34802 8.74971 5.68402 8.74971 6.11802C8.74971 6.55202 8.41371 6.87402 8.00771 6.87402Z" fill="currentColor"/>
</svg>
