<svg width="16" height="16" viewBox="0 0 16 16" fill="none" xmlns="http://www.w3.org/2000/svg" id="KEY-SHIFT">
<path fill-rule="evenodd" clip-rule="evenodd" d="M0.32698 1.63803C0 2.27976 0 3.11984 0 4.8V11.2C0 12.8802 0 13.7202 0.32698 14.362C0.614601 14.9265 1.07354 15.3854 1.63803 15.673C2.27976 16 3.11984 16 4.8 16H11.2C12.8802 16 13.7202 16 14.362 15.673C14.9265 15.3854 15.3854 14.9265 15.673 14.362C16 13.7202 16 12.8802 16 11.2V4.8C16 3.11984 16 2.27976 15.673 1.63803C15.3854 1.07354 14.9265 0.614601 14.362 0.32698C13.7202 0 12.8802 0 11.2 0H4.8C3.11984 0 2.27976 0 1.63803 0.32698C1.07354 0.614601 0.614601 1.07354 0.32698 1.63803ZM9.8 11.5V7.99127H11.7L7.9 4.50002L4.1 7.99127H6V11.5H9.8ZM11.7 8.89127H10.7V11.5C10.7 11.7387 10.6052 11.9676 10.4364 12.1364C10.2676 12.3052 10.0387 12.4 9.8 12.4H6C5.50295 12.4 5.1 11.9971 5.1 11.5V8.89127H4.1C3.72904 8.89127 3.39609 8.66367 3.26141 8.31802C3.12673 7.97237 3.21793 7.5795 3.4911 7.32852L7.2911 3.83727C7.63541 3.52094 8.1646 3.52094 8.5089 3.83727L12.3089 7.32852C12.5821 7.5795 12.6733 7.97237 12.5386 8.31802C12.4039 8.66367 12.071 8.89127 11.7 8.89127Z" fill="currentColor"/>
</svg>
