<svg width="40" height="16" viewBox="0 0 40 16" fill="none" xmlns="http://www.w3.org/2000/svg" id="KEY-W-ESC">
<g clip-path="url(#clip0)">
<path fill-rule="evenodd" clip-rule="evenodd" d="M0.327041 1.63803C6.10352e-05 2.27976 6.10352e-05 3.11984 6.10352e-05 4.8V11.2C6.10352e-05 12.8802 6.10352e-05 13.7202 0.327041 14.362C0.614662 14.9265 1.0736 15.3854 1.63809 15.673C2.27982 16 3.1199 16 4.80006 16H35.2001C36.8802 16 37.7203 16 38.362 15.673C38.9265 15.3854 39.3855 14.9265 39.6731 14.362C40.0001 13.7202 40.0001 12.8802 40.0001 11.2V4.8C40.0001 3.11984 40.0001 2.27976 39.6731 1.63803C39.3855 1.07354 38.9265 0.614601 38.362 0.32698C37.7203 0 36.8802 0 35.2001 0H4.80006C3.1199 0 2.27982 0 1.63809 0.32698C1.0736 0.614601 0.614662 1.07354 0.327041 1.63803ZM15.9354 9.57101C15.7794 10.221 15.2464 10.585 14.5314 10.585C13.5564 10.585 12.8674 9.83101 12.8544 8.59601H16.9364V8.24501C16.9364 6.56801 16.0914 5.41101 14.5054 5.41101C12.9324 5.41101 11.8794 6.69801 11.8794 8.42701C11.8794 10.208 12.9584 11.417 14.5314 11.417C15.8314 11.417 16.6504 10.663 16.8584 9.57101H15.9354ZM14.5184 6.24301C15.4804 6.24301 15.9354 6.99701 15.9484 7.85501H12.8804C13.0234 6.84101 13.6474 6.24301 14.5184 6.24301ZM17.7812 9.71401C17.9632 10.78 18.8862 11.417 20.1472 11.417C21.3822 11.417 22.2922 10.767 22.2922 9.67501C22.2922 8.86901 21.8112 8.32301 20.8232 8.06301L19.7052 7.79001C19.1592 7.63401 18.8992 7.45201 18.8992 7.06201C18.8992 6.50301 19.4322 6.23001 20.0042 6.23001C20.7062 6.23001 21.1092 6.52901 21.2782 7.04901H22.2532C22.0452 6.03501 21.2912 5.41101 20.0172 5.41101C18.8472 5.41101 17.9502 6.08701 17.9502 7.11401C17.9502 8.01101 18.5222 8.42701 19.3412 8.63501L20.4852 8.93401C21.0832 9.09001 21.3432 9.33701 21.3432 9.74001C21.3432 10.325 20.8492 10.598 20.1602 10.598C19.4842 10.598 18.9772 10.312 18.7952 9.71401H17.7812ZM25.855 11.417C24.308 11.417 23.229 10.208 23.229 8.41401C23.229 6.62001 24.308 5.41101 25.855 5.41101C27.155 5.41101 27.974 6.16501 28.169 7.27001H27.168C27.038 6.64601 26.544 6.26901 25.855 6.26901C24.867 6.26901 24.217 7.15301 24.217 8.41401C24.217 9.67501 24.867 10.559 25.855 10.559C26.544 10.559 27.038 10.182 27.168 9.55801H28.169C27.974 10.663 27.155 11.417 25.855 11.417Z" fill="currentColor"/>
</g>
<defs>
<clipPath id="clip0">
<rect width="40" height="16" fill="white"/>
</clipPath>
</defs>
</svg>
