<svg width="16" height="16" viewBox="0 0 16 16" fill="none" xmlns="http://www.w3.org/2000/svg" id="KEY-ASTERISK">
<g clip-path="url(#clip0)">
<path fill-rule="evenodd" clip-rule="evenodd" d="M0.327103 1.63803C0.00012207 2.27976 0.00012207 3.11984 0.00012207 4.8V11.2C0.00012207 12.8802 0.00012207 13.7202 0.327103 14.362C0.614723 14.9265 1.07366 15.3854 1.63815 15.673C2.27989 16 3.11996 16 4.80012 16H11.2001C12.8803 16 13.7204 16 14.3621 15.673C14.9266 15.3854 15.3855 14.9265 15.6731 14.362C16.0001 13.7202 16.0001 12.8802 16.0001 11.2V4.8C16.0001 3.11984 16.0001 2.27976 15.6731 1.63803C15.3855 1.07354 14.9266 0.614601 14.3621 0.32698C13.7204 0 12.8803 0 11.2001 0H4.80012C3.11996 0 2.27989 0 1.63815 0.32698C1.07366 0.614601 0.614723 1.07354 0.327103 1.63803ZM6.10992 5.94399L7.36992 5.21599L6.10992 4.47399L6.41792 3.94199L7.69192 4.66999V3.21399H8.30792V4.66999L9.58192 3.94199L9.88993 4.47399L8.61592 5.21599L9.88993 5.94399L9.58192 6.47599L8.30792 5.74799V7.21799H7.69192V5.74799L6.41792 6.47599L6.10992 5.94399Z" fill="currentColor"/>
</g>
<defs>
<clipPath id="clip0">
<rect width="16" height="16" fill="white" transform="translate(0.00012207)"/>
</clipPath>
</defs>
</svg>
