<svg width="16" height="16" viewBox="0 0 16 16" fill="none" xmlns="http://www.w3.org/2000/svg" id="KEY-8">
<g clip-path="url(#clip0)">
<path fill-rule="evenodd" clip-rule="evenodd" d="M0.327041 1.63803C6.10352e-05 2.27976 6.10352e-05 3.11984 6.10352e-05 4.8V11.2C6.10352e-05 12.8802 6.10352e-05 13.7202 0.327041 14.362C0.614662 14.9265 1.0736 15.3854 1.63809 15.673C2.27982 16 3.1199 16 4.80006 16H11.2001C12.8802 16 13.7203 16 14.362 15.673C14.9265 15.3854 15.3855 14.9265 15.6731 14.362C16.0001 13.7202 16.0001 12.8802 16.0001 11.2V4.8C16.0001 3.11984 16.0001 2.27976 15.6731 1.63803C15.3855 1.07354 14.9265 0.614601 14.362 0.32698C13.7203 0 12.8802 0 11.2001 0H4.80006C3.1199 0 2.27982 0 1.63809 0.32698C1.0736 0.614601 0.614662 1.07354 0.327041 1.63803ZM6.12893 9.97798C6.12893 10.958 6.91293 11.63 7.99093 11.63C9.08293 11.63 9.86693 10.958 9.86693 9.97798C9.86693 9.01198 9.08293 8.33998 7.99093 8.33998C6.91293 8.33998 6.12893 9.01198 6.12893 9.97798ZM6.42293 6.00198C6.42293 6.84198 7.10893 7.41598 7.99093 7.41598C8.88693 7.41598 9.57293 6.84198 9.57293 6.00198C9.57293 5.14798 8.88693 4.57398 7.99093 4.57398C7.10893 4.57398 6.42293 5.14798 6.42293 6.00198ZM10.9309 10.062C10.9309 11.546 9.65693 12.526 7.99093 12.526C6.33893 12.526 5.06493 11.546 5.06493 10.062C5.06493 8.94198 5.79293 8.12998 6.74493 7.87798C5.94693 7.59798 5.37293 6.88398 5.37293 5.94598C5.37293 4.55998 6.53493 3.67798 7.99093 3.67798C9.46093 3.67798 10.6229 4.55998 10.6229 5.94598C10.6229 6.88398 10.0349 7.59798 9.25093 7.87798C10.1889 8.12998 10.9309 8.94198 10.9309 10.062Z" fill="currentColor"/>
</g>
<defs>
<clipPath id="clip0">
<rect width="16" height="16" fill="white"/>
</clipPath>
</defs>
</svg>
