<svg width="40" height="16" viewBox="0 0 40 16" fill="none" xmlns="http://www.w3.org/2000/svg" id="KEY-W-CONTROL">
<g clip-path="url(#clip0)">
<path fill-rule="evenodd" clip-rule="evenodd" d="M0.327041 1.63803C6.10352e-05 2.27976 6.10352e-05 3.11984 6.10352e-05 4.8V11.2C6.10352e-05 12.8802 6.10352e-05 13.7202 0.327041 14.362C0.614662 14.9265 1.0736 15.3854 1.63809 15.673C2.27982 16 3.1199 16 4.80006 16H35.2001C36.8802 16 37.7203 16 38.362 15.673C38.9265 15.3854 39.3855 14.9265 39.6731 14.362C40.0001 13.7202 40.0001 12.8802 40.0001 11.2V4.8C40.0001 3.11984 40.0001 2.27976 39.6731 1.63803C39.3855 1.07354 38.9265 0.614601 38.362 0.32698C37.7203 0 36.8802 0 35.2001 0H4.80006C3.1199 0 2.27982 0 1.63809 0.32698C1.0736 0.614601 0.614662 1.07354 0.327041 1.63803ZM26.584 3.05005H27.559V11.5H26.584V3.05005ZM20.1402 11.617C19.2042 11.617 18.5542 11.11 18.5542 10.044V6.56005H17.6182V5.72805H18.5542V4.20705H19.5292V5.72805H20.9202V6.56005H19.5292V9.94005C19.5292 10.499 19.8022 10.746 20.2962 10.746C20.5692 10.746 20.8552 10.642 21.0502 10.512V11.422C20.8292 11.539 20.4912 11.617 20.1402 11.617ZM14.6514 11.617C13.1044 11.617 12.0254 10.408 12.0254 8.61405C12.0254 6.82005 13.1044 5.61105 14.6514 5.61105C15.9514 5.61105 16.7704 6.36505 16.9654 7.47005H15.9644C15.8344 6.84605 15.3404 6.46905 14.6514 6.46905C13.6634 6.46905 13.0134 7.35305 13.0134 8.61405C13.0134 9.87505 13.6634 10.759 14.6514 10.759C15.3404 10.759 15.8344 10.382 15.9644 9.75805H16.9654C16.7704 10.863 15.9514 11.617 14.6514 11.617ZM25.3712 5.70205C25.2672 5.65005 25.0592 5.61105 24.8122 5.61105C24.1752 5.61105 23.6292 5.98805 23.3822 6.48205V5.72805H22.4072V11.5H23.3822V7.62605C23.5772 6.95005 24.1102 6.54705 24.7212 6.54705C24.9682 6.54705 25.2152 6.59905 25.3712 6.70305V5.70205Z" fill="currentColor"/>
</g>
<defs>
<clipPath id="clip0">
<rect width="40" height="16" fill="white"/>
</clipPath>
</defs>
</svg>
