<svg width="16" height="16" viewBox="0 0 16 16" fill="none" xmlns="http://www.w3.org/2000/svg" id="KEY-PERCENT-SIGN">
<g clip-path="url(#clip0)">
<path fill-rule="evenodd" clip-rule="evenodd" d="M0.327041 1.63803C6.10352e-05 2.27976 6.10352e-05 3.11984 6.10352e-05 4.8V11.2C6.10352e-05 12.8802 6.10352e-05 13.7202 0.327041 14.362C0.614662 14.9265 1.0736 15.3854 1.63809 15.673C2.27982 16 3.1199 16 4.80006 16H11.2001C12.8802 16 13.7203 16 14.362 15.673C14.9265 15.3854 15.3855 14.9265 15.6731 14.362C16.0001 13.7202 16.0001 12.8802 16.0001 11.2V4.8C16.0001 3.11984 16.0001 2.27976 15.6731 1.63803C15.3855 1.07354 14.9265 0.614601 14.362 0.32698C13.7203 0 12.8802 0 11.2001 0H4.80006C3.1199 0 2.27982 0 1.63809 0.32698C1.0736 0.614601 0.614662 1.07354 0.327041 1.63803ZM5.76286 12.4H4.89486L10.2569 3.80398H11.1249L5.76286 12.4ZM5.83286 4.48998C5.25886 4.48998 4.79686 4.96598 4.79686 5.53998C4.79686 6.11398 5.25886 6.57598 5.83286 6.57598C6.40686 6.57598 6.88286 6.11398 6.88286 5.53998C6.88286 4.96598 6.40686 4.48998 5.83286 4.48998ZM10.1729 8.80198C11.2089 8.80198 12.0349 9.62798 12.0349 10.664C12.0349 11.7 11.2089 12.526 10.1729 12.526C9.13686 12.526 8.31086 11.7 8.31086 10.664C8.31086 9.62798 9.13686 8.80198 10.1729 8.80198ZM5.83286 3.67798C6.86886 3.67798 7.69486 4.50398 7.69486 5.53998C7.69486 6.57598 6.86886 7.40198 5.83286 7.40198C4.79686 7.40198 3.97086 6.57598 3.97086 5.53998C3.97086 4.50398 4.79686 3.67798 5.83286 3.67798ZM10.1729 11.714C10.7469 11.714 11.2089 11.238 11.2089 10.664C11.2089 10.09 10.7469 9.62798 10.1729 9.62798C9.59886 9.62798 9.12286 10.09 9.12286 10.664C9.12286 11.238 9.59886 11.714 10.1729 11.714Z" fill="currentColor"/>
</g>
<defs>
<clipPath id="clip0">
<rect width="16" height="16" fill="white"/>
</clipPath>
</defs>
</svg>
