<svg width="16" height="16" viewBox="0 0 16 16" fill="none" xmlns="http://www.w3.org/2000/svg" id="KEY-CMD">
<g clip-path="url(#clip0)">
<path fill-rule="evenodd" clip-rule="evenodd" d="M0.327103 1.63803C0.00012207 2.27976 0.00012207 3.11984 0.00012207 4.8V11.2C0.00012207 12.8802 0.00012207 13.7202 0.327103 14.362C0.614723 14.9265 1.07366 15.3854 1.63815 15.673C2.27989 16 3.11996 16 4.80012 16H11.2001C12.8803 16 13.7204 16 14.3621 15.673C14.9266 15.3854 15.3855 14.9265 15.6731 14.362C16.0001 13.7202 16.0001 12.8802 16.0001 11.2V4.8C16.0001 3.11984 16.0001 2.27976 15.6731 1.63803C15.3855 1.07354 14.9266 0.614601 14.3621 0.32698C13.7204 0 12.8803 0 11.2001 0H4.80012C3.11996 0 2.27989 0 1.63815 0.32698C1.07366 0.614601 0.614723 1.07354 0.327103 1.63803ZM5.99559 9.06776V6.93215H5.07513C4.03877 6.92532 3.20013 6.12021 3.20013 5.07628C3.20013 4.03918 4.03877 3.19995 5.07513 3.19995C6.10468 3.19995 6.94332 4.03918 6.94332 5.07628V5.99057H9.05695V5.07628C9.05695 4.03918 9.89559 3.19995 10.9251 3.19995C11.9615 3.19995 12.8001 4.03918 12.8001 5.07628C12.8001 6.12021 11.9615 6.92532 10.9251 6.93215H10.0047V9.06776L10.9251 9.07458C11.9615 9.07458 12.8001 9.8797 12.8001 10.9236C12.8001 11.9607 11.9615 12.8 10.9251 12.8C9.89559 12.8 9.05695 11.9607 9.05695 10.9236V10.0093H6.94332V10.9236C6.94332 11.9607 6.10468 12.8 5.07513 12.8C4.03877 12.8 3.20013 11.9607 3.20013 10.9236C3.20013 9.8797 4.03877 9.07458 5.07513 9.07458L5.99559 9.06776ZM4.15468 5.07628C4.15468 5.58801 4.57059 6.00422 5.08195 6.00422H5.98877V5.08311C5.98877 4.57138 5.57286 4.15518 5.07513 4.15518C4.57059 4.15518 4.15468 4.57138 4.15468 5.07628ZM10.0115 6.00422H10.9183C11.4229 6.00422 11.8456 5.58801 11.8456 5.07628C11.8456 4.57138 11.4297 4.15518 10.9251 4.15518C10.4274 4.15518 10.0115 4.57138 10.0115 5.08311V6.00422ZM6.94332 6.9185V9.0814H9.05013V6.9185H6.94332ZM5.98877 9.98886H5.08195C4.57059 9.98886 4.15468 10.4119 4.15468 10.9168C4.15468 11.4217 4.57059 11.8379 5.07513 11.8379C5.57286 11.8379 5.98877 11.4217 5.98877 10.91V9.98886ZM11.8456 10.9168C11.8456 10.4119 11.4229 9.98886 10.9183 9.98886H10.0115V10.91C10.0115 11.4217 10.4274 11.8379 10.9251 11.8379C11.4297 11.8379 11.8456 11.4217 11.8456 10.9168Z" fill="currentColor"/>
</g>
<defs>
<clipPath id="clip0">
<rect width="16" height="16" fill="white" transform="translate(0.00012207)"/>
</clipPath>
</defs>
</svg>
