<svg width="16" height="16" viewBox="0 0 16 16" fill="none" xmlns="http://www.w3.org/2000/svg" id="KEY-0">
<path fill-rule="evenodd" clip-rule="evenodd" d="M0.32698 1.63803C0 2.27976 0 3.11984 0 4.8V11.2C0 12.8802 0 13.7202 0.32698 14.362C0.614601 14.9265 1.07354 15.3854 1.63803 15.673C2.27976 16 3.11984 16 4.8 16H11.2C12.8802 16 13.7202 16 14.362 15.673C14.9265 15.3854 15.3854 14.9265 15.673 14.362C16 13.7202 16 12.8802 16 11.2V4.8C16 3.11984 16 2.27976 15.673 1.63803C15.3854 1.07354 14.9265 0.614601 14.362 0.32698C13.7202 0 12.8802 0 11.2 0H4.8C3.11984 0 2.27976 0 1.63803 0.32698C1.07354 0.614601 0.614601 1.07354 0.32698 1.63803ZM8.00328 12.526C9.92128 12.526 11.1953 10.72 11.1953 8.10198C11.1953 5.48398 9.92128 3.67798 8.00328 3.67798C6.08528 3.67798 4.81128 5.48398 4.81128 8.10198C4.81128 10.72 6.08528 12.526 8.00328 12.526ZM8.00328 4.67198C8.38838 4.67198 8.72269 4.78222 9.00469 4.98439L6.31015 10.3735C6.02192 9.78341 5.87528 9.00051 5.87528 8.10198C5.87528 6.09998 6.60328 4.67198 8.00328 4.67198ZM10.1173 8.10198C10.1173 7.15435 9.95417 6.33533 9.63538 5.73549L6.92061 11.165C7.21922 11.4018 7.58063 11.532 8.00328 11.532C9.38928 11.532 10.1173 10.104 10.1173 8.10198Z" fill="currentColor"/>
</svg>
