<svg width="16" height="16" viewBox="0 0 16 16" fill="none" xmlns="http://www.w3.org/2000/svg" id="KEY-RIGHT-APOSTROPHE">
<path fill-rule="evenodd" clip-rule="evenodd" d="M0.32698 1.63803C0 2.27976 0 3.11984 0 4.8V11.2C0 12.8802 0 13.7202 0.32698 14.362C0.614601 14.9265 1.07354 15.3854 1.63803 15.673C2.27976 16 3.11984 16 4.8 16H11.2C12.8802 16 13.7202 16 14.362 15.673C14.9265 15.3854 15.3854 14.9265 15.673 14.362C16 13.7202 16 12.8802 16 11.2V4.8C16 3.11984 16 2.27976 15.673 1.63803C15.3854 1.07354 14.9265 0.614601 14.362 0.32698C13.7202 0 12.8802 0 11.2 0H4.8C3.11984 0 2.27976 0 1.63803 0.32698C1.07354 0.614601 0.614601 1.07354 0.32698 1.63803ZM7.80421 6.56198H7.09021L7.94421 5.11998C7.59421 5.06398 7.32821 4.81198 7.32821 4.41998C7.32821 3.98598 7.66421 3.67798 8.08421 3.67798C8.50421 3.67798 8.82621 3.97198 8.82621 4.48998C8.82621 4.78398 8.68621 5.09198 8.51821 5.37198L7.80421 6.56198Z" fill="currentColor"/>
</svg>
