<svg width="16" height="16" viewBox="0 0 16 16" fill="none" xmlns="http://www.w3.org/2000/svg" id="KEY-9">
<g clip-path="url(#clip0)">
<path fill-rule="evenodd" clip-rule="evenodd" d="M0.327041 1.63803C6.10352e-05 2.27976 6.10352e-05 3.11984 6.10352e-05 4.8V11.2C6.10352e-05 12.8802 6.10352e-05 13.7202 0.327041 14.362C0.614662 14.9265 1.0736 15.3854 1.63809 15.673C2.27982 16 3.1199 16 4.80006 16H11.2001C12.8802 16 13.7203 16 14.362 15.673C14.9265 15.3854 15.3855 14.9265 15.6731 14.362C16.0001 13.7202 16.0001 12.8802 16.0001 11.2V4.8C16.0001 3.11984 16.0001 2.27976 15.6731 1.63803C15.3855 1.07354 14.9265 0.614601 14.362 0.32698C13.7203 0 12.8802 0 11.2001 0H4.80006C3.1199 0 2.27982 0 1.63809 0.32698C1.0736 0.614601 0.614662 1.07354 0.327041 1.63803ZM7.86006 8.50798C8.95206 8.50798 9.72206 7.70998 9.72206 6.54798C9.72206 5.42798 8.96606 4.61598 7.86006 4.61598C6.78206 4.61598 6.01206 5.41398 6.01206 6.54798C6.01206 7.69598 6.78206 8.50798 7.86006 8.50798ZM7.79006 12.526C6.27806 12.526 5.45206 11.714 5.11606 10.398H6.20806C6.44606 11.126 6.92206 11.616 7.79006 11.616C9.05006 11.616 9.96006 10.174 9.96006 8.32598C9.96006 8.28398 9.95656 8.21048 9.95306 8.13698C9.94956 8.06348 9.94606 7.98998 9.94606 7.94798C9.66606 8.81598 8.78406 9.41798 7.77606 9.41798C6.11006 9.41798 4.99006 8.11598 4.99006 6.56198C4.99006 4.97998 6.11006 3.67798 7.87406 3.67798C8.99406 3.67798 9.90406 4.23798 10.4361 5.31598C10.8001 6.08598 10.9401 6.93998 10.9401 7.94798C10.9401 10.734 9.65206 12.526 7.79006 12.526Z" fill="currentColor"/>
</g>
<defs>
<clipPath id="clip0">
<rect width="16" height="16" fill="white"/>
</clipPath>
</defs>
</svg>
