<svg width="16" height="16" viewBox="0 0 16 16" fill="none" xmlns="http://www.w3.org/2000/svg" id="KEY-B">
<g clip-path="url(#clip0)">
<path fill-rule="evenodd" clip-rule="evenodd" d="M0.327011 1.63803C3.05176e-05 2.27976 3.05176e-05 3.11984 3.05176e-05 4.8V11.2C3.05176e-05 12.8802 3.05176e-05 13.7202 0.327011 14.362C0.614631 14.9265 1.07357 15.3854 1.63806 15.673C2.27979 16 3.11987 16 4.80003 16H11.2C12.8802 16 13.7203 16 14.362 15.673C14.9265 15.3854 15.3854 14.9265 15.673 14.362C16 13.7202 16 12.8802 16 11.2V4.8C16 3.11984 16 2.27976 15.673 1.63803C15.3854 1.07354 14.9265 0.614601 14.362 0.32698C13.7203 0 12.8802 0 11.2 0H4.80003C3.11987 0 2.27979 0 1.63806 0.32698C1.07357 0.614601 0.614631 1.07354 0.327011 1.63803ZM10.9254 6.086C10.9254 7.108 10.3374 7.738 9.66543 7.948C10.5894 8.186 11.2194 9.012 11.2194 9.978C11.2194 11.546 10.1274 12.4 8.36343 12.4H5.25543V3.804H8.08343C9.86143 3.804 10.9254 4.602 10.9254 6.086ZM6.33343 4.77V7.542H8.08343C9.23143 7.542 9.86143 7.08 9.86143 6.142C9.86143 5.204 9.23143 4.77 8.08343 4.77H6.33343ZM8.36343 8.466H6.33343V11.434H8.36343C9.52543 11.434 10.1414 10.846 10.1414 9.95C10.1414 9.04 9.52543 8.466 8.36343 8.466Z" fill="currentColor"/>
</g>
<defs>
<clipPath id="clip0">
<rect width="16" height="16" fill="white"/>
</clipPath>
</defs>
</svg>
