<svg width="16" height="16" viewBox="0 0 16 16" fill="none" xmlns="http://www.w3.org/2000/svg" id="KEY-DOLLAR-SIGN">
<g clip-path="url(#clip0)">
<path fill-rule="evenodd" clip-rule="evenodd" d="M0.327011 1.63803C3.05176e-05 2.27976 3.05176e-05 3.11984 3.05176e-05 4.8V11.2C3.05176e-05 12.8802 3.05176e-05 13.7202 0.327011 14.362C0.614631 14.9265 1.07357 15.3854 1.63806 15.673C2.27979 16 3.11987 16 4.80003 16H11.2C12.8802 16 13.7203 16 14.362 15.673C14.9265 15.3854 15.3854 14.9265 15.673 14.362C16 13.7202 16 12.8802 16 11.2V4.8C16 3.11984 16 2.27976 15.673 1.63803C15.3854 1.07354 14.9265 0.614601 14.362 0.32698C13.7203 0 12.8802 0 11.2 0H4.80003C3.11987 0 2.27979 0 1.63806 0.32698C1.07357 0.614601 0.614631 1.07354 0.327011 1.63803ZM8.57008 13.646H7.60408V12.26C6.28808 12.106 5.30808 11.35 5.04208 10.076H6.10608C6.41408 10.958 7.14208 11.364 8.10808 11.364C9.15808 11.364 9.88608 10.86 9.88608 9.97804C9.88608 9.34804 9.53608 8.94204 8.61208 8.70404L7.18408 8.32604C6.07808 8.04604 5.23808 7.44405 5.23808 6.19804C5.23808 4.91004 6.21808 4.02804 7.60408 3.93004V2.67004H8.57008V3.97204C9.80208 4.18204 10.5441 4.95204 10.8101 6.05804H9.77408C9.53609 5.34404 8.93408 4.82604 7.87008 4.82604C6.91808 4.82604 6.24608 5.31604 6.24608 6.14204C6.24608 6.84204 6.69408 7.16404 7.53408 7.38804L8.89208 7.73804C10.1661 8.07404 10.8801 8.78804 10.8801 9.93604C10.8801 11.28 9.91408 12.106 8.57008 12.26V13.646Z" fill="currentColor"/>
</g>
<defs>
<clipPath id="clip0">
<rect width="16" height="16" fill="white"/>
</clipPath>
</defs>
</svg>
