<svg width="16" height="16" viewBox="0 0 16 16" fill="none" xmlns="http://www.w3.org/2000/svg" id="KEY-TILDE">
<g clip-path="url(#clip0)">
<path fill-rule="evenodd" clip-rule="evenodd" d="M0.327041 1.63803C6.10352e-05 2.27976 6.10352e-05 3.11984 6.10352e-05 4.8V11.2C6.10352e-05 12.8802 6.10352e-05 13.7202 0.327041 14.362C0.614662 14.9265 1.0736 15.3854 1.63809 15.673C2.27982 16 3.1199 16 4.80006 16H11.2001C12.8802 16 13.7203 16 14.362 15.673C14.9265 15.3854 15.3855 14.9265 15.6731 14.362C16.0001 13.7202 16.0001 12.8802 16.0001 11.2V4.8C16.0001 3.11984 16.0001 2.27976 15.6731 1.63803C15.3855 1.07354 14.9265 0.614601 14.362 0.32698C13.7203 0 12.8802 0 11.2001 0H4.80006C3.1199 0 2.27982 0 1.63809 0.32698C1.0736 0.614601 0.614662 1.07354 0.327041 1.63803ZM8.88228 8.32402C9.26028 8.32402 9.48428 8.00202 9.48428 7.44202H10.3663C10.3663 8.57603 9.86228 9.24802 9.00828 9.24802C8.53215 9.24802 8.18661 8.97001 7.87461 8.71897C7.61782 8.51236 7.38374 8.32402 7.11828 8.32402C6.72628 8.32402 6.51628 8.63202 6.51628 9.19202H5.63428C5.63428 8.07202 6.13828 7.40002 6.99228 7.40002C7.45651 7.40002 7.79663 7.67307 8.1071 7.9223C8.36777 8.13155 8.60752 8.32402 8.88228 8.32402Z" fill="currentColor"/>
</g>
<defs>
<clipPath id="clip0">
<rect width="16" height="16" fill="white"/>
</clipPath>
</defs>
</svg>
