<svg width="16" height="16" viewBox="0 0 16 16" fill="none" xmlns="http://www.w3.org/2000/svg" id="KEY-3">
<path fill-rule="evenodd" clip-rule="evenodd" d="M0.32698 1.63803C0 2.27976 0 3.11984 0 4.8V11.2C0 12.8802 0 13.7202 0.32698 14.362C0.614601 14.9265 1.07354 15.3854 1.63803 15.673C2.27976 16 3.11984 16 4.8 16H11.2C12.8802 16 13.7202 16 14.362 15.673C14.9265 15.3854 15.3854 14.9265 15.673 14.362C16 13.7202 16 12.8802 16 11.2V4.8C16 3.11984 16 2.27976 15.673 1.63803C15.3854 1.07354 14.9265 0.614601 14.362 0.32698C13.7202 0 12.8802 0 11.2 0H4.8C3.11984 0 2.27976 0 1.63803 0.32698C1.07354 0.614601 0.614601 1.07354 0.32698 1.63803ZM7.95828 8.46598H7.35628V7.52798H7.93028C8.84028 7.52798 9.54028 7.00998 9.54028 6.08598C9.54028 5.25998 8.93828 4.62998 7.97228 4.62998C7.00628 4.62998 6.39028 5.25998 6.26428 6.15598H5.18628C5.39628 4.69998 6.44628 3.67798 7.97228 3.67798C9.61028 3.67798 10.5903 4.65798 10.5903 6.02998C10.5903 6.98198 10.0303 7.75198 9.24628 7.98998C10.1703 8.25598 10.7583 9.02598 10.7583 9.99198C10.7583 11.406 9.72228 12.526 8.00028 12.526C6.32028 12.526 5.15828 11.504 5.01828 9.94998H6.09628C6.25028 10.944 6.90828 11.574 7.98628 11.574C9.00828 11.574 9.70828 10.958 9.70828 10.006C9.70828 9.03998 8.93828 8.46598 7.95828 8.46598Z" fill="currentColor"/>
</svg>
