<svg width="40" height="16" viewBox="0 0 40 16" fill="none" xmlns="http://www.w3.org/2000/svg" id="KEY-W-ENTER">
<g clip-path="url(#clip0)">
<path fill-rule="evenodd" clip-rule="evenodd" d="M0.327011 1.63803C3.05176e-05 2.27976 3.05176e-05 3.11984 3.05176e-05 4.8V11.2C3.05176e-05 12.8802 3.05176e-05 13.7202 0.327011 14.362C0.614631 14.9265 1.07357 15.3854 1.63806 15.673C2.27979 16 3.11987 16 4.80003 16H35.2C36.8802 16 37.7203 16 38.362 15.673C38.9265 15.3854 39.3854 14.9265 39.673 14.362C40 13.7202 40 12.8802 40 11.2V4.8C40 3.11984 40 2.27976 39.673 1.63803C39.3854 1.07354 38.9265 0.614601 38.362 0.32698C37.7203 0 36.8802 0 35.2 0H4.80003C3.11987 0 2.27979 0 1.63806 0.32698C1.07357 0.614601 0.614631 1.07354 0.327011 1.63803ZM21.7906 11.617C20.8546 11.617 20.2046 11.11 20.2046 10.044V6.56003H19.2686V5.72803H20.2046V4.20703H21.1796V5.72803H22.5706V6.56003H21.1796V9.94003C21.1796 10.499 21.4526 10.746 21.9466 10.746C22.2196 10.746 22.5056 10.642 22.7006 10.512V11.422C22.4796 11.539 22.1416 11.617 21.7906 11.617ZM11.2698 9.77103C11.1138 10.421 10.5808 10.785 9.86581 10.785C8.89081 10.785 8.20181 10.031 8.18881 8.79603H12.2708V8.44503C12.2708 6.76803 11.4258 5.61103 9.83981 5.61103C8.26681 5.61103 7.21381 6.89803 7.21381 8.62703C7.21381 10.408 8.29281 11.617 9.86581 11.617C11.1658 11.617 11.9848 10.863 12.1928 9.77103H11.2698ZM9.85281 6.44303C10.8148 6.44303 11.2698 7.19703 11.2828 8.05503H8.21481C8.35781 7.04103 8.98181 6.44303 9.85281 6.44303ZM13.5712 11.5H14.5462V7.58703C14.7542 6.96303 15.3392 6.50803 16.0152 6.50803C16.8862 6.50803 17.2892 7.06703 17.2892 7.87303V11.5H18.2772V7.71703C18.2772 6.45603 17.5622 5.61103 16.2492 5.61103C15.5082 5.61103 14.8842 6.00103 14.5462 6.45603V5.72803H13.5712V11.5ZM27.6341 9.77103C27.4781 10.421 26.9451 10.785 26.2301 10.785C25.2551 10.785 24.5661 10.031 24.5531 8.79603H28.6351V8.44503C28.6351 6.76803 27.7901 5.61103 26.2041 5.61103C24.6311 5.61103 23.5781 6.89803 23.5781 8.62703C23.5781 10.408 24.6571 11.617 26.2301 11.617C27.5301 11.617 28.3491 10.863 28.5571 9.77103H27.6341ZM26.2171 6.44303C27.1791 6.44303 27.6341 7.19703 27.6471 8.05503H24.5791C24.7221 7.04103 25.3461 6.44303 26.2171 6.44303ZM32.3405 5.61103C32.5875 5.61103 32.7955 5.65003 32.8995 5.70203V6.70303C32.7435 6.59903 32.4965 6.54703 32.2495 6.54703C31.6385 6.54703 31.1055 6.95003 30.9105 7.62603V11.5H29.9355V5.72803H30.9105V6.48203C31.1575 5.98803 31.7035 5.61103 32.3405 5.61103Z" fill="currentColor"/>
</g>
<defs>
<clipPath id="clip0">
<rect width="40" height="16" fill="white"/>
</clipPath>
</defs>
</svg>
