<svg width="16" height="16" viewBox="0 0 16 16" fill="none" xmlns="http://www.w3.org/2000/svg" id="KEY-AMPERSAND">
<g clip-path="url(#clip0)">
<path fill-rule="evenodd" clip-rule="evenodd" d="M0.327011 1.63803C3.05176e-05 2.27976 3.05176e-05 3.11984 3.05176e-05 4.8V11.2C3.05176e-05 12.8802 3.05176e-05 13.7202 0.327011 14.362C0.614631 14.9265 1.07357 15.3854 1.63806 15.673C2.27979 16 3.11987 16 4.80003 16H11.2C12.8802 16 13.7203 16 14.362 15.673C14.9265 15.3854 15.3854 14.9265 15.673 14.362C16 13.7202 16 12.8802 16 11.2V4.8C16 3.11984 16 2.27976 15.673 1.63803C15.3854 1.07354 14.9265 0.614601 14.362 0.32698C13.7203 0 12.8802 0 11.2 0H4.80003C3.11987 0 2.27979 0 1.63806 0.32698C1.07357 0.614601 0.614631 1.07354 0.327011 1.63803ZM7.68529 3.67798C9.14129 3.67798 9.92529 4.60198 9.98129 5.76398H8.93129C8.88929 5.06398 8.45529 4.53198 7.68529 4.53198C6.94329 4.53198 6.35529 5.00798 6.35529 5.81998C6.35529 6.42827 6.75989 6.86688 7.22884 7.37526C7.24558 7.39341 7.26241 7.41164 7.27929 7.42998L9.68729 9.99198C9.92529 9.44598 10.0653 8.80198 10.0933 8.08798H11.0733C11.0453 9.02598 10.7933 9.93598 10.3313 10.692L11.9413 12.4H10.5553L9.70129 11.504C9.07129 12.134 8.24529 12.526 7.23729 12.526C5.59929 12.526 4.45129 11.42 4.45129 9.89398C4.45129 8.85798 5.10929 7.97598 6.01929 7.54198C5.59929 7.02398 5.33329 6.53398 5.33329 5.84798C5.33329 4.50398 6.35529 3.67798 7.68529 3.67798ZM5.45929 9.89398C5.45929 10.916 6.18729 11.644 7.23729 11.644C8.02129 11.644 8.65129 11.364 9.11329 10.874L6.60729 8.19998C5.93529 8.45198 5.45929 9.12398 5.45929 9.89398Z" fill="currentColor"/>
</g>
<defs>
<clipPath id="clip0">
<rect width="16" height="16" fill="white"/>
</clipPath>
</defs>
</svg>
