<svg width="40" height="16" viewBox="0 0 40 16" fill="none" xmlns="http://www.w3.org/2000/svg" id="KEY-W-TAB">
<path fill-rule="evenodd" clip-rule="evenodd" d="M0.32698 1.63803C0 2.27976 0 3.11984 0 4.8V11.2C0 12.8802 0 13.7202 0.32698 14.362C0.614601 14.9265 1.07354 15.3854 1.63803 15.673C2.27976 16 3.11984 16 4.8 16H35.2C36.8802 16 37.7202 16 38.362 15.673C38.9265 15.3854 39.3854 14.9265 39.673 14.362C40 13.7202 40 12.8802 40 11.2V4.8C40 3.11984 40 2.27976 39.673 1.63803C39.3854 1.07354 38.9265 0.614601 38.362 0.32698C37.7202 0 36.8802 0 35.2 0H4.8C3.11984 0 2.27976 0 1.63803 0.32698C1.07354 0.614601 0.614601 1.07354 0.32698 1.63803ZM25.1531 11.917C24.4381 11.917 23.8141 11.54 23.5281 11.124V11.8H22.5401V3.34998H23.5281V6.70398C23.8141 6.28798 24.4381 5.91098 25.1531 5.91098C26.8431 5.91098 27.7531 7.28898 27.7531 8.91398C27.7531 10.552 26.8431 11.917 25.1531 11.917ZM25.0101 6.79498C24.3991 6.79498 23.8271 7.14598 23.5281 7.74398V10.084C23.8271 10.682 24.3991 11.033 25.0101 11.033C26.1151 11.033 26.7651 10.136 26.7651 8.91398C26.7651 7.69198 26.1151 6.79498 25.0101 6.79498ZM12.9365 10.344C12.9365 11.41 13.5865 11.917 14.5225 11.917C14.8735 11.917 15.2115 11.839 15.4325 11.722V10.812C15.2375 10.942 14.9515 11.046 14.6785 11.046C14.1845 11.046 13.9115 10.799 13.9115 10.24V6.85998H15.3025V6.02798H13.9115V4.50698H12.9365V6.02798H12.0005V6.85998H12.9365V10.344ZM20.8866 11.8V7.95198C20.8866 6.69098 20.0676 5.91098 18.6896 5.91098C17.5846 5.91098 16.7266 6.57398 16.5316 7.54898H17.4936C17.6756 7.01598 18.0656 6.75598 18.6766 6.75598C19.5086 6.75598 19.9506 7.27598 19.9506 7.99098V8.71898C19.7036 8.49798 19.0926 8.25098 18.4946 8.25098C17.2596 8.25098 16.2846 8.97898 16.2846 10.058C16.2846 11.202 17.2596 11.904 18.4296 11.904C19.1186 11.904 19.7296 11.605 19.9506 11.371V11.8H20.8866ZM19.9506 10.37C19.7816 10.799 19.1966 11.085 18.5986 11.085C17.8966 11.085 17.2206 10.76 17.2206 10.058C17.2206 9.36898 17.8966 9.05698 18.5986 9.05698C19.1966 9.05698 19.7816 9.34298 19.9506 9.77198V10.37Z" fill="currentColor"/>
</svg>
