<svg width="16" height="16" viewBox="0 0 16 16" fill="none" xmlns="http://www.w3.org/2000/svg" id="KEY-S">
<path fill-rule="evenodd" clip-rule="evenodd" d="M0.32698 1.63803C0 2.27976 0 3.11984 0 4.8V11.2C0 12.8802 0 13.7202 0.32698 14.362C0.614601 14.9265 1.07354 15.3854 1.63803 15.673C2.27976 16 3.11984 16 4.8 16H11.2C12.8802 16 13.7202 16 14.362 15.673C14.9265 15.3854 15.3854 14.9265 15.673 14.362C16 13.7202 16 12.8802 16 11.2V4.8C16 3.11984 16 2.27976 15.673 1.63803C15.3854 1.07354 14.9265 0.614601 14.362 0.32698C13.7202 0 12.8802 0 11.2 0H4.8C3.11984 0 2.27976 0 1.63803 0.32698C1.07354 0.614601 0.614601 1.07354 0.32698 1.63803ZM8.06447 12.526C6.35647 12.526 5.08247 11.672 4.76047 10.16H5.88047C6.20247 11.112 7.01447 11.588 8.06447 11.588C9.18447 11.588 9.96847 11.042 9.96847 10.09C9.96847 9.41798 9.59047 8.98398 8.59647 8.73198L7.05647 8.32598C5.86647 8.01798 4.99847 7.41598 4.99847 6.11398C4.99847 4.65798 6.20247 3.67798 7.82647 3.67798C9.60447 3.67798 10.6545 4.58798 10.9765 5.94598H9.87047C9.60447 5.17598 8.96047 4.61598 7.82647 4.61598C6.80447 4.61598 6.04847 5.14798 6.04847 6.02998C6.04847 6.75798 6.52447 7.10798 7.42047 7.34598L8.89047 7.72398C10.2625 8.07398 11.0325 8.81598 11.0325 10.034C11.0325 11.588 9.77247 12.526 8.06447 12.526Z" fill="currentColor"/>
</svg>
