<svg width="40" height="16" viewBox="0 0 40 16" fill="none" xmlns="http://www.w3.org/2000/svg" id="KEY-W-DELETE">
<g clip-path="url(#clip0)">
<path fill-rule="evenodd" clip-rule="evenodd" d="M0.327041 1.63803C6.10352e-05 2.27976 6.10352e-05 3.11984 6.10352e-05 4.8V11.2C6.10352e-05 12.8802 6.10352e-05 13.7202 0.327041 14.362C0.614662 14.9265 1.0736 15.3854 1.63809 15.673C2.27982 16 3.1199 16 4.80006 16H35.2001C36.8802 16 37.7203 16 38.362 15.673C38.9265 15.3854 39.3855 14.9265 39.6731 14.362C40.0001 13.7202 40.0001 12.8802 40.0001 11.2V4.8C40.0001 3.11984 40.0001 2.27976 39.6731 1.63803C39.3855 1.07354 38.9265 0.614601 38.362 0.32698C37.7203 0 36.8802 0 35.2001 0H4.80006C3.1199 0 2.27982 0 1.63809 0.32698C1.0736 0.614601 0.614662 1.07354 0.327041 1.63803ZM10.1036 11.8H9.11561V11.124C8.82961 11.54 8.20561 11.917 7.49061 11.917C5.80061 11.917 4.89061 10.552 4.89061 8.91398C4.89061 7.28898 5.80061 5.91098 7.49061 5.91098C8.20561 5.91098 8.82961 6.28798 9.11561 6.70398V3.34998H10.1036V11.8ZM7.63361 11.033C8.24461 11.033 8.81661 10.682 9.11561 10.084V7.74398C8.81661 7.14598 8.24461 6.79498 7.63361 6.79498C6.52861 6.79498 5.87861 7.69198 5.87861 8.91398C5.87861 10.136 6.52861 11.033 7.63361 11.033ZM14.068 11.085C14.783 11.085 15.316 10.721 15.472 10.071H16.395C16.187 11.163 15.368 11.917 14.068 11.917C12.495 11.917 11.416 10.708 11.416 8.92698C11.416 7.19798 12.469 5.91098 14.042 5.91098C15.628 5.91098 16.473 7.06798 16.473 8.74498V9.09598H12.391C12.404 10.331 13.093 11.085 14.068 11.085ZM15.485 8.35498C15.472 7.49698 15.017 6.74298 14.055 6.74298C13.184 6.74298 12.56 7.34098 12.417 8.35498H15.485ZM18.7484 3.34998H17.7734V11.8H18.7484V3.34998ZM22.7262 11.085C23.4412 11.085 23.9742 10.721 24.1302 10.071H25.0532C24.8452 11.163 24.0262 11.917 22.7262 11.917C21.1532 11.917 20.0742 10.708 20.0742 8.92698C20.0742 7.19798 21.1272 5.91098 22.7002 5.91098C24.2862 5.91098 25.1312 7.06798 25.1312 8.74498V9.09598H21.0492C21.0622 10.331 21.7512 11.085 22.7262 11.085ZM24.1432 8.35498C24.1302 7.49698 23.6752 6.74298 22.7132 6.74298C21.8422 6.74298 21.2182 7.34098 21.0752 8.35498H24.1432ZM26.7046 10.344C26.7046 11.41 27.3546 11.917 28.2906 11.917C28.6416 11.917 28.9796 11.839 29.2006 11.722V10.812C29.0056 10.942 28.7196 11.046 28.4466 11.046C27.9526 11.046 27.6796 10.799 27.6796 10.24V6.85998H29.0706V6.02798H27.6796V4.50698H26.7046V6.02798H25.7686V6.85998H26.7046V10.344ZM32.7301 11.085C33.4451 11.085 33.9781 10.721 34.1341 10.071H35.0571C34.8491 11.163 34.0301 11.917 32.7301 11.917C31.1571 11.917 30.0781 10.708 30.0781 8.92698C30.0781 7.19798 31.1311 5.91098 32.7041 5.91098C34.2901 5.91098 35.1351 7.06798 35.1351 8.74498V9.09598H31.0531C31.0661 10.331 31.7551 11.085 32.7301 11.085ZM34.1471 8.35498C34.1341 7.49698 33.6791 6.74298 32.7171 6.74298C31.8461 6.74298 31.2221 7.34098 31.0791 8.35498H34.1471Z" fill="currentColor"/>
</g>
<defs>
<clipPath id="clip0">
<rect width="40" height="16" fill="white"/>
</clipPath>
</defs>
</svg>
