<svg width="16" height="16" viewBox="0 0 16 16" fill="none" xmlns="http://www.w3.org/2000/svg" id="KEY-M">
<g clip-path="url(#clip0)">
<path fill-rule="evenodd" clip-rule="evenodd" d="M0.327011 1.63803C3.05176e-05 2.27976 3.05176e-05 3.11984 3.05176e-05 4.8V11.2C3.05176e-05 12.8802 3.05176e-05 13.7202 0.327011 14.362C0.614631 14.9265 1.07357 15.3854 1.63806 15.673C2.27979 16 3.11987 16 4.80003 16H11.2C12.8802 16 13.7203 16 14.362 15.673C14.9265 15.3854 15.3854 14.9265 15.673 14.362C16 13.7202 16 12.8802 16 11.2V4.8C16 3.11984 16 2.27976 15.673 1.63803C15.3854 1.07354 14.9265 0.614601 14.362 0.32698C13.7203 0 12.8802 0 11.2 0H4.80003C3.11987 0 2.27979 0 1.63806 0.32698C1.07357 0.614601 0.614631 1.07354 0.327011 1.63803ZM11.0777 5.84802L8.38974 12.4H7.63374L4.91774 5.84802V12.4H3.86774V3.80402H5.11374L8.02574 10.86L10.9237 3.80402H12.1277V12.4H11.0777V5.84802Z" fill="currentColor"/>
</g>
<defs>
<clipPath id="clip0">
<rect width="16" height="16" fill="white"/>
</clipPath>
</defs>
</svg>
