<svg width="16" height="16" viewBox="0 0 16 16" fill="none" xmlns="http://www.w3.org/2000/svg" id="KEY-AT-SIGN">
<g clip-path="url(#clip0)">
<path fill-rule="evenodd" clip-rule="evenodd" d="M0.327103 1.63803C0.00012207 2.27976 0.00012207 3.11984 0.00012207 4.8V11.2C0.00012207 12.8802 0.00012207 13.7202 0.327103 14.362C0.614723 14.9265 1.07366 15.3854 1.63815 15.673C2.27989 16 3.11996 16 4.80012 16H11.2001C12.8803 16 13.7204 16 14.3621 15.673C14.9266 15.3854 15.3855 14.9265 15.6731 14.362C16.0001 13.7202 16.0001 12.8802 16.0001 11.2V4.8C16.0001 3.11984 16.0001 2.27976 15.6731 1.63803C15.3855 1.07354 14.9266 0.614601 14.3621 0.32698C13.7204 0 12.8803 0 11.2001 0H4.80012C3.11996 0 2.27989 0 1.63815 0.32698C1.07366 0.614601 0.614723 1.07354 0.327103 1.63803ZM9.37545 6.04697H10.2464L9.68745 9.20597C9.59645 9.72597 9.79145 9.90797 10.2074 9.90797C11.1304 9.90797 11.8324 9.02397 11.8324 7.47697C11.8324 5.59197 10.3504 4.36997 8.30945 4.36997C5.86545 4.36997 4.18845 6.15097 4.18845 8.55597C4.18845 11.325 6.37245 12.274 8.32245 12.274C9.47945 12.274 10.4024 12.014 11.1434 11.676V12.417C10.4934 12.729 9.46645 13.002 8.32245 13.002C5.80045 13.002 3.38245 11.676 3.38245 8.55597C3.38245 5.83897 5.35845 3.64197 8.30945 3.64197C10.8704 3.64197 12.6124 5.29297 12.6124 7.47697C12.6124 9.59597 11.3644 10.61 10.0774 10.61C9.46645 10.61 8.95945 10.337 8.77745 9.85597C8.51745 10.285 7.97145 10.597 7.45145 10.597C6.35945 10.597 5.73545 9.75197 5.73545 8.67297C5.73545 7.25597 6.69745 5.92997 8.10145 5.92997C8.68645 5.92997 9.10245 6.22897 9.28445 6.52797L9.37545 6.04697ZM7.63345 9.79097C8.16645 9.79097 8.54345 9.45297 8.81645 9.03697L9.11545 7.42497C8.97245 7.03497 8.62145 6.73597 8.15345 6.73597C7.21745 6.73597 6.63245 7.69797 6.63245 8.63397C6.63245 9.32297 7.00945 9.79097 7.63345 9.79097Z" fill="currentColor"/>
</g>
<defs>
<clipPath id="clip0">
<rect width="16" height="16" fill="white" transform="translate(0.00012207)"/>
</clipPath>
</defs>
</svg>
