<svg width="40" height="16" viewBox="0 0 40 16" fill="none" xmlns="http://www.w3.org/2000/svg" id="KEY-W-ALT">
<path fill-rule="evenodd" clip-rule="evenodd" d="M0.32698 1.63803C0 2.27976 0 3.11984 0 4.8V11.2C0 12.8802 0 13.7202 0.32698 14.362C0.614601 14.9265 1.07354 15.3854 1.63803 15.673C2.27976 16 3.11984 16 4.8 16H35.2C36.8802 16 37.7202 16 38.362 15.673C38.9265 15.3854 39.3854 14.9265 39.673 14.362C40 13.7202 40 12.8802 40 11.2V4.8C40 3.11984 40 2.27976 39.673 1.63803C39.3854 1.07354 38.9265 0.614601 38.362 0.32698C37.7202 0 36.8802 0 35.2 0H4.8C3.11984 0 2.27976 0 1.63803 0.32698C1.07354 0.614601 0.614601 1.07354 0.32698 1.63803ZM21.3509 3.34998H20.3759V11.8H21.3509V3.34998ZM18.7093 11.8V7.95198C18.7093 6.69098 17.8903 5.91098 16.5123 5.91098C15.4073 5.91098 14.5493 6.57398 14.3543 7.54898H15.3163C15.4983 7.01598 15.8883 6.75598 16.4993 6.75598C17.3313 6.75598 17.7733 7.27598 17.7733 7.99098V8.71898C17.5263 8.49798 16.9153 8.25098 16.3173 8.25098C15.0823 8.25098 14.1073 8.97898 14.1073 10.058C14.1073 11.202 15.0823 11.904 16.2523 11.904C16.9413 11.904 17.5523 11.605 17.7733 11.371V11.8H18.7093ZM17.7733 10.37C17.6043 10.799 17.0193 11.085 16.4213 11.085C15.7193 11.085 15.0433 10.76 15.0433 10.058C15.0433 9.36898 15.7193 9.05698 16.4213 9.05698C17.0193 9.05698 17.6043 9.34298 17.7733 9.77198V10.37ZM24.9517 11.917C24.0157 11.917 23.3657 11.41 23.3657 10.344V6.85998H22.4297V6.02798H23.3657V4.50698H24.3407V6.02798H25.7317V6.85998H24.3407V10.24C24.3407 10.799 24.6137 11.046 25.1077 11.046C25.3807 11.046 25.6667 10.942 25.8617 10.812V11.722C25.6407 11.839 25.3027 11.917 24.9517 11.917Z" fill="currentColor"/>
</svg>
