<svg width="40" height="16" viewBox="0 0 40 16" fill="none" xmlns="http://www.w3.org/2000/svg" id="KEY-W-SPACE">
<g clip-path="url(#clip0)">
<path fill-rule="evenodd" clip-rule="evenodd" d="M0.327103 1.63803C0.00012207 2.27976 0.00012207 3.11984 0.00012207 4.8V11.2C0.00012207 12.8802 0.00012207 13.7202 0.327103 14.362C0.614723 14.9265 1.07366 15.3854 1.63815 15.673C2.27989 16 3.11996 16 4.80012 16H35.2001C36.8803 16 37.7204 16 38.3621 15.673C38.9266 15.3854 39.3855 14.9265 39.6731 14.362C40.0001 13.7202 40.0001 12.8802 40.0001 11.2V4.8C40.0001 3.11984 40.0001 2.27976 39.6731 1.63803C39.3855 1.07354 38.9266 0.614601 38.3621 0.32698C37.7204 0 36.8803 0 35.2001 0H4.80012C3.11996 0 2.27989 0 1.63815 0.32698C1.07366 0.614601 0.614723 1.07354 0.327103 1.63803ZM5.65088 10.214C5.83288 11.28 6.75588 11.917 8.01688 11.917C9.25188 11.917 10.1619 11.267 10.1619 10.175C10.1619 9.36901 9.68088 8.82301 8.69288 8.56301L7.57488 8.29001C7.02888 8.13401 6.76888 7.95201 6.76888 7.56201C6.76888 7.00301 7.30188 6.73001 7.87388 6.73001C8.57588 6.73001 8.97888 7.02901 9.14788 7.54901H10.1229C9.91488 6.53501 9.16088 5.91101 7.88688 5.91101C6.71688 5.91101 5.81988 6.58701 5.81988 7.61401C5.81988 8.51101 6.39188 8.92701 7.21088 9.13501L8.35488 9.43401C8.95288 9.59001 9.21288 9.83701 9.21288 10.24C9.21288 10.825 8.71888 11.098 8.02988 11.098C7.35388 11.098 6.84688 10.812 6.66488 10.214H5.65088ZM12.4897 11.124C12.7887 11.54 13.3997 11.917 14.1147 11.917C15.8177 11.917 16.7147 10.513 16.7147 8.91401C16.7147 7.31501 15.8177 5.91101 14.1147 5.91101C13.3997 5.91101 12.7887 6.28801 12.4897 6.70401V6.02801H11.5147V14.01H12.4897V11.124ZM12.4897 7.74401C12.7887 7.14601 13.3607 6.79501 13.9717 6.79501C15.0767 6.79501 15.7267 7.69201 15.7267 8.91401C15.7267 10.136 15.0767 11.033 13.9717 11.033C13.3607 11.033 12.7887 10.682 12.4897 10.084V7.74401ZM22.2261 7.95201V11.8H21.2901V11.371C21.0691 11.605 20.4581 11.904 19.7691 11.904C18.5991 11.904 17.6241 11.202 17.6241 10.058C17.6241 8.97901 18.5991 8.25101 19.8341 8.25101C20.4321 8.25101 21.0431 8.49801 21.2901 8.71901V7.99101C21.2901 7.27601 20.8481 6.75601 20.0161 6.75601C19.4051 6.75601 19.0151 7.01601 18.8331 7.54901H17.8711C18.0661 6.57401 18.9241 5.91101 20.0291 5.91101C21.4071 5.91101 22.2261 6.69101 22.2261 7.95201ZM19.9381 11.085C20.5361 11.085 21.1211 10.799 21.2901 10.37V9.77201C21.1211 9.34301 20.5361 9.05701 19.9381 9.05701C19.2361 9.05701 18.5601 9.36901 18.5601 10.058C18.5601 10.76 19.2361 11.085 19.9381 11.085ZM23.4766 8.91401C23.4766 10.708 24.5556 11.917 26.1026 11.917C27.4026 11.917 28.2216 11.163 28.4166 10.058H27.4156C27.2856 10.682 26.7916 11.059 26.1026 11.059C25.1146 11.059 24.4646 10.175 24.4646 8.91401C24.4646 7.65301 25.1146 6.76901 26.1026 6.76901C26.7916 6.76901 27.2856 7.14601 27.4156 7.77001H28.4166C28.2216 6.66501 27.4026 5.91101 26.1026 5.91101C24.5556 5.91101 23.4766 7.12001 23.4766 8.91401ZM31.905 11.085C32.62 11.085 33.153 10.721 33.309 10.071H34.232C34.024 11.163 33.205 11.917 31.905 11.917C30.332 11.917 29.253 10.708 29.253 8.92701C29.253 7.19801 30.306 5.91101 31.879 5.91101C33.465 5.91101 34.31 7.06801 34.31 8.74501V9.09601H30.228C30.241 10.331 30.93 11.085 31.905 11.085ZM33.322 8.35501C33.309 7.49701 32.854 6.74301 31.892 6.74301C31.021 6.74301 30.397 7.34101 30.254 8.35501H33.322Z" fill="currentColor"/>
</g>
<defs>
<clipPath id="clip0">
<rect width="40" height="16" fill="white" transform="translate(0.00012207)"/>
</clipPath>
</defs>
</svg>
