<svg width="16" height="16" viewBox="0 0 16 16" fill="none" xmlns="http://www.w3.org/2000/svg" id="KEY-O">
<g clip-path="url(#clip0)">
<path fill-rule="evenodd" clip-rule="evenodd" d="M0.327041 1.63803C6.10352e-05 2.27976 6.10352e-05 3.11984 6.10352e-05 4.8V11.2C6.10352e-05 12.8802 6.10352e-05 13.7202 0.327041 14.362C0.614662 14.9265 1.0736 15.3854 1.63809 15.673C2.27982 16 3.1199 16 4.80006 16H11.2001C12.8802 16 13.7203 16 14.362 15.673C14.9265 15.3854 15.3855 14.9265 15.6731 14.362C16.0001 13.7202 16.0001 12.8802 16.0001 11.2V4.8C16.0001 3.11984 16.0001 2.27976 15.6731 1.63803C15.3855 1.07354 14.9265 0.614601 14.362 0.32698C13.7203 0 12.8802 0 11.2001 0H4.80006C3.1199 0 2.27982 0 1.63809 0.32698C1.0736 0.614601 0.614662 1.07354 0.327041 1.63803ZM7.99371 3.67798C10.2617 3.67798 11.8857 5.49798 11.8857 8.10198C11.8857 10.692 10.2617 12.526 7.99371 12.526C5.73971 12.526 4.11572 10.692 4.11572 8.10198C4.11572 5.49798 5.73971 3.67798 7.99371 3.67798ZM7.99371 11.532C9.65971 11.532 10.7797 10.118 10.7797 8.10198C10.7797 6.08598 9.65971 4.67198 7.99371 4.67198C6.34171 4.67198 5.22171 6.08598 5.22171 8.10198C5.22171 10.118 6.34171 11.532 7.99371 11.532Z" fill="currentColor"/>
</g>
<defs>
<clipPath id="clip0">
<rect width="16" height="16" fill="white"/>
</clipPath>
</defs>
</svg>
