<svg width="16" height="16" viewBox="0 0 16 16" fill="none" xmlns="http://www.w3.org/2000/svg" id="KEY-QUESTION-MARK">
<path fill-rule="evenodd" clip-rule="evenodd" d="M0.32698 1.63803C0 2.27976 0 3.11984 0 4.8V11.2C0 12.8802 0 13.7202 0.32698 14.362C0.614601 14.9265 1.07354 15.3854 1.63803 15.673C2.27976 16 3.11984 16 4.8 16H11.2C12.8802 16 13.7202 16 14.362 15.673C14.9265 15.3854 15.3854 14.9265 15.673 14.362C16 13.7202 16 12.8802 16 11.2V4.8C16 3.11984 16 2.27976 15.673 1.63803C15.3854 1.07354 14.9265 0.614601 14.362 0.32698C13.7202 0 12.8802 0 11.2 0H4.8C3.11984 0 2.27976 0 1.63803 0.32698C1.07354 0.614601 0.614601 1.07354 0.32698 1.63803ZM8.10051 12.47C7.69451 12.47 7.35851 12.148 7.35851 11.714C7.35851 11.28 7.69451 10.944 8.10051 10.944C8.52051 10.944 8.85651 11.28 8.85651 11.714C8.85651 12.148 8.52051 12.47 8.10051 12.47ZM8.07251 3.67798C9.71051 3.67798 10.6905 4.61598 10.6905 6.08598C10.6905 7.04487 10.0309 7.7399 9.41093 8.3931C9.36108 8.44562 9.31149 8.49788 9.26251 8.54998C8.78651 9.05398 8.67451 9.36198 8.66051 9.69798H7.62451C7.66651 8.99798 7.87651 8.63398 8.43651 8.01798C8.53176 7.90912 8.63494 7.80133 8.73938 7.69222C9.1722 7.24005 9.62651 6.76542 9.62651 6.09998C9.62651 5.21798 9.02451 4.65798 8.07251 4.65798C7.05051 4.65798 6.47651 5.37198 6.39251 6.37998H5.25851C5.42651 4.78398 6.50451 3.67798 8.07251 3.67798Z" fill="currentColor"/>
</svg>
