<svg width="16" height="16" viewBox="0 0 16 16" fill="none" xmlns="http://www.w3.org/2000/svg" id="KEY-G">
<path fill-rule="evenodd" clip-rule="evenodd" d="M0.32698 1.63803C0 2.27976 0 3.11984 0 4.8V11.2C0 12.8802 0 13.7202 0.32698 14.362C0.614601 14.9265 1.07354 15.3854 1.63803 15.673C2.27976 16 3.11984 16 4.8 16H11.2C12.8802 16 13.7202 16 14.362 15.673C14.9265 15.3854 15.3854 14.9265 15.673 14.362C16 13.7202 16 12.8802 16 11.2V4.8C16 3.11984 16 2.27976 15.673 1.63803C15.3854 1.07354 14.9265 0.614601 14.362 0.32698C13.7202 0 12.8802 0 11.2 0H4.8C3.11984 0 2.27976 0 1.63803 0.32698C1.07354 0.614601 0.614601 1.07354 0.32698 1.63803ZM8.148 11.468C9.646 11.468 10.528 10.53 10.654 9.03198H8.596V8.07998H11.704V8.66798C11.704 10.964 10.248 12.448 8.148 12.448C5.908 12.448 4.2 10.712 4.2 8.02398C4.2 5.33598 5.922 3.59998 8.12 3.59998C9.954 3.59998 11.158 4.64998 11.508 6.24598H10.402C10.038 5.23798 9.338 4.59398 8.12 4.59398C6.454 4.59398 5.306 5.96598 5.306 8.02398C5.306 10.082 6.44 11.468 8.148 11.468Z" fill="currentColor"/>
</svg>
