<svg width="16" height="16" viewBox="0 0 16 16" fill="none" xmlns="http://www.w3.org/2000/svg" id="KEY-SEMICOLON">
<path fill-rule="evenodd" clip-rule="evenodd" d="M0.32698 1.63803C0 2.27976 0 3.11984 0 4.8V11.2C0 12.8802 0 13.7202 0.32698 14.362C0.614601 14.9265 1.07354 15.3854 1.63803 15.673C2.27976 16 3.11984 16 4.8 16H11.2C12.8802 16 13.7202 16 14.362 15.673C14.9265 15.3854 15.3854 14.9265 15.673 14.362C16 13.7202 16 12.8802 16 11.2V4.8C16 3.11984 16 2.27976 15.673 1.63803C15.3854 1.07354 14.9265 0.614601 14.362 0.32698C13.7202 0 12.8802 0 11.2 0H4.8C3.11984 0 2.27976 0 1.63803 0.32698C1.07354 0.614601 0.614601 1.07354 0.32698 1.63803ZM7.69972 12.698H6.98572L7.86772 11.214C7.51772 11.158 7.25172 10.92 7.25172 10.514C7.25172 10.08 7.58772 9.77202 8.00772 9.77202C8.42772 9.77202 8.74972 10.066 8.74972 10.584C8.74972 10.878 8.60972 11.2 8.44172 11.466L7.69972 12.698ZM8.00772 6.87402C7.58772 6.87402 7.25172 6.55202 7.25172 6.11802C7.25172 5.68402 7.58772 5.34802 8.00772 5.34802C8.41372 5.34802 8.74972 5.68402 8.74972 6.11802C8.74972 6.55202 8.41372 6.87402 8.00772 6.87402Z" fill="currentColor"/>
</svg>
