<svg width="40" height="16" viewBox="0 0 40 16" fill="none" xmlns="http://www.w3.org/2000/svg" id="KEY-W-OPTION">
<path fill-rule="evenodd" clip-rule="evenodd" d="M0.32698 1.63803C0 2.27976 0 3.11984 0 4.8V11.2C0 12.8802 0 13.7202 0.32698 14.362C0.614601 14.9265 1.07354 15.3854 1.63803 15.673C2.27976 16 3.11984 16 4.8 16H35.2C36.8802 16 37.7202 16 38.362 15.673C38.9265 15.3854 39.3854 14.9265 39.673 14.362C40 13.7202 40 12.8802 40 11.2V4.8C40 3.11984 40 2.27976 39.673 1.63803C39.3854 1.07354 38.9265 0.614601 38.362 0.32698C37.7202 0 36.8802 0 35.2 0H4.8C3.11984 0 2.27976 0 1.63803 0.32698C1.07354 0.614601 0.614601 1.07354 0.32698 1.63803ZM21.6581 6.02799H22.6331V11.8H21.6581V6.02799ZM22.1391 3.66199C22.4901 3.66199 22.7761 3.93499 22.7761 4.28599C22.7761 4.62399 22.4901 4.90999 22.1391 4.90999C21.8011 4.90999 21.5151 4.62399 21.5151 4.28599C21.5151 3.93499 21.8011 3.66199 22.1391 3.66199ZM17.8051 10.344C17.8051 11.41 18.4551 11.917 19.3911 11.917C19.7421 11.917 20.0801 11.839 20.3011 11.722V10.812C20.1061 10.942 19.8201 11.046 19.5471 11.046C19.0531 11.046 18.7801 10.799 18.7801 10.24V6.85999H20.1711V6.02799H18.7801V4.50699H17.8051V6.02799H16.8691V6.85999H17.8051V10.344ZM7.03472 5.91099C8.60772 5.91099 9.68672 7.14599 9.68672 8.91399C9.68672 10.682 8.60772 11.917 7.03472 11.917C5.44872 11.917 4.38272 10.682 4.38272 8.91399C4.38272 7.14599 5.44872 5.91099 7.03472 5.91099ZM7.03472 11.059C8.07472 11.059 8.69872 10.175 8.69872 8.91399C8.69872 7.65299 8.07472 6.76899 7.03472 6.76899C5.99472 6.76899 5.37072 7.65299 5.37072 8.91399C5.37072 10.175 5.99472 11.059 7.03472 11.059ZM13.6067 11.917C12.8917 11.917 12.2807 11.54 11.9817 11.124V14.01H11.0067V6.02799H11.9817V6.70399C12.2807 6.28799 12.8917 5.91099 13.6067 5.91099C15.3097 5.91099 16.2067 7.31499 16.2067 8.91399C16.2067 10.513 15.3097 11.917 13.6067 11.917ZM13.4637 6.79499C12.8527 6.79499 12.2807 7.14599 11.9817 7.74399V10.084C12.2807 10.682 12.8527 11.033 13.4637 11.033C14.5687 11.033 15.2187 10.136 15.2187 8.91399C15.2187 7.69199 14.5687 6.79499 13.4637 6.79499ZM29.2629 8.91399C29.2629 7.14599 28.1839 5.91099 26.6109 5.91099C25.0249 5.91099 23.9589 7.14599 23.9589 8.91399C23.9589 10.682 25.0249 11.917 26.6109 11.917C28.1839 11.917 29.2629 10.682 29.2629 8.91399ZM28.2749 8.91399C28.2749 10.175 27.6509 11.059 26.6109 11.059C25.5709 11.059 24.9469 10.175 24.9469 8.91399C24.9469 7.65299 25.5709 6.76899 26.6109 6.76899C27.6509 6.76899 28.2749 7.65299 28.2749 8.91399ZM31.5579 11.8H30.5829V6.02799H31.5579V6.75599C31.8959 6.30099 32.5199 5.91099 33.2609 5.91099C34.5739 5.91099 35.2889 6.75599 35.2889 8.01699V11.8H34.3009V8.17299C34.3009 7.36699 33.8979 6.80799 33.0269 6.80799C32.3509 6.80799 31.7659 7.26299 31.5579 7.88699V11.8Z" fill="currentColor"/>
</svg>
