<svg width="236" height="80" viewBox="0 0 236 80" fill="none" xmlns="http://www.w3.org/2000/svg">
<path d="M4.00793 3.704C4.28793 3.752 4.53993 3.836 4.76393 3.956C4.99593 4.068 5.19193 4.208 5.35193 4.376C5.51193 4.544 5.63593 4.732 5.72393 4.94C5.81193 5.14 5.85593 5.352 5.85593 5.576V5.792H4.94393V5.648C4.94393 5.384 4.85593 5.16 4.67993 4.976C4.51193 4.792 4.28793 4.664 4.00793 4.592V6.308C4.67193 6.388 5.17593 6.572 5.51993 6.86C5.87193 7.14 6.04793 7.528 6.04793 8.024V8.096C6.04793 8.632 5.85993 9.064 5.48393 9.392C5.11593 9.712 4.62393 9.892 4.00793 9.932V10.664H3.14393V9.908C2.79193 9.852 2.48793 9.756 2.23193 9.62C1.98393 9.476 1.77593 9.308 1.60793 9.116C1.44793 8.916 1.32793 8.704 1.24793 8.48C1.16793 8.248 1.12793 8.016 1.12793 7.784V7.496H2.03993V7.64C2.03993 8.024 2.13593 8.332 2.32793 8.564C2.51993 8.796 2.79193 8.952 3.14393 9.032V7.076C2.54393 6.996 2.08393 6.824 1.76393 6.56C1.45193 6.288 1.29593 5.912 1.29593 5.432V5.36C1.29593 5.104 1.34393 4.88 1.43993 4.688C1.54393 4.488 1.67993 4.32 1.84793 4.184C2.01593 4.04 2.21193 3.928 2.43593 3.848C2.65993 3.76 2.89593 3.704 3.14393 3.68V2.936H4.00793V3.704ZM5.11193 8.096C5.11193 7.816 5.02393 7.608 4.84793 7.472C4.67193 7.336 4.39193 7.236 4.00793 7.172V9.068C4.35193 9.028 4.61993 8.924 4.81193 8.756C5.01193 8.588 5.11193 8.368 5.11193 8.096ZM2.23193 5.36C2.23193 5.584 2.29593 5.768 2.42393 5.912C2.55993 6.048 2.79993 6.148 3.14393 6.212V4.544C2.88793 4.584 2.67193 4.672 2.49593 4.808C2.31993 4.944 2.23193 5.128 2.23193 5.36Z" fill="#D19F64"/>
<path d="M16.4592 13.4H15.5232V5.048H16.4592V5.984H16.6032C16.8112 5.624 17.0992 5.352 17.4672 5.168C17.8352 4.976 18.2352 4.88 18.6672 4.88C19.0352 4.88 19.3832 4.948 19.7112 5.084C20.0392 5.22 20.3272 5.416 20.5752 5.672C20.8312 5.928 21.0312 6.244 21.1752 6.62C21.3272 6.996 21.4032 7.424 21.4032 7.904V8.144C21.4032 8.632 21.3312 9.064 21.1872 9.44C21.0432 9.816 20.8432 10.132 20.5872 10.388C20.3392 10.644 20.0472 10.84 19.7112 10.976C19.3752 11.104 19.0192 11.168 18.6432 11.168C18.4512 11.168 18.2552 11.144 18.0552 11.096C17.8552 11.056 17.6632 10.992 17.4792 10.904C17.3032 10.808 17.1392 10.696 16.9872 10.568C16.8352 10.432 16.7072 10.272 16.6032 10.088H16.4592V13.4ZM18.4512 10.28C18.7392 10.28 19.0032 10.232 19.2432 10.136C19.4832 10.032 19.6912 9.888 19.8672 9.704C20.0512 9.52 20.1912 9.296 20.2872 9.032C20.3912 8.768 20.4432 8.472 20.4432 8.144V7.904C20.4432 7.584 20.3912 7.296 20.2872 7.04C20.1912 6.776 20.0512 6.552 19.8672 6.368C19.6912 6.176 19.4792 6.028 19.2312 5.924C18.9912 5.82 18.7312 5.768 18.4512 5.768C18.1712 5.768 17.9112 5.824 17.6712 5.936C17.4312 6.04 17.2192 6.188 17.0352 6.38C16.8592 6.572 16.7192 6.804 16.6152 7.076C16.5112 7.34 16.4592 7.632 16.4592 7.952V8.096C16.4592 8.424 16.5112 8.724 16.6152 8.996C16.7192 9.26 16.8592 9.488 17.0352 9.68C17.2192 9.872 17.4312 10.02 17.6712 10.124C17.9112 10.228 18.1712 10.28 18.4512 10.28Z" fill="#CECECE"/>
<path d="M27.4068 9.92H27.2629C27.0709 10.304 26.8189 10.608 26.5069 10.832C26.1949 11.056 25.7989 11.168 25.3189 11.168C24.9909 11.168 24.6868 11.112 24.4068 11C24.1348 10.896 23.8988 10.736 23.6988 10.52C23.5068 10.304 23.3549 10.036 23.2429 9.716C23.1389 9.396 23.0869 9.024 23.0869 8.6V5.048H24.0228V8.48C24.0228 9.104 24.1508 9.56 24.4068 9.848C24.6628 10.136 25.0549 10.28 25.5829 10.28C26.1509 10.28 26.5948 10.088 26.9148 9.704C27.2428 9.312 27.4068 8.792 27.4068 8.144V5.048H28.3429V12.464C28.3429 12.736 28.2548 12.96 28.0788 13.136C27.9108 13.312 27.6908 13.4 27.4188 13.4H24.0228V12.536H27.0829C27.2989 12.536 27.4068 12.416 27.4068 12.176V9.92Z" fill="#CECECE"/>
<path d="M30.2305 5.048H32.1025V2.6H33.0385V5.048H35.3425V5.912H33.0385V9.776C33.0385 10.016 33.1465 10.136 33.3625 10.136H35.0545V11H33.0265C32.7545 11 32.5305 10.912 32.3545 10.736C32.1865 10.56 32.1025 10.336 32.1025 10.064V5.912H30.2305V5.048Z" fill="#CECECE"/>
<path d="M38.7182 11H37.7822V2.6H38.7182V6.128H38.8622C39.0462 5.744 39.3022 5.44 39.6302 5.216C39.9662 4.992 40.3742 4.88 40.8542 4.88C41.5022 4.88 42.0262 5.096 42.4262 5.528C42.8342 5.952 43.0382 6.592 43.0382 7.448V11H42.1022V7.64C42.1022 7.016 41.9622 6.548 41.6822 6.236C41.4022 5.924 41.0222 5.768 40.5422 5.768C39.9742 5.768 39.5262 5.964 39.1982 6.356C38.8782 6.74 38.7182 7.256 38.7182 7.904V11Z" fill="#CECECE"/>
<path d="M50.7458 8.096C50.7458 8.592 50.6618 9.032 50.4938 9.416C50.3338 9.792 50.1178 10.112 49.8458 10.376C49.5738 10.632 49.2538 10.828 48.8858 10.964C48.5258 11.1 48.1498 11.168 47.7578 11.168C47.3578 11.168 46.9778 11.1 46.6178 10.964C46.2578 10.828 45.9418 10.632 45.6698 10.376C45.3978 10.112 45.1778 9.792 45.0098 9.416C44.8498 9.032 44.7698 8.592 44.7698 8.096V7.952C44.7698 7.464 44.8498 7.032 45.0098 6.656C45.1778 6.272 45.3978 5.948 45.6698 5.684C45.9498 5.42 46.2698 5.22 46.6298 5.084C46.9898 4.948 47.3658 4.88 47.7578 4.88C48.1498 4.88 48.5258 4.948 48.8858 5.084C49.2458 5.22 49.5618 5.42 49.8338 5.684C50.1138 5.948 50.3338 6.272 50.4938 6.656C50.6618 7.032 50.7458 7.464 50.7458 7.952V8.096ZM47.7578 10.28C48.0458 10.28 48.3098 10.232 48.5498 10.136C48.7978 10.032 49.0138 9.884 49.1978 9.692C49.3818 9.5 49.5258 9.272 49.6298 9.008C49.7338 8.736 49.7858 8.432 49.7858 8.096V7.952C49.7858 7.632 49.7338 7.34 49.6298 7.076C49.5258 6.804 49.3818 6.572 49.1978 6.38C49.0138 6.188 48.7978 6.04 48.5498 5.936C48.3018 5.824 48.0378 5.768 47.7578 5.768C47.4778 5.768 47.2138 5.824 46.9658 5.936C46.7178 6.04 46.5018 6.188 46.3178 6.38C46.1338 6.572 45.9898 6.804 45.8858 7.076C45.7818 7.34 45.7298 7.632 45.7298 7.952V8.096C45.7298 8.432 45.7818 8.736 45.8858 9.008C45.9898 9.272 46.1338 9.5 46.3178 9.692C46.5018 9.884 46.7138 10.032 46.9538 10.136C47.2018 10.232 47.4698 10.28 47.7578 10.28Z" fill="#CECECE"/>
<path d="M53.4135 11H52.4775V5.048H53.4135V6.056H53.5575C53.9255 5.272 54.5655 4.88 55.4775 4.88C56.1655 4.88 56.7135 5.096 57.1215 5.528C57.5295 5.952 57.7335 6.592 57.7335 7.448V11H56.7975V7.64C56.7975 7.016 56.6575 6.548 56.3775 6.236C56.0975 5.924 55.7175 5.768 55.2375 5.768C54.6695 5.768 54.2215 5.964 53.8935 6.356C53.5735 6.74 53.4135 7.256 53.4135 7.904V11Z" fill="#CECECE"/>
<path d="M61.6251 6.824V5.432L64.3611 3.68V3.536H59.6091V2.6H65.2251V4.136L62.4891 5.888V6.032H62.9691C63.2891 6.032 63.5971 6.084 63.8931 6.188C64.1891 6.292 64.4491 6.444 64.6731 6.644C64.9051 6.844 65.0891 7.092 65.2251 7.388C65.3691 7.676 65.4411 8.012 65.4411 8.396V8.612C65.4411 8.972 65.3691 9.308 65.2251 9.62C65.0811 9.932 64.8811 10.204 64.6251 10.436C64.3691 10.66 64.0651 10.84 63.7131 10.976C63.3691 11.104 62.9931 11.168 62.5851 11.168C62.1131 11.168 61.6891 11.096 61.3131 10.952C60.9371 10.808 60.6171 10.612 60.3531 10.364C60.0891 10.108 59.8851 9.812 59.7411 9.476C59.6051 9.132 59.5371 8.768 59.5371 8.384V7.736H60.5451V8.312C60.5451 8.616 60.5931 8.888 60.6891 9.128C60.7931 9.36 60.9331 9.56 61.1091 9.728C61.2931 9.888 61.5091 10.012 61.7571 10.1C62.0051 10.188 62.2731 10.232 62.5611 10.232C62.8251 10.232 63.0691 10.188 63.2931 10.1C63.5251 10.012 63.7251 9.892 63.8931 9.74C64.0611 9.58 64.1931 9.396 64.2891 9.188C64.3851 8.972 64.4331 8.744 64.4331 8.504V8.432C64.4331 7.928 64.2731 7.536 63.9531 7.256C63.6331 6.968 63.2331 6.824 62.7531 6.824H61.6251Z" fill="#CECECE"/>
<path d="M75.2404 11H74.3044V2.6H75.2404V5.984H75.3844C75.5924 5.624 75.8804 5.352 76.2484 5.168C76.6164 4.976 77.0164 4.88 77.4484 4.88C77.8164 4.88 78.1644 4.948 78.4924 5.084C78.8204 5.22 79.1084 5.416 79.3564 5.672C79.6124 5.928 79.8124 6.244 79.9564 6.62C80.1084 6.996 80.1844 7.424 80.1844 7.904V8.144C80.1844 8.632 80.1124 9.064 79.9684 9.44C79.8244 9.816 79.6244 10.132 79.3684 10.388C79.1204 10.644 78.8284 10.84 78.4924 10.976C78.1564 11.104 77.8004 11.168 77.4244 11.168C77.2324 11.168 77.0364 11.144 76.8364 11.096C76.6364 11.056 76.4444 10.992 76.2604 10.904C76.0844 10.808 75.9204 10.696 75.7684 10.568C75.6164 10.432 75.4884 10.272 75.3844 10.088H75.2404V11ZM77.2324 10.28C77.5204 10.28 77.7844 10.232 78.0244 10.136C78.2644 10.032 78.4724 9.888 78.6484 9.704C78.8324 9.52 78.9724 9.296 79.0684 9.032C79.1724 8.768 79.2244 8.472 79.2244 8.144V7.904C79.2244 7.584 79.1724 7.296 79.0684 7.04C78.9724 6.776 78.8324 6.552 78.6484 6.368C78.4724 6.176 78.2604 6.028 78.0124 5.924C77.7724 5.82 77.5124 5.768 77.2324 5.768C76.9524 5.768 76.6924 5.824 76.4524 5.936C76.2124 6.04 76.0004 6.188 75.8164 6.38C75.6404 6.572 75.5004 6.804 75.3964 7.076C75.2924 7.34 75.2404 7.632 75.2404 7.952V8.096C75.2404 8.424 75.2924 8.724 75.3964 8.996C75.5004 9.26 75.6404 9.488 75.8164 9.68C76.0004 9.872 76.2124 10.02 76.4524 10.124C76.6924 10.228 76.9524 10.28 77.2324 10.28Z" fill="#CECECE"/>
<path d="M82.5521 8.312C82.5761 8.904 82.7601 9.38 83.1041 9.74C83.4481 10.1 83.9281 10.28 84.5441 10.28C84.8241 10.28 85.0681 10.248 85.2761 10.184C85.4841 10.12 85.6601 10.032 85.8041 9.92C85.9561 9.808 86.0761 9.68 86.1641 9.536C86.2601 9.384 86.3361 9.224 86.3921 9.056L87.2801 9.296C87.1121 9.848 86.8001 10.3 86.3441 10.652C85.8961 10.996 85.2881 11.168 84.5201 11.168C84.0961 11.168 83.7041 11.096 83.3441 10.952C82.9921 10.8 82.6881 10.588 82.4321 10.316C82.1761 10.044 81.9761 9.72 81.8321 9.344C81.6881 8.968 81.6161 8.552 81.6161 8.096V7.808C81.6161 7.392 81.6881 7.004 81.8321 6.644C81.9841 6.284 82.1921 5.976 82.4561 5.72C82.7201 5.456 83.0281 5.252 83.3801 5.108C83.7401 4.956 84.1281 4.88 84.5441 4.88C85.0321 4.88 85.4521 4.972 85.8041 5.156C86.1641 5.332 86.4561 5.552 86.6801 5.816C86.9121 6.08 87.0801 6.368 87.1841 6.68C87.2961 6.992 87.3521 7.28 87.3521 7.544V8.312H82.5521ZM84.5441 5.768C84.2801 5.768 84.0321 5.812 83.8001 5.9C83.5761 5.98 83.3761 6.096 83.2001 6.248C83.0321 6.4 82.8921 6.58 82.7801 6.788C82.6761 6.988 82.6081 7.208 82.5761 7.448H86.4161C86.4001 7.192 86.3361 6.96 86.2241 6.752C86.1201 6.544 85.9801 6.368 85.8041 6.224C85.6361 6.08 85.4401 5.968 85.2161 5.888C85.0001 5.808 84.7761 5.768 84.5441 5.768Z" fill="#CECECE"/>
<path d="M91.0038 10.328C91.0038 10.096 91.0838 9.9 91.2438 9.74C91.4118 9.572 91.6117 9.488 91.8438 9.488C92.0757 9.488 92.2718 9.572 92.4318 9.74C92.5998 9.9 92.6838 10.096 92.6838 10.328C92.6838 10.56 92.5998 10.76 92.4318 10.928C92.2718 11.088 92.0757 11.168 91.8438 11.168C91.6117 11.168 91.4118 11.088 91.2438 10.928C91.0838 10.76 91.0038 10.56 91.0038 10.328Z" fill="#CECECE"/>
<path d="M97.2834 13.4H96.3474V5.048H97.2834V5.984H97.4274C97.6354 5.624 97.9234 5.352 98.2914 5.168C98.6594 4.976 99.0594 4.88 99.4914 4.88C99.8594 4.88 100.207 4.948 100.535 5.084C100.863 5.22 101.151 5.416 101.399 5.672C101.655 5.928 101.855 6.244 101.999 6.62C102.151 6.996 102.227 7.424 102.227 7.904V8.144C102.227 8.632 102.155 9.064 102.011 9.44C101.867 9.816 101.667 10.132 101.411 10.388C101.163 10.644 100.871 10.84 100.535 10.976C100.199 11.104 99.8434 11.168 99.4674 11.168C99.2754 11.168 99.0794 11.144 98.8794 11.096C98.6794 11.056 98.4874 10.992 98.3034 10.904C98.1274 10.808 97.9634 10.696 97.8114 10.568C97.6594 10.432 97.5314 10.272 97.4274 10.088H97.2834V13.4ZM99.2754 10.28C99.5634 10.28 99.8274 10.232 100.067 10.136C100.307 10.032 100.515 9.888 100.691 9.704C100.875 9.52 101.015 9.296 101.111 9.032C101.215 8.768 101.267 8.472 101.267 8.144V7.904C101.267 7.584 101.215 7.296 101.111 7.04C101.015 6.776 100.875 6.552 100.691 6.368C100.515 6.176 100.303 6.028 100.055 5.924C99.8154 5.82 99.5554 5.768 99.2754 5.768C98.9954 5.768 98.7354 5.824 98.4954 5.936C98.2554 6.04 98.0434 6.188 97.8594 6.38C97.6834 6.572 97.5434 6.804 97.4394 7.076C97.3354 7.34 97.2834 7.632 97.2834 7.952V8.096C97.2834 8.424 97.3354 8.724 97.4394 8.996C97.5434 9.26 97.6834 9.488 97.8594 9.68C98.0434 9.872 98.2554 10.02 98.4954 10.124C98.7354 10.228 98.9954 10.28 99.2754 10.28Z" fill="#CECECE"/>
<path d="M108.231 9.92H108.087C107.895 10.304 107.643 10.608 107.331 10.832C107.019 11.056 106.623 11.168 106.143 11.168C105.815 11.168 105.511 11.112 105.231 11C104.959 10.896 104.723 10.736 104.523 10.52C104.331 10.304 104.179 10.036 104.067 9.716C103.963 9.396 103.911 9.024 103.911 8.6V5.048H104.847V8.48C104.847 9.104 104.975 9.56 105.231 9.848C105.487 10.136 105.879 10.28 106.407 10.28C106.975 10.28 107.419 10.088 107.739 9.704C108.067 9.312 108.231 8.792 108.231 8.144V5.048H109.167V12.464C109.167 12.736 109.079 12.96 108.903 13.136C108.735 13.312 108.515 13.4 108.243 13.4H104.847V12.536H107.907C108.123 12.536 108.231 12.416 108.231 12.176V9.92Z" fill="#CECECE"/>
<path d="M15.8352 19.6H20.9952V20.536H16.8432V23.32H20.9232V24.256H16.8432V28H15.8352V19.6Z" fill="white"/>
<path d="M24.9349 20.272C24.9349 20.04 25.0149 19.844 25.1749 19.684C25.3429 19.516 25.5429 19.432 25.7749 19.432C26.0069 19.432 26.2029 19.516 26.3629 19.684C26.5309 19.844 26.6149 20.04 26.6149 20.272C26.6149 20.504 26.5309 20.704 26.3629 20.872C26.2029 21.032 26.0069 21.112 25.7749 21.112C25.5429 21.112 25.3429 21.032 25.1749 20.872C25.0149 20.704 24.9349 20.504 24.9349 20.272ZM23.2309 27.136H25.3189V22.912H23.4469V22.048H26.2549V27.136H28.1989V28H23.2309V27.136Z" fill="white"/>
<path d="M30.4345 27.136H32.5945V20.464H30.5065V19.6H33.5305V27.136H35.6905V28H30.4345V27.136Z" fill="white"/>
<path d="M38.4662 25.312C38.4902 25.904 38.6742 26.38 39.0182 26.74C39.3622 27.1 39.8422 27.28 40.4582 27.28C40.7382 27.28 40.9822 27.248 41.1902 27.184C41.3982 27.12 41.5742 27.032 41.7182 26.92C41.8702 26.808 41.9902 26.68 42.0782 26.536C42.1742 26.384 42.2502 26.224 42.3062 26.056L43.1942 26.296C43.0262 26.848 42.7142 27.3 42.2582 27.652C41.8102 27.996 41.2022 28.168 40.4342 28.168C40.0102 28.168 39.6182 28.096 39.2582 27.952C38.9062 27.8 38.6022 27.588 38.3462 27.316C38.0902 27.044 37.8902 26.72 37.7462 26.344C37.6022 25.968 37.5302 25.552 37.5302 25.096V24.808C37.5302 24.392 37.6022 24.004 37.7462 23.644C37.8982 23.284 38.1062 22.976 38.3702 22.72C38.6342 22.456 38.9422 22.252 39.2942 22.108C39.6542 21.956 40.0422 21.88 40.4582 21.88C40.9462 21.88 41.3662 21.972 41.7182 22.156C42.0782 22.332 42.3702 22.552 42.5942 22.816C42.8262 23.08 42.9942 23.368 43.0982 23.68C43.2102 23.992 43.2662 24.28 43.2662 24.544V25.312H38.4662ZM40.4582 22.768C40.1942 22.768 39.9462 22.812 39.7142 22.9C39.4902 22.98 39.2902 23.096 39.1142 23.248C38.9462 23.4 38.8062 23.58 38.6942 23.788C38.5902 23.988 38.5222 24.208 38.4902 24.448H42.3302C42.3142 24.192 42.2502 23.96 42.1382 23.752C42.0342 23.544 41.8942 23.368 41.7182 23.224C41.5502 23.08 41.3542 22.968 41.1302 22.888C40.9142 22.808 40.6902 22.768 40.4582 22.768Z" fill="white"/>
<path d="M55.3575 20.272C55.3575 20.04 55.4375 19.844 55.5975 19.684C55.7655 19.516 55.9655 19.432 56.1975 19.432C56.4295 19.432 56.6255 19.516 56.7855 19.684C56.9535 19.844 57.0375 20.04 57.0375 20.272C57.0375 20.448 56.9895 20.608 56.8935 20.752C56.7975 20.888 56.6735 20.988 56.5215 21.052V22.384H55.8735V21.052C55.7215 20.988 55.5975 20.888 55.5015 20.752C55.4055 20.608 55.3575 20.448 55.3575 20.272ZM53.1735 20.272C53.1735 20.04 53.2535 19.844 53.4135 19.684C53.5815 19.516 53.7815 19.432 54.0135 19.432C54.2455 19.432 54.4415 19.516 54.6015 19.684C54.7695 19.844 54.8535 20.04 54.8535 20.272C54.8535 20.448 54.8055 20.608 54.7095 20.752C54.6135 20.888 54.4895 20.988 54.3375 21.052V22.384H53.6895V21.052C53.5375 20.988 53.4135 20.888 53.3175 20.752C53.2215 20.608 53.1735 20.448 53.1735 20.272Z" fill="white"/>
<path d="M60.5451 28H59.6091V19.6H60.5451V22.984H60.6891C60.8971 22.624 61.1851 22.352 61.5531 22.168C61.9211 21.976 62.3211 21.88 62.7531 21.88C63.1211 21.88 63.4691 21.948 63.7971 22.084C64.1251 22.22 64.4131 22.416 64.6611 22.672C64.9171 22.928 65.1171 23.244 65.2611 23.62C65.4131 23.996 65.4891 24.424 65.4891 24.904V25.144C65.4891 25.632 65.4171 26.064 65.2731 26.44C65.1291 26.816 64.9291 27.132 64.6731 27.388C64.4251 27.644 64.1331 27.84 63.7971 27.976C63.4611 28.104 63.1051 28.168 62.7291 28.168C62.5371 28.168 62.3411 28.144 62.1411 28.096C61.9411 28.056 61.7491 27.992 61.5651 27.904C61.3891 27.808 61.2251 27.696 61.0731 27.568C60.9211 27.432 60.7931 27.272 60.6891 27.088H60.5451V28ZM62.5371 27.28C62.8251 27.28 63.0891 27.232 63.3291 27.136C63.5691 27.032 63.7771 26.888 63.9531 26.704C64.1371 26.52 64.2771 26.296 64.3731 26.032C64.4771 25.768 64.5291 25.472 64.5291 25.144V24.904C64.5291 24.584 64.4771 24.296 64.3731 24.04C64.2771 23.776 64.1371 23.552 63.9531 23.368C63.7771 23.176 63.5651 23.028 63.3171 22.924C63.0771 22.82 62.8171 22.768 62.5371 22.768C62.2571 22.768 61.9971 22.824 61.7571 22.936C61.5171 23.04 61.3051 23.188 61.1211 23.38C60.9451 23.572 60.8051 23.804 60.7011 24.076C60.5971 24.34 60.5451 24.632 60.5451 24.952V25.096C60.5451 25.424 60.5971 25.724 60.7011 25.996C60.8051 26.26 60.9451 26.488 61.1211 26.68C61.3051 26.872 61.5171 27.02 61.7571 27.124C61.9971 27.228 62.2571 27.28 62.5371 27.28Z" fill="white"/>
<path d="M67.1728 27.136H69.3328V20.464H67.2448V19.6H70.2688V27.136H72.4288V28H67.1728V27.136Z" fill="white"/>
<path d="M75.2045 25.312C75.2285 25.904 75.4125 26.38 75.7565 26.74C76.1005 27.1 76.5805 27.28 77.1965 27.28C77.4765 27.28 77.7205 27.248 77.9285 27.184C78.1365 27.12 78.3125 27.032 78.4565 26.92C78.6085 26.808 78.7285 26.68 78.8165 26.536C78.9125 26.384 78.9885 26.224 79.0445 26.056L79.9325 26.296C79.7645 26.848 79.4525 27.3 78.9965 27.652C78.5485 27.996 77.9405 28.168 77.1725 28.168C76.7485 28.168 76.3565 28.096 75.9965 27.952C75.6445 27.8 75.3405 27.588 75.0845 27.316C74.8285 27.044 74.6285 26.72 74.4845 26.344C74.3405 25.968 74.2685 25.552 74.2685 25.096V24.808C74.2685 24.392 74.3405 24.004 74.4845 23.644C74.6365 23.284 74.8445 22.976 75.1085 22.72C75.3725 22.456 75.6805 22.252 76.0325 22.108C76.3925 21.956 76.7805 21.88 77.1965 21.88C77.6845 21.88 78.1045 21.972 78.4565 22.156C78.8165 22.332 79.1085 22.552 79.3325 22.816C79.5645 23.08 79.7325 23.368 79.8365 23.68C79.9485 23.992 80.0045 24.28 80.0045 24.544V25.312H75.2045ZM77.1965 22.768C76.9325 22.768 76.6845 22.812 76.4525 22.9C76.2285 22.98 76.0285 23.096 75.8525 23.248C75.6845 23.4 75.5445 23.58 75.4325 23.788C75.3285 23.988 75.2605 24.208 75.2285 24.448H79.0685C79.0525 24.192 78.9885 23.96 78.8765 23.752C78.7725 23.544 78.6325 23.368 78.4565 23.224C78.2885 23.08 78.0925 22.968 77.8685 22.888C77.6525 22.808 77.4285 22.768 77.1965 22.768Z" fill="white"/>
<path d="M82.5521 25.312C82.5761 25.904 82.7601 26.38 83.1041 26.74C83.4481 27.1 83.9281 27.28 84.5441 27.28C84.8241 27.28 85.0681 27.248 85.2761 27.184C85.4841 27.12 85.6601 27.032 85.8041 26.92C85.9561 26.808 86.0761 26.68 86.1641 26.536C86.2601 26.384 86.3361 26.224 86.3921 26.056L87.2801 26.296C87.1121 26.848 86.8001 27.3 86.3441 27.652C85.8961 27.996 85.2881 28.168 84.5201 28.168C84.0961 28.168 83.7041 28.096 83.3441 27.952C82.9921 27.8 82.6881 27.588 82.4321 27.316C82.1761 27.044 81.9761 26.72 81.8321 26.344C81.6881 25.968 81.6161 25.552 81.6161 25.096V24.808C81.6161 24.392 81.6881 24.004 81.8321 23.644C81.9841 23.284 82.1921 22.976 82.4561 22.72C82.7201 22.456 83.0281 22.252 83.3801 22.108C83.7401 21.956 84.1281 21.88 84.5441 21.88C85.0321 21.88 85.4521 21.972 85.8041 22.156C86.1641 22.332 86.4561 22.552 86.6801 22.816C86.9121 23.08 87.0801 23.368 87.1841 23.68C87.2961 23.992 87.3521 24.28 87.3521 24.544V25.312H82.5521ZM84.5441 22.768C84.2801 22.768 84.0321 22.812 83.8001 22.9C83.5761 22.98 83.3761 23.096 83.2001 23.248C83.0321 23.4 82.8921 23.58 82.7801 23.788C82.6761 23.988 82.6081 24.208 82.5761 24.448H86.4161C86.4001 24.192 86.3361 23.96 86.2241 23.752C86.1201 23.544 85.9801 23.368 85.8041 23.224C85.6361 23.08 85.4401 22.968 85.2161 22.888C85.0001 22.808 84.7761 22.768 84.5441 22.768Z" fill="white"/>
<path d="M93.8238 27.088H93.6798C93.5838 27.272 93.4598 27.432 93.3078 27.568C93.1638 27.704 93.0038 27.816 92.8278 27.904C92.6598 27.992 92.4798 28.056 92.2878 28.096C92.0958 28.144 91.9118 28.168 91.7358 28.168C91.3358 28.168 90.9638 28.1 90.6198 27.964C90.2758 27.828 89.9718 27.632 89.7078 27.376C89.4518 27.12 89.2478 26.804 89.0958 26.428C88.9518 26.044 88.8798 25.608 88.8798 25.12V24.928C88.8798 24.448 88.9558 24.02 89.1078 23.644C89.2598 23.26 89.4638 22.94 89.7198 22.684C89.9758 22.42 90.2758 22.22 90.6198 22.084C90.9638 21.948 91.3278 21.88 91.7118 21.88C92.1198 21.88 92.4998 21.972 92.8518 22.156C93.2118 22.332 93.4878 22.608 93.6798 22.984H93.8238V19.6H94.7598V28H93.8238V27.088ZM91.8318 27.28C92.1118 27.28 92.3718 27.228 92.6118 27.124C92.8518 27.02 93.0598 26.872 93.2358 26.68C93.4198 26.488 93.5638 26.26 93.6678 25.996C93.7718 25.724 93.8238 25.424 93.8238 25.096V24.952C93.8238 24.632 93.7718 24.34 93.6678 24.076C93.5638 23.804 93.4198 23.572 93.2358 23.38C93.0598 23.188 92.8478 23.04 92.5998 22.936C92.3598 22.824 92.1038 22.768 91.8318 22.768C91.5518 22.768 91.2878 22.82 91.0398 22.924C90.7998 23.028 90.5878 23.176 90.4038 23.368C90.2278 23.56 90.0878 23.788 89.9838 24.052C89.8878 24.316 89.8398 24.608 89.8398 24.928V25.12C89.8398 25.456 89.8878 25.756 89.9838 26.02C90.0878 26.284 90.2278 26.512 90.4038 26.704C90.5878 26.888 90.7998 27.032 91.0398 27.136C91.2798 27.232 91.5438 27.28 91.8318 27.28Z" fill="white"/>
<path d="M98.4114 20.272C98.4114 20.04 98.4914 19.844 98.6514 19.684C98.8194 19.516 99.0194 19.432 99.2514 19.432C99.4834 19.432 99.6794 19.516 99.8394 19.684C100.007 19.844 100.091 20.04 100.091 20.272C100.091 20.504 100.007 20.704 99.8394 20.872C99.6794 21.032 99.4834 21.112 99.2514 21.112C99.0194 21.112 98.8194 21.032 98.6514 20.872C98.4914 20.704 98.4114 20.504 98.4114 20.272ZM96.7074 27.136H98.7954V22.912H96.9234V22.048H99.7314V27.136H101.675V28H96.7074V27.136Z" fill="white"/>
<path d="M104.847 28H103.911V22.048H104.847V23.056H104.991C105.359 22.272 105.999 21.88 106.911 21.88C107.599 21.88 108.147 22.096 108.555 22.528C108.963 22.952 109.167 23.592 109.167 24.448V28H108.231V24.64C108.231 24.016 108.091 23.548 107.811 23.236C107.531 22.924 107.151 22.768 106.671 22.768C106.103 22.768 105.655 22.964 105.327 23.356C105.007 23.74 104.847 24.256 104.847 24.904V28Z" fill="white"/>
<path d="M115.783 27.088H115.639C115.447 27.448 115.183 27.72 114.847 27.904C114.519 28.08 114.159 28.168 113.767 28.168C113.367 28.168 112.991 28.1 112.639 27.964C112.287 27.828 111.975 27.632 111.703 27.376C111.439 27.12 111.227 26.804 111.067 26.428C110.915 26.044 110.839 25.608 110.839 25.12V24.928C110.839 24.448 110.919 24.02 111.079 23.644C111.239 23.26 111.451 22.94 111.715 22.684C111.979 22.42 112.287 22.22 112.639 22.084C112.991 21.948 113.359 21.88 113.743 21.88C114.175 21.88 114.551 21.976 114.871 22.168C115.199 22.352 115.455 22.624 115.639 22.984H115.783V22.048H116.719V29.464C116.719 29.736 116.631 29.96 116.455 30.136C116.287 30.312 116.067 30.4 115.795 30.4H111.919V29.536H115.459C115.675 29.536 115.783 29.416 115.783 29.176V27.088ZM113.791 27.28C114.071 27.28 114.331 27.228 114.571 27.124C114.811 27.02 115.019 26.872 115.195 26.68C115.379 26.488 115.523 26.26 115.627 25.996C115.731 25.724 115.783 25.424 115.783 25.096V24.952C115.783 24.632 115.731 24.34 115.627 24.076C115.523 23.804 115.379 23.572 115.195 23.38C115.019 23.188 114.807 23.04 114.559 22.936C114.319 22.824 114.063 22.768 113.791 22.768C113.511 22.768 113.247 22.82 112.999 22.924C112.759 23.028 112.547 23.176 112.363 23.368C112.187 23.56 112.047 23.788 111.943 24.052C111.847 24.316 111.799 24.608 111.799 24.928V25.12C111.799 25.456 111.847 25.756 111.943 26.02C112.047 26.284 112.187 26.512 112.363 26.704C112.547 26.888 112.759 27.032 112.999 27.136C113.239 27.232 113.503 27.28 113.791 27.28Z" fill="white"/>
<path d="M119.29 25.312C119.314 25.904 119.498 26.38 119.842 26.74C120.186 27.1 120.666 27.28 121.282 27.28C121.562 27.28 121.806 27.248 122.014 27.184C122.222 27.12 122.398 27.032 122.542 26.92C122.694 26.808 122.814 26.68 122.902 26.536C122.998 26.384 123.074 26.224 123.13 26.056L124.018 26.296C123.85 26.848 123.538 27.3 123.082 27.652C122.634 27.996 122.026 28.168 121.258 28.168C120.834 28.168 120.442 28.096 120.082 27.952C119.73 27.8 119.426 27.588 119.17 27.316C118.914 27.044 118.714 26.72 118.57 26.344C118.426 25.968 118.354 25.552 118.354 25.096V24.808C118.354 24.392 118.426 24.004 118.57 23.644C118.722 23.284 118.93 22.976 119.194 22.72C119.458 22.456 119.766 22.252 120.118 22.108C120.478 21.956 120.866 21.88 121.282 21.88C121.77 21.88 122.19 21.972 122.542 22.156C122.902 22.332 123.194 22.552 123.418 22.816C123.65 23.08 123.818 23.368 123.922 23.68C124.034 23.992 124.09 24.28 124.09 24.544V25.312H119.29ZM121.282 22.768C121.018 22.768 120.77 22.812 120.538 22.9C120.314 22.98 120.114 23.096 119.938 23.248C119.77 23.4 119.63 23.58 119.518 23.788C119.414 23.988 119.346 24.208 119.314 24.448H123.154C123.138 24.192 123.074 23.96 122.962 23.752C122.858 23.544 122.718 23.368 122.542 23.224C122.374 23.08 122.178 22.968 121.954 22.888C121.738 22.808 121.514 22.768 121.282 22.768Z" fill="white"/>
<path d="M130.562 27.088H130.418C130.322 27.272 130.198 27.432 130.046 27.568C129.902 27.704 129.742 27.816 129.566 27.904C129.398 27.992 129.218 28.056 129.026 28.096C128.834 28.144 128.65 28.168 128.474 28.168C128.074 28.168 127.702 28.1 127.358 27.964C127.014 27.828 126.71 27.632 126.446 27.376C126.19 27.12 125.986 26.804 125.834 26.428C125.69 26.044 125.618 25.608 125.618 25.12V24.928C125.618 24.448 125.694 24.02 125.846 23.644C125.998 23.26 126.202 22.94 126.458 22.684C126.714 22.42 127.014 22.22 127.358 22.084C127.702 21.948 128.066 21.88 128.45 21.88C128.858 21.88 129.238 21.972 129.59 22.156C129.95 22.332 130.226 22.608 130.418 22.984H130.562V19.6H131.498V28H130.562V27.088ZM128.57 27.28C128.85 27.28 129.11 27.228 129.35 27.124C129.59 27.02 129.798 26.872 129.974 26.68C130.158 26.488 130.302 26.26 130.406 25.996C130.51 25.724 130.562 25.424 130.562 25.096V24.952C130.562 24.632 130.51 24.34 130.406 24.076C130.302 23.804 130.158 23.572 129.974 23.38C129.798 23.188 129.586 23.04 129.338 22.936C129.098 22.824 128.842 22.768 128.57 22.768C128.29 22.768 128.026 22.82 127.778 22.924C127.538 23.028 127.326 23.176 127.142 23.368C126.966 23.56 126.826 23.788 126.722 24.052C126.626 24.316 126.578 24.608 126.578 24.928V25.12C126.578 25.456 126.626 25.756 126.722 26.02C126.826 26.284 126.966 26.512 127.142 26.704C127.326 26.888 127.538 27.032 127.778 27.136C128.018 27.232 128.282 27.28 128.57 27.28Z" fill="white"/>
<path d="M137.826 27.088H137.682C137.49 27.448 137.226 27.72 136.89 27.904C136.562 28.08 136.202 28.168 135.81 28.168C135.41 28.168 135.034 28.1 134.682 27.964C134.33 27.828 134.018 27.632 133.746 27.376C133.482 27.12 133.27 26.804 133.11 26.428C132.958 26.044 132.882 25.608 132.882 25.12V24.928C132.882 24.448 132.962 24.02 133.122 23.644C133.282 23.26 133.494 22.94 133.758 22.684C134.022 22.42 134.33 22.22 134.682 22.084C135.034 21.948 135.402 21.88 135.786 21.88C136.218 21.88 136.594 21.976 136.914 22.168C137.242 22.352 137.498 22.624 137.682 22.984H137.826V22.048H138.762V29.464C138.762 29.736 138.674 29.96 138.498 30.136C138.33 30.312 138.11 30.4 137.838 30.4H133.962V29.536H137.502C137.718 29.536 137.826 29.416 137.826 29.176V27.088ZM135.834 27.28C136.114 27.28 136.374 27.228 136.614 27.124C136.854 27.02 137.062 26.872 137.238 26.68C137.422 26.488 137.566 26.26 137.67 25.996C137.774 25.724 137.826 25.424 137.826 25.096V24.952C137.826 24.632 137.774 24.34 137.67 24.076C137.566 23.804 137.422 23.572 137.238 23.38C137.062 23.188 136.85 23.04 136.602 22.936C136.362 22.824 136.106 22.768 135.834 22.768C135.554 22.768 135.29 22.82 135.042 22.924C134.802 23.028 134.59 23.176 134.406 23.368C134.23 23.56 134.09 23.788 133.986 24.052C133.89 24.316 133.842 24.608 133.842 24.928V25.12C133.842 25.456 133.89 25.756 133.986 26.02C134.09 26.284 134.23 26.512 134.406 26.704C134.59 26.888 134.802 27.032 135.042 27.136C135.282 27.232 135.546 27.28 135.834 27.28Z" fill="white"/>
<path d="M141.333 25.312C141.357 25.904 141.541 26.38 141.885 26.74C142.229 27.1 142.709 27.28 143.325 27.28C143.605 27.28 143.849 27.248 144.057 27.184C144.265 27.12 144.441 27.032 144.585 26.92C144.737 26.808 144.857 26.68 144.945 26.536C145.041 26.384 145.117 26.224 145.173 26.056L146.061 26.296C145.893 26.848 145.581 27.3 145.125 27.652C144.677 27.996 144.069 28.168 143.301 28.168C142.877 28.168 142.485 28.096 142.125 27.952C141.773 27.8 141.469 27.588 141.213 27.316C140.957 27.044 140.757 26.72 140.613 26.344C140.469 25.968 140.397 25.552 140.397 25.096V24.808C140.397 24.392 140.469 24.004 140.613 23.644C140.765 23.284 140.973 22.976 141.237 22.72C141.501 22.456 141.809 22.252 142.161 22.108C142.521 21.956 142.909 21.88 143.325 21.88C143.813 21.88 144.233 21.972 144.585 22.156C144.945 22.332 145.237 22.552 145.461 22.816C145.693 23.08 145.861 23.368 145.965 23.68C146.077 23.992 146.133 24.28 146.133 24.544V25.312H141.333ZM143.325 22.768C143.061 22.768 142.813 22.812 142.581 22.9C142.357 22.98 142.157 23.096 141.981 23.248C141.813 23.4 141.673 23.58 141.561 23.788C141.457 23.988 141.389 24.208 141.357 24.448H145.197C145.181 24.192 145.117 23.96 145.005 23.752C144.901 23.544 144.761 23.368 144.585 23.224C144.417 23.08 144.221 22.968 143.997 22.888C143.781 22.808 143.557 22.768 143.325 22.768Z" fill="white"/>
<path d="M149.785 27.328C149.785 27.096 149.865 26.9 150.025 26.74C150.193 26.572 150.393 26.488 150.625 26.488C150.857 26.488 151.053 26.572 151.213 26.74C151.381 26.9 151.465 27.096 151.465 27.328C151.465 27.56 151.381 27.76 151.213 27.928C151.053 28.088 150.857 28.168 150.625 28.168C150.393 28.168 150.193 28.088 150.025 27.928C149.865 27.76 149.785 27.56 149.785 27.328Z" fill="white"/>
<path d="M159.665 26.992H159.521C159.329 27.392 159.061 27.688 158.717 27.88C158.381 28.072 158.025 28.168 157.649 28.168C157.257 28.168 156.893 28.104 156.557 27.976C156.221 27.84 155.925 27.644 155.669 27.388C155.421 27.124 155.225 26.804 155.081 26.428C154.937 26.052 154.865 25.616 154.865 25.12V24.928C154.865 24.44 154.937 24.008 155.081 23.632C155.225 23.256 155.421 22.94 155.669 22.684C155.925 22.42 156.221 22.22 156.557 22.084C156.893 21.948 157.249 21.88 157.625 21.88C158.033 21.88 158.401 21.972 158.729 22.156C159.065 22.332 159.329 22.608 159.521 22.984H159.665V22.048H160.601V26.776C160.601 27.016 160.709 27.136 160.925 27.136H161.225V28H160.589C160.317 28 160.093 27.912 159.917 27.736C159.749 27.56 159.665 27.336 159.665 27.064V26.992ZM157.745 27.28C158.025 27.28 158.281 27.228 158.513 27.124C158.753 27.02 158.957 26.872 159.125 26.68C159.293 26.488 159.425 26.26 159.521 25.996C159.617 25.724 159.665 25.424 159.665 25.096V24.952C159.665 24.632 159.617 24.34 159.521 24.076C159.425 23.804 159.289 23.572 159.113 23.38C158.945 23.188 158.741 23.04 158.501 22.936C158.269 22.824 158.017 22.768 157.745 22.768C157.465 22.768 157.209 22.82 156.977 22.924C156.745 23.028 156.541 23.176 156.365 23.368C156.197 23.552 156.065 23.78 155.969 24.052C155.873 24.316 155.825 24.608 155.825 24.928V25.12C155.825 25.8 156.001 26.332 156.353 26.716C156.713 27.092 157.177 27.28 157.745 27.28Z" fill="white"/>
<path d="M164.54 20.272C164.54 20.04 164.62 19.844 164.78 19.684C164.948 19.516 165.148 19.432 165.38 19.432C165.612 19.432 165.808 19.516 165.968 19.684C166.136 19.844 166.22 20.04 166.22 20.272C166.22 20.504 166.136 20.704 165.968 20.872C165.808 21.032 165.612 21.112 165.38 21.112C165.148 21.112 164.948 21.032 164.78 20.872C164.62 20.704 164.54 20.504 164.54 20.272ZM162.836 27.136H164.924V22.912H163.052V22.048H165.86V27.136H167.804V28H162.836V27.136Z" fill="white"/>
<path d="M172.92 20.272C172.92 20.04 173 19.844 173.16 19.684C173.328 19.516 173.528 19.432 173.76 19.432C173.992 19.432 174.188 19.516 174.348 19.684C174.516 19.844 174.6 20.04 174.6 20.272C174.6 20.448 174.552 20.608 174.456 20.752C174.36 20.888 174.236 20.988 174.084 21.052V22.384H173.436V21.052C173.284 20.988 173.16 20.888 173.064 20.752C172.968 20.608 172.92 20.448 172.92 20.272ZM170.736 20.272C170.736 20.04 170.816 19.844 170.976 19.684C171.144 19.516 171.344 19.432 171.576 19.432C171.808 19.432 172.004 19.516 172.164 19.684C172.332 19.844 172.416 20.04 172.416 20.272C172.416 20.448 172.368 20.608 172.272 20.752C172.176 20.888 172.052 20.988 171.9 21.052V22.384H171.252V21.052C171.1 20.988 170.976 20.888 170.88 20.752C170.784 20.608 170.736 20.448 170.736 20.272Z" fill="white"/>
<path d="M179.176 27.328C179.176 27.096 179.256 26.9 179.416 26.74C179.584 26.572 179.784 26.488 180.016 26.488C180.248 26.488 180.444 26.572 180.604 26.74C180.772 26.9 180.856 27.096 180.856 27.328V28.504C180.856 28.776 180.768 29 180.592 29.176C180.424 29.352 180.204 29.44 179.932 29.44H179.32V28.792H179.884C180.1 28.792 180.208 28.672 180.208 28.432V28.132C180.144 28.156 180.076 28.168 180.004 28.168C179.78 28.168 179.584 28.088 179.416 27.928C179.256 27.76 179.176 27.56 179.176 27.328Z" fill="white"/>
<path d="M192.083 27.136H194.243V20.464H192.155V19.6H195.179V27.136H197.339V28H192.083V27.136Z" fill="white"/>
<path d="M201.279 20.272C201.279 20.04 201.359 19.844 201.519 19.684C201.687 19.516 201.887 19.432 202.119 19.432C202.351 19.432 202.547 19.516 202.707 19.684C202.875 19.844 202.959 20.04 202.959 20.272C202.959 20.504 202.875 20.704 202.707 20.872C202.547 21.032 202.351 21.112 202.119 21.112C201.887 21.112 201.687 21.032 201.519 20.872C201.359 20.704 201.279 20.504 201.279 20.272ZM199.575 27.136H201.663V22.912H199.791V22.048H202.599V27.136H204.543V28H199.575V27.136Z" fill="white"/>
<path d="M207.714 28H206.778V22.048H207.714V23.056H207.858C208.226 22.272 208.866 21.88 209.778 21.88C210.466 21.88 211.014 22.096 211.422 22.528C211.83 22.952 212.034 23.592 212.034 24.448V28H211.098V24.64C211.098 24.016 210.958 23.548 210.678 23.236C210.398 22.924 210.018 22.768 209.538 22.768C208.97 22.768 208.522 22.964 208.194 23.356C207.874 23.74 207.714 24.256 207.714 24.904V28Z" fill="white"/>
<path d="M214.81 25.312C214.834 25.904 215.018 26.38 215.362 26.74C215.706 27.1 216.186 27.28 216.802 27.28C217.082 27.28 217.326 27.248 217.534 27.184C217.742 27.12 217.918 27.032 218.062 26.92C218.214 26.808 218.334 26.68 218.422 26.536C218.518 26.384 218.594 26.224 218.65 26.056L219.538 26.296C219.37 26.848 219.058 27.3 218.602 27.652C218.154 27.996 217.546 28.168 216.778 28.168C216.354 28.168 215.962 28.096 215.602 27.952C215.25 27.8 214.946 27.588 214.69 27.316C214.434 27.044 214.234 26.72 214.09 26.344C213.946 25.968 213.874 25.552 213.874 25.096V24.808C213.874 24.392 213.946 24.004 214.09 23.644C214.242 23.284 214.45 22.976 214.714 22.72C214.978 22.456 215.286 22.252 215.638 22.108C215.998 21.956 216.386 21.88 216.802 21.88C217.29 21.88 217.71 21.972 218.062 22.156C218.422 22.332 218.714 22.552 218.938 22.816C219.17 23.08 219.338 23.368 219.442 23.68C219.554 23.992 219.61 24.28 219.61 24.544V25.312H214.81ZM216.802 22.768C216.538 22.768 216.29 22.812 216.058 22.9C215.834 22.98 215.634 23.096 215.458 23.248C215.29 23.4 215.15 23.58 215.038 23.788C214.934 23.988 214.866 24.208 214.834 24.448H218.674C218.658 24.192 218.594 23.96 218.482 23.752C218.378 23.544 218.238 23.368 218.062 23.224C217.894 23.08 217.698 22.968 217.474 22.888C217.258 22.808 217.034 22.768 216.802 22.768Z" fill="white"/>
<path d="M231.005 27.064V20.044H230.861L229.481 23.2H228.485V23.128L230.057 19.6H232.013V27.064H234.389V28H228.629V27.064H231.005Z" fill="white"/>
<path d="M32.9185 35.6H34.8745V41.48H36.1705V42.416H34.8745V44H33.8665V42.416H29.9785V41.024L32.9185 35.6ZM30.8425 41.336V41.48H33.8665V36.032H33.7225L30.8425 41.336Z" fill="white"/>
<path d="M37.4582 38.864C37.4582 37.776 37.7182 36.932 38.2382 36.332C38.7582 35.732 39.4822 35.432 40.4102 35.432C41.3382 35.432 42.0622 35.732 42.5822 36.332C43.1022 36.932 43.3622 37.776 43.3622 38.864V40.736C43.3622 41.856 43.1022 42.708 42.5822 43.292C42.0622 43.876 41.3382 44.168 40.4102 44.168C39.4822 44.168 38.7582 43.876 38.2382 43.292C37.7182 42.708 37.4582 41.856 37.4582 40.736V38.864ZM40.4102 43.256C41.0582 43.256 41.5422 43.032 41.8622 42.584C42.1902 42.128 42.3542 41.488 42.3542 40.664V38.936C42.3542 38.552 42.3142 38.204 42.2342 37.892C42.1542 37.572 42.0302 37.3 41.8622 37.076C41.7022 36.844 41.4982 36.664 41.2502 36.536C41.0102 36.408 40.7302 36.344 40.4102 36.344C40.0822 36.344 39.7982 36.408 39.5582 36.536C39.3182 36.664 39.1142 36.844 38.9462 37.076C38.7862 37.3 38.6662 37.572 38.5862 37.892C38.5062 38.204 38.4662 38.552 38.4662 38.936V40.664C38.4662 41.488 38.6262 42.128 38.9462 42.584C39.2742 43.032 39.7622 43.256 40.4102 43.256ZM39.6422 39.8C39.6422 39.592 39.7182 39.412 39.8702 39.26C40.0222 39.108 40.2022 39.032 40.4102 39.032C40.6182 39.032 40.7982 39.108 40.9502 39.26C41.1022 39.412 41.1782 39.592 41.1782 39.8C41.1782 40.008 41.1022 40.188 40.9502 40.34C40.7982 40.492 40.6182 40.568 40.4102 40.568C40.2022 40.568 40.0222 40.492 39.8702 40.34C39.7182 40.188 39.6422 40.008 39.6422 39.8Z" fill="white"/>
<path d="M47.6138 35.6H49.5698V41.48H50.8658V42.416H49.5698V44H48.5618V42.416H44.6738V41.024L47.6138 35.6ZM45.5378 41.336V41.48H48.5618V36.032H48.4178L45.5378 41.336Z" fill="white"/>
<path d="M60.5091 41.312C60.5331 41.904 60.7171 42.38 61.0611 42.74C61.4051 43.1 61.8851 43.28 62.5011 43.28C62.7811 43.28 63.0251 43.248 63.2331 43.184C63.4411 43.12 63.6171 43.032 63.7611 42.92C63.9131 42.808 64.0331 42.68 64.1211 42.536C64.2171 42.384 64.2931 42.224 64.3491 42.056L65.2371 42.296C65.0691 42.848 64.7571 43.3 64.3011 43.652C63.8531 43.996 63.2451 44.168 62.4771 44.168C62.0531 44.168 61.6611 44.096 61.3011 43.952C60.9491 43.8 60.6451 43.588 60.3891 43.316C60.1331 43.044 59.9331 42.72 59.7891 42.344C59.6451 41.968 59.5731 41.552 59.5731 41.096V40.808C59.5731 40.392 59.6451 40.004 59.7891 39.644C59.9411 39.284 60.1491 38.976 60.4131 38.72C60.6771 38.456 60.9851 38.252 61.3371 38.108C61.6971 37.956 62.0851 37.88 62.5011 37.88C62.9891 37.88 63.4091 37.972 63.7611 38.156C64.1211 38.332 64.4131 38.552 64.6371 38.816C64.8691 39.08 65.0371 39.368 65.1411 39.68C65.2531 39.992 65.3091 40.28 65.3091 40.544V41.312H60.5091ZM62.5011 38.768C62.2371 38.768 61.9891 38.812 61.7571 38.9C61.5331 38.98 61.3331 39.096 61.1571 39.248C60.9891 39.4 60.8491 39.58 60.7371 39.788C60.6331 39.988 60.5651 40.208 60.5331 40.448H64.3731C64.3571 40.192 64.2931 39.96 64.1811 39.752C64.0771 39.544 63.9371 39.368 63.7611 39.224C63.5931 39.08 63.3971 38.968 63.1731 38.888C62.9571 38.808 62.7331 38.768 62.5011 38.768Z" fill="white"/>
<path d="M66.8368 38.048H68.9968V38.84H69.1408C69.2928 38.512 69.5088 38.272 69.7888 38.12C70.0688 37.96 70.3888 37.88 70.7488 37.88C71.3488 37.88 71.8328 38.076 72.2008 38.468C72.5688 38.86 72.7648 39.432 72.7888 40.184L71.8048 40.328C71.8048 39.776 71.6728 39.38 71.4088 39.14C71.1448 38.892 70.8208 38.768 70.4368 38.768C70.1888 38.768 69.9728 38.816 69.7888 38.912C69.6128 39.008 69.4648 39.14 69.3448 39.308C69.2248 39.476 69.1368 39.672 69.0808 39.896C69.0248 40.12 68.9968 40.36 68.9968 40.616V43.136H70.5088V44H66.6928V43.136H68.0608V38.912H66.8368V38.048Z" fill="white"/>
<path d="M74.1845 38.048H76.3445V38.84H76.4885C76.6405 38.512 76.8565 38.272 77.1365 38.12C77.4165 37.96 77.7365 37.88 78.0965 37.88C78.6965 37.88 79.1805 38.076 79.5485 38.468C79.9165 38.86 80.1125 39.432 80.1365 40.184L79.1525 40.328C79.1525 39.776 79.0205 39.38 78.7565 39.14C78.4925 38.892 78.1685 38.768 77.7845 38.768C77.5365 38.768 77.3205 38.816 77.1365 38.912C76.9605 39.008 76.8125 39.14 76.6925 39.308C76.5725 39.476 76.4845 39.672 76.4285 39.896C76.3725 40.12 76.3445 40.36 76.3445 40.616V43.136H77.8565V44H74.0405V43.136H75.4085V38.912H74.1845V38.048Z" fill="white"/>
<path d="M87.4841 41.096C87.4841 41.592 87.4001 42.032 87.2321 42.416C87.0721 42.792 86.8561 43.112 86.5841 43.376C86.3121 43.632 85.9921 43.828 85.6241 43.964C85.2641 44.1 84.8881 44.168 84.4961 44.168C84.0961 44.168 83.7161 44.1 83.3561 43.964C82.9961 43.828 82.6801 43.632 82.4081 43.376C82.1361 43.112 81.9161 42.792 81.7481 42.416C81.5881 42.032 81.5081 41.592 81.5081 41.096V40.952C81.5081 40.464 81.5881 40.032 81.7481 39.656C81.9161 39.272 82.1361 38.948 82.4081 38.684C82.6881 38.42 83.0081 38.22 83.3681 38.084C83.7281 37.948 84.1041 37.88 84.4961 37.88C84.8881 37.88 85.2641 37.948 85.6241 38.084C85.9841 38.22 86.3001 38.42 86.5721 38.684C86.8521 38.948 87.0721 39.272 87.2321 39.656C87.4001 40.032 87.4841 40.464 87.4841 40.952V41.096ZM84.4961 43.28C84.7841 43.28 85.0481 43.232 85.2881 43.136C85.5361 43.032 85.7521 42.884 85.9361 42.692C86.1201 42.5 86.2641 42.272 86.3681 42.008C86.4721 41.736 86.5241 41.432 86.5241 41.096V40.952C86.5241 40.632 86.4721 40.34 86.3681 40.076C86.2641 39.804 86.1201 39.572 85.9361 39.38C85.7521 39.188 85.5361 39.04 85.2881 38.936C85.0401 38.824 84.7761 38.768 84.4961 38.768C84.2161 38.768 83.9521 38.824 83.7041 38.936C83.4561 39.04 83.2401 39.188 83.0561 39.38C82.8721 39.572 82.7281 39.804 82.6241 40.076C82.5201 40.34 82.4681 40.632 82.4681 40.952V41.096C82.4681 41.432 82.5201 41.736 82.6241 42.008C82.7281 42.272 82.8721 42.5 83.0561 42.692C83.2401 42.884 83.4521 43.032 83.6921 43.136C83.9401 43.232 84.2081 43.28 84.4961 43.28Z" fill="white"/>
<path d="M88.8798 38.048H91.0398V38.84H91.1838C91.3358 38.512 91.5518 38.272 91.8318 38.12C92.1118 37.96 92.4318 37.88 92.7918 37.88C93.3918 37.88 93.8758 38.076 94.2438 38.468C94.6118 38.86 94.8078 39.432 94.8318 40.184L93.8478 40.328C93.8478 39.776 93.7158 39.38 93.4518 39.14C93.1878 38.892 92.8638 38.768 92.4798 38.768C92.2318 38.768 92.0158 38.816 91.8318 38.912C91.6558 39.008 91.5078 39.14 91.3878 39.308C91.2678 39.476 91.1798 39.672 91.1238 39.896C91.0678 40.12 91.0398 40.36 91.0398 40.616V43.136H92.5518V44H88.7358V43.136H90.1038V38.912H88.8798V38.048Z" fill="white"/>
<path d="M79.9565 54.912H78.8525L77.2205 51.96H77.0765L75.4445 54.912H74.3405L76.2365 51.6H78.0605L79.9565 54.912Z" fill="white"/>
<path d="M83.6562 75.328C83.6562 75.096 83.7362 74.9 83.8962 74.74C84.0642 74.572 84.2642 74.488 84.4962 74.488C84.7282 74.488 84.9243 74.572 85.0843 74.74C85.2523 74.9 85.3363 75.096 85.3363 75.328C85.3363 75.56 85.2523 75.76 85.0843 75.928C84.9243 76.088 84.7282 76.168 84.4962 76.168C84.2642 76.168 84.0642 76.088 83.8962 75.928C83.7362 75.76 83.6562 75.56 83.6562 75.328ZM83.6562 70.72C83.6562 70.488 83.7362 70.292 83.8962 70.132C84.0642 69.964 84.2642 69.88 84.4962 69.88C84.7282 69.88 84.9243 69.964 85.0843 70.132C85.2523 70.292 85.3363 70.488 85.3363 70.72C85.3363 70.952 85.2523 71.152 85.0843 71.32C84.9243 71.48 84.7282 71.56 84.4962 71.56C84.2642 71.56 84.0642 71.48 83.8962 71.32C83.7362 71.152 83.6562 70.952 83.6562 70.72Z" fill="white"/>
<path d="M97.2836 78.4H96.3476V70.048H97.2836V70.984H97.4276C97.6356 70.624 97.9236 70.352 98.2916 70.168C98.6596 69.976 99.0596 69.88 99.4916 69.88C99.8596 69.88 100.208 69.948 100.536 70.084C100.864 70.22 101.152 70.416 101.4 70.672C101.656 70.928 101.856 71.244 102 71.62C102.152 71.996 102.228 72.424 102.228 72.904V73.144C102.228 73.632 102.156 74.064 102.012 74.44C101.868 74.816 101.668 75.132 101.412 75.388C101.164 75.644 100.872 75.84 100.536 75.976C100.2 76.104 99.8436 76.168 99.4676 76.168C99.2756 76.168 99.0796 76.144 98.8796 76.096C98.6796 76.056 98.4876 75.992 98.3036 75.904C98.1276 75.808 97.9636 75.696 97.8116 75.568C97.6596 75.432 97.5316 75.272 97.4276 75.088H97.2836V78.4ZM99.2756 75.28C99.5636 75.28 99.8276 75.232 100.068 75.136C100.308 75.032 100.516 74.888 100.692 74.704C100.876 74.52 101.016 74.296 101.112 74.032C101.216 73.768 101.268 73.472 101.268 73.144V72.904C101.268 72.584 101.216 72.296 101.112 72.04C101.016 71.776 100.876 71.552 100.692 71.368C100.516 71.176 100.304 71.028 100.056 70.924C99.8156 70.82 99.5556 70.768 99.2756 70.768C98.9956 70.768 98.7356 70.824 98.4956 70.936C98.2556 71.04 98.0436 71.188 97.8596 71.38C97.6836 71.572 97.5436 71.804 97.4396 72.076C97.3356 72.34 97.2836 72.632 97.2836 72.952V73.096C97.2836 73.424 97.3356 73.724 97.4396 73.996C97.5436 74.26 97.6836 74.488 97.8596 74.68C98.0436 74.872 98.2556 75.02 98.4956 75.124C98.7356 75.228 98.9956 75.28 99.2756 75.28Z" fill="white"/>
<path d="M108.231 74.992H108.087C107.895 75.392 107.627 75.688 107.283 75.88C106.947 76.072 106.591 76.168 106.215 76.168C105.823 76.168 105.459 76.104 105.123 75.976C104.787 75.84 104.491 75.644 104.235 75.388C103.987 75.124 103.791 74.804 103.647 74.428C103.503 74.052 103.431 73.616 103.431 73.12V72.928C103.431 72.44 103.503 72.008 103.647 71.632C103.791 71.256 103.987 70.94 104.235 70.684C104.491 70.42 104.787 70.22 105.123 70.084C105.459 69.948 105.815 69.88 106.191 69.88C106.599 69.88 106.967 69.972 107.295 70.156C107.631 70.332 107.895 70.608 108.087 70.984H108.231V70.048H109.167V74.776C109.167 75.016 109.275 75.136 109.491 75.136H109.791V76H109.155C108.883 76 108.659 75.912 108.483 75.736C108.315 75.56 108.231 75.336 108.231 75.064V74.992ZM106.311 75.28C106.591 75.28 106.847 75.228 107.079 75.124C107.319 75.02 107.523 74.872 107.691 74.68C107.859 74.488 107.991 74.26 108.087 73.996C108.183 73.724 108.231 73.424 108.231 73.096V72.952C108.231 72.632 108.183 72.34 108.087 72.076C107.991 71.804 107.855 71.572 107.679 71.38C107.511 71.188 107.307 71.04 107.067 70.936C106.835 70.824 106.583 70.768 106.311 70.768C106.031 70.768 105.775 70.82 105.543 70.924C105.311 71.028 105.107 71.176 104.931 71.368C104.763 71.552 104.631 71.78 104.535 72.052C104.439 72.316 104.391 72.608 104.391 72.928V73.12C104.391 73.8 104.567 74.332 104.919 74.716C105.279 75.092 105.743 75.28 106.311 75.28Z" fill="white"/>
<path d="M115.783 75.088H115.639C115.447 75.448 115.183 75.72 114.847 75.904C114.519 76.08 114.159 76.168 113.767 76.168C113.367 76.168 112.991 76.1 112.639 75.964C112.287 75.828 111.975 75.632 111.703 75.376C111.439 75.12 111.227 74.804 111.067 74.428C110.915 74.044 110.839 73.608 110.839 73.12V72.928C110.839 72.448 110.919 72.02 111.079 71.644C111.239 71.26 111.451 70.94 111.715 70.684C111.979 70.42 112.287 70.22 112.639 70.084C112.991 69.948 113.359 69.88 113.743 69.88C114.175 69.88 114.551 69.976 114.871 70.168C115.199 70.352 115.455 70.624 115.639 70.984H115.783V70.048H116.719V77.464C116.719 77.736 116.631 77.96 116.455 78.136C116.287 78.312 116.067 78.4 115.795 78.4H111.919V77.536H115.459C115.675 77.536 115.783 77.416 115.783 77.176V75.088ZM113.791 75.28C114.071 75.28 114.331 75.228 114.571 75.124C114.811 75.02 115.019 74.872 115.195 74.68C115.379 74.488 115.523 74.26 115.627 73.996C115.731 73.724 115.783 73.424 115.783 73.096V72.952C115.783 72.632 115.731 72.34 115.627 72.076C115.523 71.804 115.379 71.572 115.195 71.38C115.019 71.188 114.807 71.04 114.559 70.936C114.319 70.824 114.063 70.768 113.791 70.768C113.511 70.768 113.247 70.82 112.999 70.924C112.759 71.028 112.547 71.176 112.363 71.368C112.187 71.56 112.047 71.788 111.943 72.052C111.847 72.316 111.799 72.608 111.799 72.928V73.12C111.799 73.456 111.847 73.756 111.943 74.02C112.047 74.284 112.187 74.512 112.363 74.704C112.547 74.888 112.759 75.032 112.999 75.136C113.239 75.232 113.503 75.28 113.791 75.28Z" fill="white"/>
<path d="M119.291 73.312C119.315 73.904 119.499 74.38 119.843 74.74C120.187 75.1 120.667 75.28 121.283 75.28C121.563 75.28 121.807 75.248 122.015 75.184C122.223 75.12 122.399 75.032 122.543 74.92C122.695 74.808 122.815 74.68 122.903 74.536C122.999 74.384 123.075 74.224 123.131 74.056L124.019 74.296C123.851 74.848 123.539 75.3 123.083 75.652C122.635 75.996 122.027 76.168 121.259 76.168C120.835 76.168 120.443 76.096 120.083 75.952C119.731 75.8 119.427 75.588 119.171 75.316C118.915 75.044 118.715 74.72 118.571 74.344C118.427 73.968 118.355 73.552 118.355 73.096V72.808C118.355 72.392 118.427 72.004 118.571 71.644C118.723 71.284 118.931 70.976 119.195 70.72C119.459 70.456 119.767 70.252 120.119 70.108C120.479 69.956 120.867 69.88 121.283 69.88C121.771 69.88 122.191 69.972 122.543 70.156C122.903 70.332 123.195 70.552 123.419 70.816C123.651 71.08 123.819 71.368 123.923 71.68C124.035 71.992 124.091 72.28 124.091 72.544V73.312H119.291ZM121.283 70.768C121.019 70.768 120.771 70.812 120.539 70.9C120.315 70.98 120.115 71.096 119.939 71.248C119.771 71.4 119.631 71.58 119.519 71.788C119.415 71.988 119.347 72.208 119.315 72.448H123.155C123.139 72.192 123.075 71.96 122.963 71.752C122.859 71.544 122.719 71.368 122.543 71.224C122.375 71.08 122.179 70.968 121.955 70.888C121.739 70.808 121.515 70.768 121.283 70.768Z" fill="white"/>
<path d="M134.238 76H133.302V70.048H134.238V71.056H134.382C134.75 70.272 135.39 69.88 136.302 69.88C136.99 69.88 137.538 70.096 137.946 70.528C138.354 70.952 138.558 71.592 138.558 72.448V76H137.622V72.64C137.622 72.016 137.482 71.548 137.202 71.236C136.922 70.924 136.542 70.768 136.062 70.768C135.494 70.768 135.046 70.964 134.718 71.356C134.398 71.74 134.238 72.256 134.238 72.904V76Z" fill="white"/>
<path d="M146.266 73.096C146.266 73.592 146.182 74.032 146.014 74.416C145.854 74.792 145.637 75.112 145.365 75.376C145.093 75.632 144.774 75.828 144.406 75.964C144.046 76.1 143.669 76.168 143.277 76.168C142.877 76.168 142.497 76.1 142.137 75.964C141.777 75.828 141.461 75.632 141.189 75.376C140.917 75.112 140.697 74.792 140.529 74.416C140.369 74.032 140.29 73.592 140.29 73.096V72.952C140.29 72.464 140.369 72.032 140.529 71.656C140.697 71.272 140.917 70.948 141.189 70.684C141.469 70.42 141.79 70.22 142.15 70.084C142.51 69.948 142.885 69.88 143.277 69.88C143.669 69.88 144.046 69.948 144.406 70.084C144.766 70.22 145.082 70.42 145.354 70.684C145.634 70.948 145.854 71.272 146.014 71.656C146.182 72.032 146.266 72.464 146.266 72.952V73.096ZM143.277 75.28C143.565 75.28 143.83 75.232 144.07 75.136C144.318 75.032 144.533 74.884 144.717 74.692C144.901 74.5 145.046 74.272 145.15 74.008C145.254 73.736 145.305 73.432 145.305 73.096V72.952C145.305 72.632 145.254 72.34 145.15 72.076C145.046 71.804 144.901 71.572 144.717 71.38C144.533 71.188 144.318 71.04 144.07 70.936C143.822 70.824 143.557 70.768 143.277 70.768C142.997 70.768 142.734 70.824 142.486 70.936C142.238 71.04 142.021 71.188 141.837 71.38C141.653 71.572 141.51 71.804 141.406 72.076C141.302 72.34 141.249 72.632 141.249 72.952V73.096C141.249 73.432 141.302 73.736 141.406 74.008C141.51 74.272 141.653 74.5 141.837 74.692C142.021 74.884 142.233 75.032 142.473 75.136C142.721 75.232 142.989 75.28 143.277 75.28Z" fill="white"/>
<path d="M147.793 70.048H149.665V67.6H150.601V70.048H152.905V70.912H150.601V74.776C150.601 75.016 150.709 75.136 150.925 75.136H152.617V76H150.589C150.317 76 150.093 75.912 149.917 75.736C149.749 75.56 149.665 75.336 149.665 75.064V70.912H147.793V70.048Z" fill="white"/>
<path d="M162.632 70.048H164.468V68.536C164.468 68.264 164.552 68.04 164.72 67.864C164.896 67.688 165.12 67.6 165.392 67.6H167.744V68.464H165.728C165.512 68.464 165.404 68.584 165.404 68.824V70.048H167.888V70.912H165.404V76H164.468V70.912H162.632V70.048Z" fill="white"/>
<path d="M175.656 73.096C175.656 73.592 175.572 74.032 175.404 74.416C175.244 74.792 175.028 75.112 174.756 75.376C174.484 75.632 174.164 75.828 173.796 75.964C173.436 76.1 173.06 76.168 172.668 76.168C172.268 76.168 171.888 76.1 171.528 75.964C171.168 75.828 170.852 75.632 170.58 75.376C170.308 75.112 170.088 74.792 169.92 74.416C169.76 74.032 169.68 73.592 169.68 73.096V72.952C169.68 72.464 169.76 72.032 169.92 71.656C170.088 71.272 170.308 70.948 170.58 70.684C170.86 70.42 171.18 70.22 171.54 70.084C171.9 69.948 172.276 69.88 172.668 69.88C173.06 69.88 173.436 69.948 173.796 70.084C174.156 70.22 174.472 70.42 174.744 70.684C175.024 70.948 175.244 71.272 175.404 71.656C175.572 72.032 175.656 72.464 175.656 72.952V73.096ZM172.668 75.28C172.956 75.28 173.22 75.232 173.46 75.136C173.708 75.032 173.924 74.884 174.108 74.692C174.292 74.5 174.436 74.272 174.54 74.008C174.644 73.736 174.696 73.432 174.696 73.096V72.952C174.696 72.632 174.644 72.34 174.54 72.076C174.436 71.804 174.292 71.572 174.108 71.38C173.924 71.188 173.708 71.04 173.46 70.936C173.212 70.824 172.948 70.768 172.668 70.768C172.388 70.768 172.124 70.824 171.876 70.936C171.628 71.04 171.412 71.188 171.228 71.38C171.044 71.572 170.9 71.804 170.796 72.076C170.692 72.34 170.64 72.632 170.64 72.952V73.096C170.64 73.432 170.692 73.736 170.796 74.008C170.9 74.272 171.044 74.5 171.228 74.692C171.412 74.884 171.624 75.032 171.864 75.136C172.112 75.232 172.38 75.28 172.668 75.28Z" fill="white"/>
<path d="M181.636 70.048H182.572V76H181.636V74.92H181.492C181.3 75.304 181.048 75.608 180.736 75.832C180.424 76.056 180.028 76.168 179.548 76.168C179.22 76.168 178.916 76.112 178.636 76C178.364 75.896 178.128 75.736 177.928 75.52C177.736 75.304 177.584 75.036 177.472 74.716C177.368 74.396 177.316 74.024 177.316 73.6V70.048H178.252V73.48C178.252 74.104 178.38 74.56 178.636 74.848C178.892 75.136 179.284 75.28 179.812 75.28C180.38 75.28 180.824 75.088 181.144 74.704C181.472 74.312 181.636 73.792 181.636 73.144V70.048Z" fill="white"/>
<path d="M185.671 76H184.735V70.048H185.671V71.056H185.815C186.183 70.272 186.823 69.88 187.735 69.88C188.423 69.88 188.971 70.096 189.379 70.528C189.787 70.952 189.991 71.592 189.991 72.448V76H189.055V72.64C189.055 72.016 188.915 71.548 188.635 71.236C188.355 70.924 187.975 70.768 187.495 70.768C186.927 70.768 186.479 70.964 186.151 71.356C185.831 71.74 185.671 72.256 185.671 72.904V76Z" fill="white"/>
<path d="M196.691 75.088H196.547C196.451 75.272 196.327 75.432 196.175 75.568C196.031 75.704 195.871 75.816 195.695 75.904C195.527 75.992 195.347 76.056 195.155 76.096C194.963 76.144 194.779 76.168 194.603 76.168C194.203 76.168 193.831 76.1 193.487 75.964C193.143 75.828 192.839 75.632 192.575 75.376C192.319 75.12 192.115 74.804 191.963 74.428C191.819 74.044 191.747 73.608 191.747 73.12V72.928C191.747 72.448 191.823 72.02 191.975 71.644C192.127 71.26 192.331 70.94 192.587 70.684C192.843 70.42 193.143 70.22 193.487 70.084C193.831 69.948 194.195 69.88 194.579 69.88C194.987 69.88 195.367 69.972 195.719 70.156C196.079 70.332 196.355 70.608 196.547 70.984H196.691V67.6H197.627V76H196.691V75.088ZM194.699 75.28C194.979 75.28 195.239 75.228 195.479 75.124C195.719 75.02 195.927 74.872 196.103 74.68C196.287 74.488 196.431 74.26 196.535 73.996C196.639 73.724 196.691 73.424 196.691 73.096V72.952C196.691 72.632 196.639 72.34 196.535 72.076C196.431 71.804 196.287 71.572 196.103 71.38C195.927 71.188 195.715 71.04 195.467 70.936C195.227 70.824 194.971 70.768 194.699 70.768C194.419 70.768 194.155 70.82 193.907 70.924C193.667 71.028 193.455 71.176 193.271 71.368C193.095 71.56 192.955 71.788 192.851 72.052C192.755 72.316 192.707 72.608 192.707 72.928V73.12C192.707 73.456 192.755 73.756 192.851 74.02C192.955 74.284 193.095 74.512 193.271 74.704C193.455 74.888 193.667 75.032 193.907 75.136C194.147 75.232 194.411 75.28 194.699 75.28Z" fill="white"/>
<path d="M5.65204 70.024C5.65204 69.752 5.59604 69.512 5.48404 69.304C5.38004 69.096 5.23604 68.924 5.05204 68.788C4.86804 68.652 4.65604 68.548 4.41604 68.476C4.17604 68.404 3.92404 68.368 3.66004 68.368C3.42804 68.368 3.20804 68.4 3.00004 68.464C2.79204 68.52 2.60404 68.604 2.43604 68.716C2.27604 68.828 2.14804 68.968 2.05204 69.136C1.95604 69.296 1.90804 69.484 1.90804 69.7V69.772C1.90804 70.004 1.95604 70.204 2.05204 70.372C2.14804 70.532 2.28804 70.672 2.47204 70.792C2.66404 70.904 2.90004 71 3.18004 71.08C3.46004 71.152 3.78804 71.216 4.16404 71.272C5.04404 71.408 5.69204 71.668 6.10804 72.052C6.52404 72.428 6.73204 72.936 6.73204 73.576V73.72C6.73204 74.08 6.66804 74.412 6.54004 74.716C6.42004 75.012 6.23604 75.268 5.98804 75.484C5.74804 75.7 5.44804 75.868 5.08804 75.988C4.72804 76.108 4.31204 76.168 3.84004 76.168C3.30404 76.168 2.82804 76.092 2.41204 75.94C2.00404 75.78 1.66004 75.564 1.38004 75.292C1.10804 75.012 0.900039 74.688 0.756039 74.32C0.612039 73.944 0.540039 73.536 0.540039 73.096V72.736H1.54804V73.024C1.54804 73.76 1.74804 74.312 2.14804 74.68C2.55604 75.048 3.12004 75.232 3.84004 75.232C4.46404 75.232 4.93204 75.096 5.24404 74.824C5.56404 74.544 5.72404 74.176 5.72404 73.72V73.648C5.72404 73.208 5.56004 72.872 5.23204 72.64C4.91204 72.408 4.38804 72.24 3.66004 72.136C3.23604 72.08 2.85204 71.996 2.50804 71.884C2.17204 71.764 1.88404 71.612 1.64404 71.428C1.40404 71.236 1.22004 71.008 1.09204 70.744C0.964039 70.48 0.900039 70.168 0.900039 69.808V69.664C0.900039 69.336 0.968039 69.036 1.10404 68.764C1.24004 68.492 1.42804 68.256 1.66804 68.056C1.91604 67.856 2.20804 67.704 2.54404 67.6C2.88804 67.488 3.26404 67.432 3.67204 67.432C4.14404 67.432 4.56404 67.5 4.93204 67.636C5.30804 67.772 5.62404 67.956 5.88004 68.188C6.13604 68.412 6.32804 68.68 6.45604 68.992C6.59204 69.296 6.66004 69.616 6.66004 69.952V70.456H5.65204V70.024Z" fill="#FA2162"/>
<path d="M12.7117 74.92H12.5677C12.3757 75.304 12.1237 75.608 11.8117 75.832C11.4997 76.056 11.1037 76.168 10.6237 76.168C10.2957 76.168 9.9917 76.112 9.7117 76C9.4397 75.896 9.2037 75.736 9.0037 75.52C8.8117 75.304 8.6597 75.036 8.5477 74.716C8.4437 74.396 8.3917 74.024 8.3917 73.6V70.048H9.3277V73.48C9.3277 74.104 9.4557 74.56 9.7117 74.848C9.9677 75.136 10.3597 75.28 10.8877 75.28C11.4557 75.28 11.8997 75.088 12.2197 74.704C12.5477 74.312 12.7117 73.792 12.7117 73.144V70.048H13.6477V77.464C13.6477 77.736 13.5597 77.96 13.3837 78.136C13.2157 78.312 12.9957 78.4 12.7237 78.4H9.3277V77.536H12.3877C12.6037 77.536 12.7117 77.416 12.7117 77.176V74.92Z" fill="#FA2162"/>
<path d="M16.6754 76H15.7394V70.048H16.6754V71.056H16.8194C17.1874 70.272 17.8274 69.88 18.7394 69.88C19.4274 69.88 19.9754 70.096 20.3834 70.528C20.7914 70.952 20.9954 71.592 20.9954 72.448V76H20.0594V72.64C20.0594 72.016 19.9194 71.548 19.6394 71.236C19.3594 70.924 18.9794 70.768 18.4994 70.768C17.9314 70.768 17.4834 70.964 17.1554 71.356C16.8354 71.74 16.6754 72.256 16.6754 72.904V76Z" fill="#FA2162"/>
<path d="M22.883 70.048H24.755V67.6H25.691V70.048H27.995V70.912H25.691V74.776C25.691 75.016 25.799 75.136 26.015 75.136H27.707V76H25.679C25.407 76 25.183 75.912 25.007 75.736C24.839 75.56 24.755 75.336 24.755 75.064V70.912H22.883V70.048Z" fill="#FA2162"/>
<path d="M34.7547 74.992H34.6107C34.4187 75.392 34.1507 75.688 33.8067 75.88C33.4707 76.072 33.1147 76.168 32.7387 76.168C32.3467 76.168 31.9827 76.104 31.6467 75.976C31.3107 75.84 31.0147 75.644 30.7587 75.388C30.5107 75.124 30.3147 74.804 30.1707 74.428C30.0267 74.052 29.9547 73.616 29.9547 73.12V72.928C29.9547 72.44 30.0267 72.008 30.1707 71.632C30.3147 71.256 30.5107 70.94 30.7587 70.684C31.0147 70.42 31.3107 70.22 31.6467 70.084C31.9827 69.948 32.3387 69.88 32.7147 69.88C33.1227 69.88 33.4907 69.972 33.8187 70.156C34.1547 70.332 34.4187 70.608 34.6107 70.984H34.7547V70.048H35.6907V74.776C35.6907 75.016 35.7987 75.136 36.0147 75.136H36.3147V76H35.6787C35.4067 76 35.1827 75.912 35.0067 75.736C34.8387 75.56 34.7547 75.336 34.7547 75.064V74.992ZM32.8347 75.28C33.1147 75.28 33.3707 75.228 33.6027 75.124C33.8427 75.02 34.0467 74.872 34.2147 74.68C34.3827 74.488 34.5147 74.26 34.6107 73.996C34.7067 73.724 34.7547 73.424 34.7547 73.096V72.952C34.7547 72.632 34.7067 72.34 34.6107 72.076C34.5147 71.804 34.3787 71.572 34.2027 71.38C34.0347 71.188 33.8307 71.04 33.5907 70.936C33.3587 70.824 33.1067 70.768 32.8347 70.768C32.5547 70.768 32.2987 70.82 32.0667 70.924C31.8347 71.028 31.6307 71.176 31.4547 71.368C31.2867 71.552 31.1547 71.78 31.0587 72.052C30.9627 72.316 30.9147 72.608 30.9147 72.928V73.12C30.9147 73.8 31.0907 74.332 31.4427 74.716C31.8027 75.092 32.2667 75.28 32.8347 75.28Z" fill="#FA2162"/>
<path d="M42.0183 70.048H43.0863L41.3343 72.88V73.024L43.2303 76H42.1383L40.5183 73.384H40.3023L38.6823 76H37.5903L39.4863 73.024V72.88L37.7343 70.048H38.8023L40.3023 72.52H40.5183L42.0183 70.048Z" fill="#FA2162"/>
<path d="M45.214 67.6H50.302V68.536H46.222V71.32H50.23V72.256H46.222V75.064H50.374V76H45.214V67.6Z" fill="#FA2162"/>
<path d="M52.1416 70.048H54.3016V70.84H54.4456C54.5976 70.512 54.8136 70.272 55.0936 70.12C55.3736 69.96 55.6936 69.88 56.0536 69.88C56.6536 69.88 57.1376 70.076 57.5056 70.468C57.8736 70.86 58.0696 71.432 58.0936 72.184L57.1096 72.328C57.1096 71.776 56.9776 71.38 56.7136 71.14C56.4496 70.892 56.1256 70.768 55.7416 70.768C55.4936 70.768 55.2776 70.816 55.0936 70.912C54.9176 71.008 54.7696 71.14 54.6496 71.308C54.5296 71.476 54.4416 71.672 54.3856 71.896C54.3296 72.12 54.3016 72.36 54.3016 72.616V75.136H55.8136V76H51.9976V75.136H53.3656V70.912H52.1416V70.048Z" fill="#FA2162"/>
<path d="M59.4893 70.048H61.6493V70.84H61.7933C61.9453 70.512 62.1613 70.272 62.4413 70.12C62.7213 69.96 63.0413 69.88 63.4013 69.88C64.0013 69.88 64.4853 70.076 64.8533 70.468C65.2213 70.86 65.4173 71.432 65.4413 72.184L64.4573 72.328C64.4573 71.776 64.3253 71.38 64.0613 71.14C63.7973 70.892 63.4733 70.768 63.0893 70.768C62.8413 70.768 62.6253 70.816 62.4413 70.912C62.2653 71.008 62.1173 71.14 61.9973 71.308C61.8773 71.476 61.7893 71.672 61.7333 71.896C61.6773 72.12 61.6493 72.36 61.6493 72.616V75.136H63.1613V76H59.3453V75.136H60.7133V70.912H59.4893V70.048Z" fill="#FA2162"/>
<path d="M72.7889 73.096C72.7889 73.592 72.7049 74.032 72.5369 74.416C72.3769 74.792 72.1609 75.112 71.8889 75.376C71.6169 75.632 71.2969 75.828 70.9289 75.964C70.5689 76.1 70.1929 76.168 69.8009 76.168C69.4009 76.168 69.0209 76.1 68.6609 75.964C68.3009 75.828 67.9849 75.632 67.7129 75.376C67.4409 75.112 67.2209 74.792 67.0529 74.416C66.8929 74.032 66.8129 73.592 66.8129 73.096V72.952C66.8129 72.464 66.8929 72.032 67.0529 71.656C67.2209 71.272 67.4409 70.948 67.7129 70.684C67.9929 70.42 68.3129 70.22 68.6729 70.084C69.0329 69.948 69.4089 69.88 69.8009 69.88C70.1929 69.88 70.5689 69.948 70.9289 70.084C71.2889 70.22 71.6049 70.42 71.8769 70.684C72.1569 70.948 72.3769 71.272 72.5369 71.656C72.7049 72.032 72.7889 72.464 72.7889 72.952V73.096ZM69.8009 75.28C70.0889 75.28 70.3529 75.232 70.5929 75.136C70.8409 75.032 71.0569 74.884 71.2409 74.692C71.4249 74.5 71.5689 74.272 71.6729 74.008C71.7769 73.736 71.8289 73.432 71.8289 73.096V72.952C71.8289 72.632 71.7769 72.34 71.6729 72.076C71.5689 71.804 71.4249 71.572 71.2409 71.38C71.0569 71.188 70.8409 71.04 70.5929 70.936C70.3449 70.824 70.0809 70.768 69.8009 70.768C69.5209 70.768 69.2569 70.824 69.0089 70.936C68.7609 71.04 68.5449 71.188 68.3609 71.38C68.1769 71.572 68.0329 71.804 67.9289 72.076C67.8249 72.34 67.7729 72.632 67.7729 72.952V73.096C67.7729 73.432 67.8249 73.736 67.9289 74.008C68.0329 74.272 68.1769 74.5 68.3609 74.692C68.5449 74.884 68.7569 75.032 68.9969 75.136C69.2449 75.232 69.5129 75.28 69.8009 75.28Z" fill="#FA2162"/>
<path d="M74.1846 70.048H76.3446V70.84H76.4886C76.6406 70.512 76.8566 70.272 77.1366 70.12C77.4166 69.96 77.7366 69.88 78.0966 69.88C78.6966 69.88 79.1806 70.076 79.5486 70.468C79.9166 70.86 80.1126 71.432 80.1366 72.184L79.1526 72.328C79.1526 71.776 79.0206 71.38 78.7566 71.14C78.4926 70.892 78.1686 70.768 77.7846 70.768C77.5366 70.768 77.3206 70.816 77.1366 70.912C76.9606 71.008 76.8126 71.14 76.6926 71.308C76.5726 71.476 76.4846 71.672 76.4286 71.896C76.3726 72.12 76.3446 72.36 76.3446 72.616V75.136H77.8566V76H74.0406V75.136H75.4086V70.912H74.1846V70.048Z" fill="#FA2162"/>
</svg>
