<svg width="250" height="80" viewBox="0 0 250 80" fill="none" xmlns="http://www.w3.org/2000/svg">
<path d="M4.06799 3.704C4.34799 3.752 4.59999 3.836 4.82399 3.956C5.05599 4.068 5.25199 4.208 5.41199 4.376C5.57199 4.544 5.69599 4.732 5.78399 4.94C5.87199 5.14 5.91599 5.352 5.91599 5.576V5.792H5.00399V5.648C5.00399 5.384 4.91599 5.16 4.73999 4.976C4.57199 4.792 4.34799 4.664 4.06799 4.592V6.308C4.73199 6.388 5.23599 6.572 5.57999 6.86C5.93199 7.14 6.10799 7.528 6.10799 8.024V8.096C6.10799 8.632 5.91999 9.064 5.54399 9.392C5.17599 9.712 4.68399 9.892 4.06799 9.932V10.664H3.20399V9.908C2.85199 9.852 2.54799 9.756 2.29199 9.62C2.04399 9.476 1.83599 9.308 1.66799 9.116C1.50799 8.916 1.38799 8.704 1.30799 8.48C1.22799 8.248 1.18799 8.016 1.18799 7.784V7.496H2.09999V7.64C2.09999 8.024 2.19599 8.332 2.38799 8.564C2.57999 8.796 2.85199 8.952 3.20399 9.032V7.076C2.60399 6.996 2.14399 6.824 1.82399 6.56C1.51199 6.288 1.35599 5.912 1.35599 5.432V5.36C1.35599 5.104 1.40399 4.88 1.49999 4.688C1.60399 4.488 1.73999 4.32 1.90799 4.184C2.07599 4.04 2.27199 3.928 2.49599 3.848C2.71999 3.76 2.95599 3.704 3.20399 3.68V2.936H4.06799V3.704ZM5.17199 8.096C5.17199 7.816 5.08399 7.608 4.90799 7.472C4.73199 7.336 4.45199 7.236 4.06799 7.172V9.068C4.41199 9.028 4.67999 8.924 4.87199 8.756C5.07199 8.588 5.17199 8.368 5.17199 8.096ZM2.29199 5.36C2.29199 5.584 2.35599 5.768 2.48399 5.912C2.61999 6.048 2.85999 6.148 3.20399 6.212V4.544C2.94799 4.584 2.73199 4.672 2.55599 4.808C2.37999 4.944 2.29199 5.128 2.29199 5.36Z" fill="#D19F64"/>
<path d="M16.5193 13.4H15.5833V5.048H16.5193V5.984H16.6633C16.8713 5.624 17.1593 5.352 17.5273 5.168C17.8953 4.976 18.2953 4.88 18.7273 4.88C19.0953 4.88 19.4433 4.948 19.7713 5.084C20.0993 5.22 20.3873 5.416 20.6353 5.672C20.8913 5.928 21.0913 6.244 21.2353 6.62C21.3873 6.996 21.4633 7.424 21.4633 7.904V8.144C21.4633 8.632 21.3913 9.064 21.2473 9.44C21.1033 9.816 20.9033 10.132 20.6473 10.388C20.3993 10.644 20.1073 10.84 19.7713 10.976C19.4353 11.104 19.0793 11.168 18.7033 11.168C18.5113 11.168 18.3153 11.144 18.1153 11.096C17.9153 11.056 17.7233 10.992 17.5393 10.904C17.3633 10.808 17.1993 10.696 17.0473 10.568C16.8953 10.432 16.7673 10.272 16.6633 10.088H16.5193V13.4ZM18.5113 10.28C18.7993 10.28 19.0633 10.232 19.3033 10.136C19.5433 10.032 19.7513 9.888 19.9273 9.704C20.1113 9.52 20.2513 9.296 20.3473 9.032C20.4513 8.768 20.5033 8.472 20.5033 8.144V7.904C20.5033 7.584 20.4513 7.296 20.3473 7.04C20.2513 6.776 20.1113 6.552 19.9273 6.368C19.7513 6.176 19.5393 6.028 19.2913 5.924C19.0513 5.82 18.7913 5.768 18.5113 5.768C18.2313 5.768 17.9713 5.824 17.7313 5.936C17.4913 6.04 17.2793 6.188 17.0953 6.38C16.9193 6.572 16.7793 6.804 16.6753 7.076C16.5713 7.34 16.5193 7.632 16.5193 7.952V8.096C16.5193 8.424 16.5713 8.724 16.6753 8.996C16.7793 9.26 16.9193 9.488 17.0953 9.68C17.2793 9.872 17.4913 10.02 17.7313 10.124C17.9713 10.228 18.2313 10.28 18.5113 10.28Z" fill="#CECECE"/>
<path d="M27.4669 9.92H27.3229C27.1309 10.304 26.8789 10.608 26.5669 10.832C26.2549 11.056 25.8589 11.168 25.3789 11.168C25.0509 11.168 24.7469 11.112 24.4669 11C24.1949 10.896 23.9589 10.736 23.7589 10.52C23.5669 10.304 23.4149 10.036 23.3029 9.716C23.1989 9.396 23.1469 9.024 23.1469 8.6V5.048H24.0829V8.48C24.0829 9.104 24.2109 9.56 24.4669 9.848C24.7229 10.136 25.1149 10.28 25.6429 10.28C26.2109 10.28 26.6549 10.088 26.9749 9.704C27.3029 9.312 27.4669 8.792 27.4669 8.144V5.048H28.4029V12.464C28.4029 12.736 28.3149 12.96 28.1389 13.136C27.9709 13.312 27.7509 13.4 27.4789 13.4H24.0829V12.536H27.1429C27.3589 12.536 27.4669 12.416 27.4669 12.176V9.92Z" fill="#CECECE"/>
<path d="M30.2906 5.048H32.1626V2.6H33.0986V5.048H35.4026V5.912H33.0986V9.776C33.0986 10.016 33.2066 10.136 33.4226 10.136H35.1146V11H33.0866C32.8146 11 32.5906 10.912 32.4146 10.736C32.2466 10.56 32.1626 10.336 32.1626 10.064V5.912H30.2906V5.048Z" fill="#CECECE"/>
<path d="M38.7782 11H37.8422V2.6H38.7782V6.128H38.9222C39.1062 5.744 39.3622 5.44 39.6902 5.216C40.0262 4.992 40.4342 4.88 40.9142 4.88C41.5622 4.88 42.0862 5.096 42.4862 5.528C42.8942 5.952 43.0982 6.592 43.0982 7.448V11H42.1622V7.64C42.1622 7.016 42.0222 6.548 41.7422 6.236C41.4622 5.924 41.0822 5.768 40.6022 5.768C40.0342 5.768 39.5862 5.964 39.2582 6.356C38.9382 6.74 38.7782 7.256 38.7782 7.904V11Z" fill="#CECECE"/>
<path d="M50.8059 8.096C50.8059 8.592 50.7219 9.032 50.5539 9.416C50.3939 9.792 50.1779 10.112 49.9059 10.376C49.6339 10.632 49.3139 10.828 48.9459 10.964C48.5859 11.1 48.2099 11.168 47.8179 11.168C47.4179 11.168 47.0379 11.1 46.6779 10.964C46.3179 10.828 46.0019 10.632 45.7299 10.376C45.4579 10.112 45.2379 9.792 45.0699 9.416C44.9099 9.032 44.8299 8.592 44.8299 8.096V7.952C44.8299 7.464 44.9099 7.032 45.0699 6.656C45.2379 6.272 45.4579 5.948 45.7299 5.684C46.0099 5.42 46.3299 5.22 46.6899 5.084C47.0499 4.948 47.4259 4.88 47.8179 4.88C48.2099 4.88 48.5859 4.948 48.9459 5.084C49.3059 5.22 49.6219 5.42 49.8939 5.684C50.1739 5.948 50.3939 6.272 50.5539 6.656C50.7219 7.032 50.8059 7.464 50.8059 7.952V8.096ZM47.8179 10.28C48.1059 10.28 48.3699 10.232 48.6099 10.136C48.8579 10.032 49.0739 9.884 49.2579 9.692C49.4419 9.5 49.5859 9.272 49.6899 9.008C49.7939 8.736 49.8459 8.432 49.8459 8.096V7.952C49.8459 7.632 49.7939 7.34 49.6899 7.076C49.5859 6.804 49.4419 6.572 49.2579 6.38C49.0739 6.188 48.8579 6.04 48.6099 5.936C48.3619 5.824 48.0979 5.768 47.8179 5.768C47.5379 5.768 47.2739 5.824 47.0259 5.936C46.7779 6.04 46.5619 6.188 46.3779 6.38C46.1939 6.572 46.0499 6.804 45.9459 7.076C45.8419 7.34 45.7899 7.632 45.7899 7.952V8.096C45.7899 8.432 45.8419 8.736 45.9459 9.008C46.0499 9.272 46.1939 9.5 46.3779 9.692C46.5619 9.884 46.7739 10.032 47.0139 10.136C47.2619 10.232 47.5299 10.28 47.8179 10.28Z" fill="#CECECE"/>
<path d="M53.4735 11H52.5375V5.048H53.4735V6.056H53.6175C53.9855 5.272 54.6255 4.88 55.5375 4.88C56.2255 4.88 56.7735 5.096 57.1815 5.528C57.5895 5.952 57.7935 6.592 57.7935 7.448V11H56.8575V7.64C56.8575 7.016 56.7175 6.548 56.4375 6.236C56.1575 5.924 55.7775 5.768 55.2975 5.768C54.7295 5.768 54.2815 5.964 53.9535 6.356C53.6335 6.74 53.4735 7.256 53.4735 7.904V11Z" fill="#CECECE"/>
<path d="M61.6852 6.824V5.432L64.4212 3.68V3.536H59.6692V2.6H65.2852V4.136L62.5492 5.888V6.032H63.0292C63.3492 6.032 63.6572 6.084 63.9532 6.188C64.2492 6.292 64.5092 6.444 64.7332 6.644C64.9652 6.844 65.1492 7.092 65.2852 7.388C65.4292 7.676 65.5012 8.012 65.5012 8.396V8.612C65.5012 8.972 65.4292 9.308 65.2852 9.62C65.1412 9.932 64.9412 10.204 64.6852 10.436C64.4292 10.66 64.1252 10.84 63.7732 10.976C63.4292 11.104 63.0532 11.168 62.6452 11.168C62.1732 11.168 61.7492 11.096 61.3732 10.952C60.9972 10.808 60.6772 10.612 60.4132 10.364C60.1492 10.108 59.9452 9.812 59.8012 9.476C59.6652 9.132 59.5972 8.768 59.5972 8.384V7.736H60.6052V8.312C60.6052 8.616 60.6532 8.888 60.7492 9.128C60.8532 9.36 60.9932 9.56 61.1692 9.728C61.3532 9.888 61.5692 10.012 61.8172 10.1C62.0652 10.188 62.3332 10.232 62.6212 10.232C62.8852 10.232 63.1292 10.188 63.3532 10.1C63.5852 10.012 63.7852 9.892 63.9532 9.74C64.1212 9.58 64.2532 9.396 64.3492 9.188C64.4452 8.972 64.4932 8.744 64.4932 8.504V8.432C64.4932 7.928 64.3332 7.536 64.0132 7.256C63.6932 6.968 63.2932 6.824 62.8132 6.824H61.6852Z" fill="#CECECE"/>
<path d="M75.3005 11H74.3645V2.6H75.3005V5.984H75.4445C75.6525 5.624 75.9405 5.352 76.3085 5.168C76.6765 4.976 77.0765 4.88 77.5085 4.88C77.8765 4.88 78.2245 4.948 78.5525 5.084C78.8805 5.22 79.1685 5.416 79.4165 5.672C79.6725 5.928 79.8725 6.244 80.0165 6.62C80.1685 6.996 80.2445 7.424 80.2445 7.904V8.144C80.2445 8.632 80.1725 9.064 80.0285 9.44C79.8845 9.816 79.6845 10.132 79.4285 10.388C79.1805 10.644 78.8885 10.84 78.5525 10.976C78.2165 11.104 77.8605 11.168 77.4845 11.168C77.2925 11.168 77.0965 11.144 76.8965 11.096C76.6965 11.056 76.5045 10.992 76.3205 10.904C76.1445 10.808 75.9805 10.696 75.8285 10.568C75.6765 10.432 75.5485 10.272 75.4445 10.088H75.3005V11ZM77.2925 10.28C77.5805 10.28 77.8445 10.232 78.0845 10.136C78.3245 10.032 78.5325 9.888 78.7085 9.704C78.8925 9.52 79.0325 9.296 79.1285 9.032C79.2325 8.768 79.2845 8.472 79.2845 8.144V7.904C79.2845 7.584 79.2325 7.296 79.1285 7.04C79.0325 6.776 78.8925 6.552 78.7085 6.368C78.5325 6.176 78.3205 6.028 78.0725 5.924C77.8325 5.82 77.5725 5.768 77.2925 5.768C77.0125 5.768 76.7525 5.824 76.5125 5.936C76.2725 6.04 76.0605 6.188 75.8765 6.38C75.7005 6.572 75.5605 6.804 75.4565 7.076C75.3525 7.34 75.3005 7.632 75.3005 7.952V8.096C75.3005 8.424 75.3525 8.724 75.4565 8.996C75.5605 9.26 75.7005 9.488 75.8765 9.68C76.0605 9.872 76.2725 10.02 76.5125 10.124C76.7525 10.228 77.0125 10.28 77.2925 10.28Z" fill="#CECECE"/>
<path d="M82.6122 8.312C82.6362 8.904 82.8202 9.38 83.1642 9.74C83.5082 10.1 83.9882 10.28 84.6042 10.28C84.8842 10.28 85.1282 10.248 85.3362 10.184C85.5442 10.12 85.7202 10.032 85.8642 9.92C86.0162 9.808 86.1362 9.68 86.2242 9.536C86.3202 9.384 86.3962 9.224 86.4522 9.056L87.3402 9.296C87.1722 9.848 86.8602 10.3 86.4042 10.652C85.9562 10.996 85.3482 11.168 84.5802 11.168C84.1562 11.168 83.7642 11.096 83.4042 10.952C83.0522 10.8 82.7482 10.588 82.4922 10.316C82.2362 10.044 82.0362 9.72 81.8922 9.344C81.7482 8.968 81.6762 8.552 81.6762 8.096V7.808C81.6762 7.392 81.7482 7.004 81.8922 6.644C82.0442 6.284 82.2522 5.976 82.5162 5.72C82.7802 5.456 83.0882 5.252 83.4402 5.108C83.8002 4.956 84.1882 4.88 84.6042 4.88C85.0922 4.88 85.5122 4.972 85.8642 5.156C86.2242 5.332 86.5162 5.552 86.7402 5.816C86.9722 6.08 87.1402 6.368 87.2442 6.68C87.3562 6.992 87.4122 7.28 87.4122 7.544V8.312H82.6122ZM84.6042 5.768C84.3402 5.768 84.0922 5.812 83.8602 5.9C83.6362 5.98 83.4362 6.096 83.2602 6.248C83.0922 6.4 82.9522 6.58 82.8402 6.788C82.7362 6.988 82.6682 7.208 82.6362 7.448H86.4762C86.4602 7.192 86.3962 6.96 86.2842 6.752C86.1802 6.544 86.0402 6.368 85.8642 6.224C85.6962 6.08 85.5002 5.968 85.2762 5.888C85.0602 5.808 84.8362 5.768 84.6042 5.768Z" fill="#CECECE"/>
<path d="M91.0638 10.328C91.0638 10.096 91.1438 9.9 91.3038 9.74C91.4718 9.572 91.6718 9.488 91.9038 9.488C92.1358 9.488 92.3318 9.572 92.4918 9.74C92.6598 9.9 92.7438 10.096 92.7438 10.328C92.7438 10.56 92.6598 10.76 92.4918 10.928C92.3318 11.088 92.1358 11.168 91.9038 11.168C91.6718 11.168 91.4718 11.088 91.3038 10.928C91.1438 10.76 91.0638 10.56 91.0638 10.328Z" fill="#CECECE"/>
<path d="M97.3435 13.4H96.4075V5.048H97.3435V5.984H97.4875C97.6955 5.624 97.9835 5.352 98.3515 5.168C98.7195 4.976 99.1195 4.88 99.5515 4.88C99.9195 4.88 100.267 4.948 100.595 5.084C100.923 5.22 101.211 5.416 101.459 5.672C101.715 5.928 101.915 6.244 102.059 6.62C102.211 6.996 102.287 7.424 102.287 7.904V8.144C102.287 8.632 102.215 9.064 102.071 9.44C101.927 9.816 101.727 10.132 101.471 10.388C101.223 10.644 100.931 10.84 100.595 10.976C100.259 11.104 99.9035 11.168 99.5275 11.168C99.3355 11.168 99.1395 11.144 98.9395 11.096C98.7395 11.056 98.5475 10.992 98.3635 10.904C98.1875 10.808 98.0235 10.696 97.8715 10.568C97.7195 10.432 97.5915 10.272 97.4875 10.088H97.3435V13.4ZM99.3355 10.28C99.6235 10.28 99.8875 10.232 100.127 10.136C100.367 10.032 100.575 9.888 100.751 9.704C100.935 9.52 101.075 9.296 101.171 9.032C101.275 8.768 101.327 8.472 101.327 8.144V7.904C101.327 7.584 101.275 7.296 101.171 7.04C101.075 6.776 100.935 6.552 100.751 6.368C100.575 6.176 100.363 6.028 100.115 5.924C99.8755 5.82 99.6155 5.768 99.3355 5.768C99.0555 5.768 98.7955 5.824 98.5555 5.936C98.3155 6.04 98.1035 6.188 97.9195 6.38C97.7435 6.572 97.6035 6.804 97.4995 7.076C97.3955 7.34 97.3435 7.632 97.3435 7.952V8.096C97.3435 8.424 97.3955 8.724 97.4995 8.996C97.6035 9.26 97.7435 9.488 97.9195 9.68C98.1035 9.872 98.3155 10.02 98.5555 10.124C98.7955 10.228 99.0555 10.28 99.3355 10.28Z" fill="#CECECE"/>
<path d="M108.291 9.92H108.147C107.955 10.304 107.703 10.608 107.391 10.832C107.079 11.056 106.683 11.168 106.203 11.168C105.875 11.168 105.571 11.112 105.291 11C105.019 10.896 104.783 10.736 104.583 10.52C104.391 10.304 104.239 10.036 104.127 9.716C104.023 9.396 103.971 9.024 103.971 8.6V5.048H104.907V8.48C104.907 9.104 105.035 9.56 105.291 9.848C105.547 10.136 105.939 10.28 106.467 10.28C107.035 10.28 107.479 10.088 107.799 9.704C108.127 9.312 108.291 8.792 108.291 8.144V5.048H109.227V12.464C109.227 12.736 109.139 12.96 108.963 13.136C108.795 13.312 108.575 13.4 108.303 13.4H104.907V12.536H107.967C108.183 12.536 108.291 12.416 108.291 12.176V9.92Z" fill="#CECECE"/>
<path d="M15.8953 19.6H21.0553V20.536H16.9033V23.32H20.9833V24.256H16.9033V28H15.8953V19.6Z" fill="white"/>
<path d="M24.9949 20.272C24.9949 20.04 25.0749 19.844 25.2349 19.684C25.4029 19.516 25.6029 19.432 25.8349 19.432C26.0669 19.432 26.2629 19.516 26.4229 19.684C26.5909 19.844 26.6749 20.04 26.6749 20.272C26.6749 20.504 26.5909 20.704 26.4229 20.872C26.2629 21.032 26.0669 21.112 25.8349 21.112C25.6029 21.112 25.4029 21.032 25.2349 20.872C25.0749 20.704 24.9949 20.504 24.9949 20.272ZM23.2909 27.136H25.3789V22.912H23.5069V22.048H26.3149V27.136H28.2589V28H23.2909V27.136Z" fill="white"/>
<path d="M30.4946 27.136H32.6546V20.464H30.5666V19.6H33.5906V27.136H35.7506V28H30.4946V27.136Z" fill="white"/>
<path d="M38.5262 25.312C38.5502 25.904 38.7342 26.38 39.0782 26.74C39.4222 27.1 39.9022 27.28 40.5182 27.28C40.7982 27.28 41.0422 27.248 41.2502 27.184C41.4582 27.12 41.6342 27.032 41.7782 26.92C41.9302 26.808 42.0502 26.68 42.1382 26.536C42.2342 26.384 42.3102 26.224 42.3662 26.056L43.2542 26.296C43.0862 26.848 42.7742 27.3 42.3182 27.652C41.8702 27.996 41.2622 28.168 40.4942 28.168C40.0702 28.168 39.6782 28.096 39.3182 27.952C38.9662 27.8 38.6622 27.588 38.4062 27.316C38.1502 27.044 37.9502 26.72 37.8062 26.344C37.6622 25.968 37.5902 25.552 37.5902 25.096V24.808C37.5902 24.392 37.6622 24.004 37.8062 23.644C37.9582 23.284 38.1662 22.976 38.4302 22.72C38.6942 22.456 39.0022 22.252 39.3542 22.108C39.7142 21.956 40.1022 21.88 40.5182 21.88C41.0062 21.88 41.4262 21.972 41.7782 22.156C42.1382 22.332 42.4302 22.552 42.6542 22.816C42.8862 23.08 43.0542 23.368 43.1582 23.68C43.2702 23.992 43.3262 24.28 43.3262 24.544V25.312H38.5262ZM40.5182 22.768C40.2542 22.768 40.0062 22.812 39.7742 22.9C39.5502 22.98 39.3502 23.096 39.1742 23.248C39.0062 23.4 38.8662 23.58 38.7542 23.788C38.6502 23.988 38.5822 24.208 38.5502 24.448H42.3902C42.3742 24.192 42.3102 23.96 42.1982 23.752C42.0942 23.544 41.9542 23.368 41.7782 23.224C41.6102 23.08 41.4142 22.968 41.1902 22.888C40.9742 22.808 40.7502 22.768 40.5182 22.768Z" fill="white"/>
<path d="M55.4175 20.272C55.4175 20.04 55.4975 19.844 55.6575 19.684C55.8255 19.516 56.0255 19.432 56.2575 19.432C56.4895 19.432 56.6855 19.516 56.8455 19.684C57.0135 19.844 57.0975 20.04 57.0975 20.272C57.0975 20.448 57.0495 20.608 56.9535 20.752C56.8575 20.888 56.7335 20.988 56.5815 21.052V22.384H55.9335V21.052C55.7815 20.988 55.6575 20.888 55.5615 20.752C55.4655 20.608 55.4175 20.448 55.4175 20.272ZM53.2335 20.272C53.2335 20.04 53.3135 19.844 53.4735 19.684C53.6415 19.516 53.8415 19.432 54.0735 19.432C54.3055 19.432 54.5015 19.516 54.6615 19.684C54.8295 19.844 54.9135 20.04 54.9135 20.272C54.9135 20.448 54.8655 20.608 54.7695 20.752C54.6735 20.888 54.5495 20.988 54.3975 21.052V22.384H53.7495V21.052C53.5975 20.988 53.4735 20.888 53.3775 20.752C53.2815 20.608 53.2335 20.448 53.2335 20.272Z" fill="white"/>
<path d="M60.6052 28H59.6692V19.6H60.6052V22.984H60.7492C60.9572 22.624 61.2452 22.352 61.6132 22.168C61.9812 21.976 62.3812 21.88 62.8132 21.88C63.1812 21.88 63.5292 21.948 63.8572 22.084C64.1852 22.22 64.4732 22.416 64.7212 22.672C64.9772 22.928 65.1772 23.244 65.3212 23.62C65.4732 23.996 65.5492 24.424 65.5492 24.904V25.144C65.5492 25.632 65.4772 26.064 65.3332 26.44C65.1892 26.816 64.9892 27.132 64.7332 27.388C64.4852 27.644 64.1932 27.84 63.8572 27.976C63.5212 28.104 63.1652 28.168 62.7892 28.168C62.5972 28.168 62.4012 28.144 62.2012 28.096C62.0012 28.056 61.8092 27.992 61.6252 27.904C61.4492 27.808 61.2852 27.696 61.1332 27.568C60.9812 27.432 60.8532 27.272 60.7492 27.088H60.6052V28ZM62.5972 27.28C62.8852 27.28 63.1492 27.232 63.3892 27.136C63.6292 27.032 63.8372 26.888 64.0132 26.704C64.1972 26.52 64.3372 26.296 64.4332 26.032C64.5372 25.768 64.5892 25.472 64.5892 25.144V24.904C64.5892 24.584 64.5372 24.296 64.4332 24.04C64.3372 23.776 64.1972 23.552 64.0132 23.368C63.8372 23.176 63.6252 23.028 63.3772 22.924C63.1372 22.82 62.8772 22.768 62.5972 22.768C62.3172 22.768 62.0572 22.824 61.8172 22.936C61.5772 23.04 61.3652 23.188 61.1812 23.38C61.0052 23.572 60.8652 23.804 60.7612 24.076C60.6572 24.34 60.6052 24.632 60.6052 24.952V25.096C60.6052 25.424 60.6572 25.724 60.7612 25.996C60.8652 26.26 61.0052 26.488 61.1812 26.68C61.3652 26.872 61.5772 27.02 61.8172 27.124C62.0572 27.228 62.3172 27.28 62.5972 27.28Z" fill="white"/>
<path d="M67.2329 27.136H69.3929V20.464H67.3049V19.6H70.3289V27.136H72.4889V28H67.2329V27.136Z" fill="white"/>
<path d="M75.2645 25.312C75.2885 25.904 75.4725 26.38 75.8165 26.74C76.1605 27.1 76.6405 27.28 77.2565 27.28C77.5365 27.28 77.7805 27.248 77.9885 27.184C78.1965 27.12 78.3725 27.032 78.5165 26.92C78.6685 26.808 78.7885 26.68 78.8765 26.536C78.9725 26.384 79.0485 26.224 79.1045 26.056L79.9925 26.296C79.8245 26.848 79.5125 27.3 79.0565 27.652C78.6085 27.996 78.0005 28.168 77.2325 28.168C76.8085 28.168 76.4165 28.096 76.0565 27.952C75.7045 27.8 75.4005 27.588 75.1445 27.316C74.8885 27.044 74.6885 26.72 74.5445 26.344C74.4005 25.968 74.3285 25.552 74.3285 25.096V24.808C74.3285 24.392 74.4005 24.004 74.5445 23.644C74.6965 23.284 74.9045 22.976 75.1685 22.72C75.4325 22.456 75.7405 22.252 76.0925 22.108C76.4525 21.956 76.8405 21.88 77.2565 21.88C77.7445 21.88 78.1645 21.972 78.5165 22.156C78.8765 22.332 79.1685 22.552 79.3925 22.816C79.6245 23.08 79.7925 23.368 79.8965 23.68C80.0085 23.992 80.0645 24.28 80.0645 24.544V25.312H75.2645ZM77.2565 22.768C76.9925 22.768 76.7445 22.812 76.5125 22.9C76.2885 22.98 76.0885 23.096 75.9125 23.248C75.7445 23.4 75.6045 23.58 75.4925 23.788C75.3885 23.988 75.3205 24.208 75.2885 24.448H79.1285C79.1125 24.192 79.0485 23.96 78.9365 23.752C78.8325 23.544 78.6925 23.368 78.5165 23.224C78.3485 23.08 78.1525 22.968 77.9285 22.888C77.7125 22.808 77.4885 22.768 77.2565 22.768Z" fill="white"/>
<path d="M82.6122 25.312C82.6362 25.904 82.8202 26.38 83.1642 26.74C83.5082 27.1 83.9882 27.28 84.6042 27.28C84.8842 27.28 85.1282 27.248 85.3362 27.184C85.5442 27.12 85.7202 27.032 85.8642 26.92C86.0162 26.808 86.1362 26.68 86.2242 26.536C86.3202 26.384 86.3962 26.224 86.4522 26.056L87.3402 26.296C87.1722 26.848 86.8602 27.3 86.4042 27.652C85.9562 27.996 85.3482 28.168 84.5802 28.168C84.1562 28.168 83.7642 28.096 83.4042 27.952C83.0522 27.8 82.7482 27.588 82.4922 27.316C82.2362 27.044 82.0362 26.72 81.8922 26.344C81.7482 25.968 81.6762 25.552 81.6762 25.096V24.808C81.6762 24.392 81.7482 24.004 81.8922 23.644C82.0442 23.284 82.2522 22.976 82.5162 22.72C82.7802 22.456 83.0882 22.252 83.4402 22.108C83.8002 21.956 84.1882 21.88 84.6042 21.88C85.0922 21.88 85.5122 21.972 85.8642 22.156C86.2242 22.332 86.5162 22.552 86.7402 22.816C86.9722 23.08 87.1402 23.368 87.2442 23.68C87.3562 23.992 87.4122 24.28 87.4122 24.544V25.312H82.6122ZM84.6042 22.768C84.3402 22.768 84.0922 22.812 83.8602 22.9C83.6362 22.98 83.4362 23.096 83.2602 23.248C83.0922 23.4 82.9522 23.58 82.8402 23.788C82.7362 23.988 82.6682 24.208 82.6362 24.448H86.4762C86.4602 24.192 86.3962 23.96 86.2842 23.752C86.1802 23.544 86.0402 23.368 85.8642 23.224C85.6962 23.08 85.5002 22.968 85.2762 22.888C85.0602 22.808 84.8362 22.768 84.6042 22.768Z" fill="white"/>
<path d="M93.8838 27.088H93.7398C93.6438 27.272 93.5198 27.432 93.3678 27.568C93.2238 27.704 93.0638 27.816 92.8878 27.904C92.7198 27.992 92.5398 28.056 92.3478 28.096C92.1558 28.144 91.9718 28.168 91.7958 28.168C91.3958 28.168 91.0238 28.1 90.6798 27.964C90.3358 27.828 90.0318 27.632 89.7678 27.376C89.5118 27.12 89.3078 26.804 89.1558 26.428C89.0118 26.044 88.9398 25.608 88.9398 25.12V24.928C88.9398 24.448 89.0158 24.02 89.1678 23.644C89.3198 23.26 89.5238 22.94 89.7798 22.684C90.0358 22.42 90.3358 22.22 90.6798 22.084C91.0238 21.948 91.3878 21.88 91.7718 21.88C92.1798 21.88 92.5598 21.972 92.9118 22.156C93.2718 22.332 93.5478 22.608 93.7398 22.984H93.8838V19.6H94.8198V28H93.8838V27.088ZM91.8918 27.28C92.1718 27.28 92.4318 27.228 92.6718 27.124C92.9118 27.02 93.1198 26.872 93.2958 26.68C93.4798 26.488 93.6238 26.26 93.7278 25.996C93.8318 25.724 93.8838 25.424 93.8838 25.096V24.952C93.8838 24.632 93.8318 24.34 93.7278 24.076C93.6238 23.804 93.4798 23.572 93.2958 23.38C93.1198 23.188 92.9078 23.04 92.6598 22.936C92.4198 22.824 92.1638 22.768 91.8918 22.768C91.6118 22.768 91.3478 22.82 91.0998 22.924C90.8598 23.028 90.6478 23.176 90.4638 23.368C90.2878 23.56 90.1478 23.788 90.0438 24.052C89.9478 24.316 89.8998 24.608 89.8998 24.928V25.12C89.8998 25.456 89.9478 25.756 90.0438 26.02C90.1478 26.284 90.2878 26.512 90.4638 26.704C90.6478 26.888 90.8598 27.032 91.0998 27.136C91.3398 27.232 91.6038 27.28 91.8918 27.28Z" fill="white"/>
<path d="M98.4715 20.272C98.4715 20.04 98.5515 19.844 98.7115 19.684C98.8795 19.516 99.0795 19.432 99.3115 19.432C99.5435 19.432 99.7395 19.516 99.8995 19.684C100.067 19.844 100.151 20.04 100.151 20.272C100.151 20.504 100.067 20.704 99.8995 20.872C99.7395 21.032 99.5435 21.112 99.3115 21.112C99.0795 21.112 98.8795 21.032 98.7115 20.872C98.5515 20.704 98.4715 20.504 98.4715 20.272ZM96.7675 27.136H98.8555V22.912H96.9835V22.048H99.7915V27.136H101.735V28H96.7675V27.136Z" fill="white"/>
<path d="M104.907 28H103.971V22.048H104.907V23.056H105.051C105.419 22.272 106.059 21.88 106.971 21.88C107.659 21.88 108.207 22.096 108.615 22.528C109.023 22.952 109.227 23.592 109.227 24.448V28H108.291V24.64C108.291 24.016 108.151 23.548 107.871 23.236C107.591 22.924 107.211 22.768 106.731 22.768C106.163 22.768 105.715 22.964 105.387 23.356C105.067 23.74 104.907 24.256 104.907 24.904V28Z" fill="white"/>
<path d="M115.843 27.088H115.699C115.507 27.448 115.243 27.72 114.907 27.904C114.579 28.08 114.219 28.168 113.827 28.168C113.427 28.168 113.051 28.1 112.699 27.964C112.347 27.828 112.035 27.632 111.763 27.376C111.499 27.12 111.287 26.804 111.127 26.428C110.975 26.044 110.899 25.608 110.899 25.12V24.928C110.899 24.448 110.979 24.02 111.139 23.644C111.299 23.26 111.511 22.94 111.775 22.684C112.039 22.42 112.347 22.22 112.699 22.084C113.051 21.948 113.419 21.88 113.803 21.88C114.235 21.88 114.611 21.976 114.931 22.168C115.259 22.352 115.515 22.624 115.699 22.984H115.843V22.048H116.779V29.464C116.779 29.736 116.691 29.96 116.515 30.136C116.347 30.312 116.127 30.4 115.855 30.4H111.979V29.536H115.519C115.735 29.536 115.843 29.416 115.843 29.176V27.088ZM113.851 27.28C114.131 27.28 114.391 27.228 114.631 27.124C114.871 27.02 115.079 26.872 115.255 26.68C115.439 26.488 115.583 26.26 115.687 25.996C115.791 25.724 115.843 25.424 115.843 25.096V24.952C115.843 24.632 115.791 24.34 115.687 24.076C115.583 23.804 115.439 23.572 115.255 23.38C115.079 23.188 114.867 23.04 114.619 22.936C114.379 22.824 114.123 22.768 113.851 22.768C113.571 22.768 113.307 22.82 113.059 22.924C112.819 23.028 112.607 23.176 112.423 23.368C112.247 23.56 112.107 23.788 112.003 24.052C111.907 24.316 111.859 24.608 111.859 24.928V25.12C111.859 25.456 111.907 25.756 112.003 26.02C112.107 26.284 112.247 26.512 112.423 26.704C112.607 26.888 112.819 27.032 113.059 27.136C113.299 27.232 113.563 27.28 113.851 27.28Z" fill="white"/>
<path d="M119.35 25.312C119.374 25.904 119.558 26.38 119.902 26.74C120.246 27.1 120.726 27.28 121.342 27.28C121.622 27.28 121.866 27.248 122.074 27.184C122.282 27.12 122.458 27.032 122.602 26.92C122.754 26.808 122.874 26.68 122.962 26.536C123.058 26.384 123.134 26.224 123.19 26.056L124.078 26.296C123.91 26.848 123.598 27.3 123.142 27.652C122.694 27.996 122.086 28.168 121.318 28.168C120.894 28.168 120.502 28.096 120.142 27.952C119.79 27.8 119.486 27.588 119.23 27.316C118.974 27.044 118.774 26.72 118.63 26.344C118.486 25.968 118.414 25.552 118.414 25.096V24.808C118.414 24.392 118.486 24.004 118.63 23.644C118.782 23.284 118.99 22.976 119.254 22.72C119.518 22.456 119.826 22.252 120.178 22.108C120.538 21.956 120.926 21.88 121.342 21.88C121.83 21.88 122.25 21.972 122.602 22.156C122.962 22.332 123.254 22.552 123.478 22.816C123.71 23.08 123.878 23.368 123.982 23.68C124.094 23.992 124.15 24.28 124.15 24.544V25.312H119.35ZM121.342 22.768C121.078 22.768 120.83 22.812 120.598 22.9C120.374 22.98 120.174 23.096 119.998 23.248C119.83 23.4 119.69 23.58 119.578 23.788C119.474 23.988 119.406 24.208 119.374 24.448H123.214C123.198 24.192 123.134 23.96 123.022 23.752C122.918 23.544 122.778 23.368 122.602 23.224C122.434 23.08 122.238 22.968 122.014 22.888C121.798 22.808 121.574 22.768 121.342 22.768Z" fill="white"/>
<path d="M130.622 27.088H130.478C130.382 27.272 130.258 27.432 130.106 27.568C129.962 27.704 129.802 27.816 129.626 27.904C129.458 27.992 129.278 28.056 129.086 28.096C128.894 28.144 128.71 28.168 128.534 28.168C128.134 28.168 127.762 28.1 127.418 27.964C127.074 27.828 126.77 27.632 126.506 27.376C126.25 27.12 126.046 26.804 125.894 26.428C125.75 26.044 125.678 25.608 125.678 25.12V24.928C125.678 24.448 125.754 24.02 125.906 23.644C126.058 23.26 126.262 22.94 126.518 22.684C126.774 22.42 127.074 22.22 127.418 22.084C127.762 21.948 128.126 21.88 128.51 21.88C128.918 21.88 129.298 21.972 129.65 22.156C130.01 22.332 130.286 22.608 130.478 22.984H130.622V19.6H131.558V28H130.622V27.088ZM128.63 27.28C128.91 27.28 129.17 27.228 129.41 27.124C129.65 27.02 129.858 26.872 130.034 26.68C130.218 26.488 130.362 26.26 130.466 25.996C130.57 25.724 130.622 25.424 130.622 25.096V24.952C130.622 24.632 130.57 24.34 130.466 24.076C130.362 23.804 130.218 23.572 130.034 23.38C129.858 23.188 129.646 23.04 129.398 22.936C129.158 22.824 128.902 22.768 128.63 22.768C128.35 22.768 128.086 22.82 127.838 22.924C127.598 23.028 127.386 23.176 127.202 23.368C127.026 23.56 126.886 23.788 126.782 24.052C126.686 24.316 126.638 24.608 126.638 24.928V25.12C126.638 25.456 126.686 25.756 126.782 26.02C126.886 26.284 127.026 26.512 127.202 26.704C127.386 26.888 127.598 27.032 127.838 27.136C128.078 27.232 128.342 27.28 128.63 27.28Z" fill="white"/>
<path d="M137.886 27.088H137.742C137.55 27.448 137.286 27.72 136.95 27.904C136.622 28.08 136.262 28.168 135.87 28.168C135.47 28.168 135.094 28.1 134.742 27.964C134.39 27.828 134.078 27.632 133.806 27.376C133.542 27.12 133.33 26.804 133.17 26.428C133.018 26.044 132.942 25.608 132.942 25.12V24.928C132.942 24.448 133.022 24.02 133.182 23.644C133.342 23.26 133.554 22.94 133.818 22.684C134.082 22.42 134.39 22.22 134.742 22.084C135.094 21.948 135.462 21.88 135.846 21.88C136.278 21.88 136.654 21.976 136.974 22.168C137.302 22.352 137.558 22.624 137.742 22.984H137.886V22.048H138.822V29.464C138.822 29.736 138.734 29.96 138.558 30.136C138.39 30.312 138.17 30.4 137.898 30.4H134.022V29.536H137.562C137.778 29.536 137.886 29.416 137.886 29.176V27.088ZM135.894 27.28C136.174 27.28 136.434 27.228 136.674 27.124C136.914 27.02 137.122 26.872 137.298 26.68C137.482 26.488 137.626 26.26 137.73 25.996C137.834 25.724 137.886 25.424 137.886 25.096V24.952C137.886 24.632 137.834 24.34 137.73 24.076C137.626 23.804 137.482 23.572 137.298 23.38C137.122 23.188 136.91 23.04 136.662 22.936C136.422 22.824 136.166 22.768 135.894 22.768C135.614 22.768 135.35 22.82 135.102 22.924C134.862 23.028 134.65 23.176 134.466 23.368C134.29 23.56 134.15 23.788 134.046 24.052C133.95 24.316 133.902 24.608 133.902 24.928V25.12C133.902 25.456 133.95 25.756 134.046 26.02C134.15 26.284 134.29 26.512 134.466 26.704C134.65 26.888 134.862 27.032 135.102 27.136C135.342 27.232 135.606 27.28 135.894 27.28Z" fill="white"/>
<path d="M141.393 25.312C141.417 25.904 141.601 26.38 141.945 26.74C142.289 27.1 142.769 27.28 143.385 27.28C143.665 27.28 143.909 27.248 144.117 27.184C144.325 27.12 144.501 27.032 144.645 26.92C144.797 26.808 144.917 26.68 145.005 26.536C145.101 26.384 145.177 26.224 145.233 26.056L146.121 26.296C145.953 26.848 145.641 27.3 145.185 27.652C144.737 27.996 144.129 28.168 143.361 28.168C142.937 28.168 142.545 28.096 142.185 27.952C141.833 27.8 141.529 27.588 141.273 27.316C141.017 27.044 140.817 26.72 140.673 26.344C140.529 25.968 140.457 25.552 140.457 25.096V24.808C140.457 24.392 140.529 24.004 140.673 23.644C140.825 23.284 141.033 22.976 141.297 22.72C141.561 22.456 141.869 22.252 142.221 22.108C142.581 21.956 142.969 21.88 143.385 21.88C143.873 21.88 144.293 21.972 144.645 22.156C145.005 22.332 145.297 22.552 145.521 22.816C145.753 23.08 145.921 23.368 146.025 23.68C146.137 23.992 146.193 24.28 146.193 24.544V25.312H141.393ZM143.385 22.768C143.121 22.768 142.873 22.812 142.641 22.9C142.417 22.98 142.217 23.096 142.041 23.248C141.873 23.4 141.733 23.58 141.621 23.788C141.517 23.988 141.449 24.208 141.417 24.448H145.257C145.241 24.192 145.177 23.96 145.065 23.752C144.961 23.544 144.821 23.368 144.645 23.224C144.477 23.08 144.281 22.968 144.057 22.888C143.841 22.808 143.617 22.768 143.385 22.768Z" fill="white"/>
<path d="M149.845 27.328C149.845 27.096 149.925 26.9 150.085 26.74C150.253 26.572 150.453 26.488 150.685 26.488C150.917 26.488 151.113 26.572 151.273 26.74C151.441 26.9 151.525 27.096 151.525 27.328C151.525 27.56 151.441 27.76 151.273 27.928C151.113 28.088 150.917 28.168 150.685 28.168C150.453 28.168 150.253 28.088 150.085 27.928C149.925 27.76 149.845 27.56 149.845 27.328Z" fill="white"/>
<path d="M159.725 26.992H159.581C159.389 27.392 159.121 27.688 158.777 27.88C158.441 28.072 158.085 28.168 157.709 28.168C157.317 28.168 156.953 28.104 156.617 27.976C156.281 27.84 155.985 27.644 155.729 27.388C155.481 27.124 155.285 26.804 155.141 26.428C154.997 26.052 154.925 25.616 154.925 25.12V24.928C154.925 24.44 154.997 24.008 155.141 23.632C155.285 23.256 155.481 22.94 155.729 22.684C155.985 22.42 156.281 22.22 156.617 22.084C156.953 21.948 157.309 21.88 157.685 21.88C158.093 21.88 158.461 21.972 158.789 22.156C159.125 22.332 159.389 22.608 159.581 22.984H159.725V22.048H160.661V26.776C160.661 27.016 160.769 27.136 160.985 27.136H161.285V28H160.649C160.377 28 160.153 27.912 159.977 27.736C159.809 27.56 159.725 27.336 159.725 27.064V26.992ZM157.805 27.28C158.085 27.28 158.341 27.228 158.573 27.124C158.813 27.02 159.017 26.872 159.185 26.68C159.353 26.488 159.485 26.26 159.581 25.996C159.677 25.724 159.725 25.424 159.725 25.096V24.952C159.725 24.632 159.677 24.34 159.581 24.076C159.485 23.804 159.349 23.572 159.173 23.38C159.005 23.188 158.801 23.04 158.561 22.936C158.329 22.824 158.077 22.768 157.805 22.768C157.525 22.768 157.269 22.82 157.037 22.924C156.805 23.028 156.601 23.176 156.425 23.368C156.257 23.552 156.125 23.78 156.029 24.052C155.933 24.316 155.885 24.608 155.885 24.928V25.12C155.885 25.8 156.061 26.332 156.413 26.716C156.773 27.092 157.237 27.28 157.805 27.28Z" fill="white"/>
<path d="M164.6 20.272C164.6 20.04 164.68 19.844 164.84 19.684C165.008 19.516 165.208 19.432 165.44 19.432C165.672 19.432 165.868 19.516 166.028 19.684C166.196 19.844 166.28 20.04 166.28 20.272C166.28 20.504 166.196 20.704 166.028 20.872C165.868 21.032 165.672 21.112 165.44 21.112C165.208 21.112 165.008 21.032 164.84 20.872C164.68 20.704 164.6 20.504 164.6 20.272ZM162.896 27.136H164.984V22.912H163.112V22.048H165.92V27.136H167.864V28H162.896V27.136Z" fill="white"/>
<path d="M172.98 20.272C172.98 20.04 173.06 19.844 173.22 19.684C173.388 19.516 173.588 19.432 173.82 19.432C174.052 19.432 174.248 19.516 174.408 19.684C174.576 19.844 174.66 20.04 174.66 20.272C174.66 20.448 174.612 20.608 174.516 20.752C174.42 20.888 174.296 20.988 174.144 21.052V22.384H173.496V21.052C173.344 20.988 173.22 20.888 173.124 20.752C173.028 20.608 172.98 20.448 172.98 20.272ZM170.796 20.272C170.796 20.04 170.876 19.844 171.036 19.684C171.204 19.516 171.404 19.432 171.636 19.432C171.868 19.432 172.064 19.516 172.224 19.684C172.392 19.844 172.476 20.04 172.476 20.272C172.476 20.448 172.428 20.608 172.332 20.752C172.236 20.888 172.112 20.988 171.96 21.052V22.384H171.312V21.052C171.16 20.988 171.036 20.888 170.94 20.752C170.844 20.608 170.796 20.448 170.796 20.272Z" fill="white"/>
<path d="M179.236 27.328C179.236 27.096 179.316 26.9 179.476 26.74C179.644 26.572 179.844 26.488 180.076 26.488C180.308 26.488 180.504 26.572 180.664 26.74C180.832 26.9 180.916 27.096 180.916 27.328V28.504C180.916 28.776 180.828 29 180.652 29.176C180.484 29.352 180.264 29.44 179.992 29.44H179.38V28.792H179.944C180.16 28.792 180.268 28.672 180.268 28.432V28.132C180.204 28.156 180.136 28.168 180.064 28.168C179.84 28.168 179.644 28.088 179.476 27.928C179.316 27.76 179.236 27.56 179.236 27.328Z" fill="white"/>
<path d="M192.143 27.136H194.303V20.464H192.215V19.6H195.239V27.136H197.399V28H192.143V27.136Z" fill="white"/>
<path d="M201.339 20.272C201.339 20.04 201.419 19.844 201.579 19.684C201.747 19.516 201.947 19.432 202.179 19.432C202.411 19.432 202.607 19.516 202.767 19.684C202.935 19.844 203.019 20.04 203.019 20.272C203.019 20.504 202.935 20.704 202.767 20.872C202.607 21.032 202.411 21.112 202.179 21.112C201.947 21.112 201.747 21.032 201.579 20.872C201.419 20.704 201.339 20.504 201.339 20.272ZM199.635 27.136H201.723V22.912H199.851V22.048H202.659V27.136H204.603V28H199.635V27.136Z" fill="white"/>
<path d="M207.774 28H206.838V22.048H207.774V23.056H207.918C208.286 22.272 208.926 21.88 209.838 21.88C210.526 21.88 211.074 22.096 211.482 22.528C211.89 22.952 212.094 23.592 212.094 24.448V28H211.158V24.64C211.158 24.016 211.018 23.548 210.738 23.236C210.458 22.924 210.078 22.768 209.598 22.768C209.03 22.768 208.582 22.964 208.254 23.356C207.934 23.74 207.774 24.256 207.774 24.904V28Z" fill="white"/>
<path d="M214.87 25.312C214.894 25.904 215.078 26.38 215.422 26.74C215.766 27.1 216.246 27.28 216.862 27.28C217.142 27.28 217.386 27.248 217.594 27.184C217.802 27.12 217.978 27.032 218.122 26.92C218.274 26.808 218.394 26.68 218.482 26.536C218.578 26.384 218.654 26.224 218.71 26.056L219.598 26.296C219.43 26.848 219.118 27.3 218.662 27.652C218.214 27.996 217.606 28.168 216.838 28.168C216.414 28.168 216.022 28.096 215.662 27.952C215.31 27.8 215.006 27.588 214.75 27.316C214.494 27.044 214.294 26.72 214.15 26.344C214.006 25.968 213.934 25.552 213.934 25.096V24.808C213.934 24.392 214.006 24.004 214.15 23.644C214.302 23.284 214.51 22.976 214.774 22.72C215.038 22.456 215.346 22.252 215.698 22.108C216.058 21.956 216.446 21.88 216.862 21.88C217.35 21.88 217.77 21.972 218.122 22.156C218.482 22.332 218.774 22.552 218.998 22.816C219.23 23.08 219.398 23.368 219.502 23.68C219.614 23.992 219.67 24.28 219.67 24.544V25.312H214.87ZM216.862 22.768C216.598 22.768 216.35 22.812 216.118 22.9C215.894 22.98 215.694 23.096 215.518 23.248C215.35 23.4 215.21 23.58 215.098 23.788C214.994 23.988 214.926 24.208 214.894 24.448H218.734C218.718 24.192 218.654 23.96 218.542 23.752C218.438 23.544 218.298 23.368 218.122 23.224C217.954 23.08 217.758 22.968 217.534 22.888C217.318 22.808 217.094 22.768 216.862 22.768Z" fill="white"/>
<path d="M231.065 27.064V20.044H230.921L229.541 23.2H228.545V23.128L230.117 19.6H232.073V27.064H234.449V28H228.689V27.064H231.065Z" fill="white"/>
<path d="M30.3866 40.04V35.6H35.6426V36.536H31.3706V39.536H31.5146C31.5946 39.376 31.6986 39.224 31.8266 39.08C31.9546 38.928 32.1026 38.796 32.2706 38.684C32.4466 38.572 32.6426 38.484 32.8586 38.42C33.0746 38.348 33.3146 38.312 33.5786 38.312C33.9626 38.312 34.3146 38.376 34.6346 38.504C34.9626 38.632 35.2426 38.812 35.4746 39.044C35.7066 39.276 35.8866 39.556 36.0146 39.884C36.1506 40.212 36.2186 40.576 36.2186 40.976V41.192C36.2186 41.592 36.1546 41.972 36.0266 42.332C35.8986 42.684 35.7106 43 35.4626 43.28C35.2146 43.552 34.9066 43.768 34.5386 43.928C34.1706 44.088 33.7466 44.168 33.2666 44.168C32.7786 44.168 32.3466 44.096 31.9706 43.952C31.5946 43.808 31.2786 43.608 31.0226 43.352C30.7666 43.096 30.5706 42.796 30.4346 42.452C30.3066 42.1 30.2426 41.72 30.2426 41.312V40.976H31.2506V41.24C31.2506 41.904 31.4346 42.404 31.8026 42.74C32.1786 43.068 32.6666 43.232 33.2666 43.232C33.5866 43.232 33.8666 43.176 34.1066 43.064C34.3546 42.944 34.5586 42.788 34.7186 42.596C34.8866 42.396 35.0106 42.168 35.0906 41.912C35.1706 41.648 35.2106 41.376 35.2106 41.096V41.024C35.2106 40.776 35.1666 40.544 35.0786 40.328C34.9986 40.112 34.8826 39.924 34.7306 39.764C34.5866 39.604 34.4066 39.48 34.1906 39.392C33.9826 39.296 33.7546 39.248 33.5066 39.248C33.3386 39.248 33.1826 39.272 33.0386 39.32C32.9026 39.368 32.7826 39.432 32.6786 39.512C32.5746 39.584 32.4866 39.668 32.4146 39.764C32.3506 39.86 32.3066 39.952 32.2826 40.04H30.3866Z" fill="white"/>
<path d="M37.5182 38.864C37.5182 37.776 37.7782 36.932 38.2982 36.332C38.8182 35.732 39.5422 35.432 40.4702 35.432C41.3982 35.432 42.1222 35.732 42.6422 36.332C43.1622 36.932 43.4222 37.776 43.4222 38.864V40.736C43.4222 41.856 43.1622 42.708 42.6422 43.292C42.1222 43.876 41.3982 44.168 40.4702 44.168C39.5422 44.168 38.8182 43.876 38.2982 43.292C37.7782 42.708 37.5182 41.856 37.5182 40.736V38.864ZM40.4702 43.256C41.1182 43.256 41.6022 43.032 41.9222 42.584C42.2502 42.128 42.4142 41.488 42.4142 40.664V38.936C42.4142 38.552 42.3742 38.204 42.2942 37.892C42.2142 37.572 42.0902 37.3 41.9222 37.076C41.7622 36.844 41.5582 36.664 41.3102 36.536C41.0702 36.408 40.7902 36.344 40.4702 36.344C40.1422 36.344 39.8582 36.408 39.6182 36.536C39.3782 36.664 39.1742 36.844 39.0062 37.076C38.8462 37.3 38.7262 37.572 38.6462 37.892C38.5662 38.204 38.5262 38.552 38.5262 38.936V40.664C38.5262 41.488 38.6862 42.128 39.0062 42.584C39.3342 43.032 39.8222 43.256 40.4702 43.256ZM39.7022 39.8C39.7022 39.592 39.7782 39.412 39.9302 39.26C40.0822 39.108 40.2622 39.032 40.4702 39.032C40.6782 39.032 40.8582 39.108 41.0102 39.26C41.1622 39.412 41.2382 39.592 41.2382 39.8C41.2382 40.008 41.1622 40.188 41.0102 40.34C40.8582 40.492 40.6782 40.568 40.4702 40.568C40.2622 40.568 40.0822 40.492 39.9302 40.34C39.7782 40.188 39.7022 40.008 39.7022 39.8Z" fill="white"/>
<path d="M44.8659 38.864C44.8659 37.776 45.1259 36.932 45.6459 36.332C46.1659 35.732 46.8899 35.432 47.8179 35.432C48.7459 35.432 49.4699 35.732 49.9899 36.332C50.5099 36.932 50.7699 37.776 50.7699 38.864V40.736C50.7699 41.856 50.5099 42.708 49.9899 43.292C49.4699 43.876 48.7459 44.168 47.8179 44.168C46.8899 44.168 46.1659 43.876 45.6459 43.292C45.1259 42.708 44.8659 41.856 44.8659 40.736V38.864ZM47.8179 43.256C48.4659 43.256 48.9499 43.032 49.2699 42.584C49.5979 42.128 49.7619 41.488 49.7619 40.664V38.936C49.7619 38.552 49.7219 38.204 49.6419 37.892C49.5619 37.572 49.4379 37.3 49.2699 37.076C49.1099 36.844 48.9059 36.664 48.6579 36.536C48.4179 36.408 48.1379 36.344 47.8179 36.344C47.4899 36.344 47.2059 36.408 46.9659 36.536C46.7259 36.664 46.5219 36.844 46.3539 37.076C46.1939 37.3 46.0739 37.572 45.9939 37.892C45.9139 38.204 45.8739 38.552 45.8739 38.936V40.664C45.8739 41.488 46.0339 42.128 46.3539 42.584C46.6819 43.032 47.1699 43.256 47.8179 43.256ZM47.0499 39.8C47.0499 39.592 47.1259 39.412 47.2779 39.26C47.4299 39.108 47.6099 39.032 47.8179 39.032C48.0259 39.032 48.2059 39.108 48.3579 39.26C48.5099 39.412 48.5859 39.592 48.5859 39.8C48.5859 40.008 48.5099 40.188 48.3579 40.34C48.2059 40.492 48.0259 40.568 47.8179 40.568C47.6099 40.568 47.4299 40.492 47.2779 40.34C47.1259 40.188 47.0499 40.008 47.0499 39.8Z" fill="white"/>
<path d="M60.5692 41.312C60.5932 41.904 60.7772 42.38 61.1212 42.74C61.4652 43.1 61.9452 43.28 62.5612 43.28C62.8412 43.28 63.0852 43.248 63.2932 43.184C63.5012 43.12 63.6772 43.032 63.8212 42.92C63.9732 42.808 64.0932 42.68 64.1812 42.536C64.2772 42.384 64.3532 42.224 64.4092 42.056L65.2972 42.296C65.1292 42.848 64.8172 43.3 64.3612 43.652C63.9132 43.996 63.3052 44.168 62.5372 44.168C62.1132 44.168 61.7212 44.096 61.3612 43.952C61.0092 43.8 60.7052 43.588 60.4492 43.316C60.1932 43.044 59.9932 42.72 59.8492 42.344C59.7052 41.968 59.6332 41.552 59.6332 41.096V40.808C59.6332 40.392 59.7052 40.004 59.8492 39.644C60.0012 39.284 60.2092 38.976 60.4732 38.72C60.7372 38.456 61.0452 38.252 61.3972 38.108C61.7572 37.956 62.1452 37.88 62.5612 37.88C63.0492 37.88 63.4692 37.972 63.8212 38.156C64.1812 38.332 64.4732 38.552 64.6972 38.816C64.9292 39.08 65.0972 39.368 65.2012 39.68C65.3132 39.992 65.3692 40.28 65.3692 40.544V41.312H60.5692ZM62.5612 38.768C62.2972 38.768 62.0492 38.812 61.8172 38.9C61.5932 38.98 61.3932 39.096 61.2172 39.248C61.0492 39.4 60.9092 39.58 60.7972 39.788C60.6932 39.988 60.6252 40.208 60.5932 40.448H64.4332C64.4172 40.192 64.3532 39.96 64.2412 39.752C64.1372 39.544 63.9972 39.368 63.8212 39.224C63.6532 39.08 63.4572 38.968 63.2332 38.888C63.0172 38.808 62.7932 38.768 62.5612 38.768Z" fill="white"/>
<path d="M66.8969 38.048H69.0569V38.84H69.2009C69.3529 38.512 69.5689 38.272 69.8489 38.12C70.1289 37.96 70.4489 37.88 70.8089 37.88C71.4089 37.88 71.8929 38.076 72.2609 38.468C72.6289 38.86 72.8249 39.432 72.8489 40.184L71.8649 40.328C71.8649 39.776 71.7329 39.38 71.4689 39.14C71.2049 38.892 70.8809 38.768 70.4969 38.768C70.2489 38.768 70.0329 38.816 69.8489 38.912C69.6729 39.008 69.5249 39.14 69.4049 39.308C69.2849 39.476 69.1969 39.672 69.1409 39.896C69.0849 40.12 69.0569 40.36 69.0569 40.616V43.136H70.5689V44H66.7529V43.136H68.1209V38.912H66.8969V38.048Z" fill="white"/>
<path d="M74.2445 38.048H76.4045V38.84H76.5485C76.7005 38.512 76.9165 38.272 77.1965 38.12C77.4765 37.96 77.7965 37.88 78.1565 37.88C78.7565 37.88 79.2405 38.076 79.6085 38.468C79.9765 38.86 80.1725 39.432 80.1965 40.184L79.2125 40.328C79.2125 39.776 79.0805 39.38 78.8165 39.14C78.5525 38.892 78.2285 38.768 77.8445 38.768C77.5965 38.768 77.3805 38.816 77.1965 38.912C77.0205 39.008 76.8725 39.14 76.7525 39.308C76.6325 39.476 76.5445 39.672 76.4885 39.896C76.4325 40.12 76.4045 40.36 76.4045 40.616V43.136H77.9165V44H74.1005V43.136H75.4685V38.912H74.2445V38.048Z" fill="white"/>
<path d="M87.5442 41.096C87.5442 41.592 87.4602 42.032 87.2922 42.416C87.1322 42.792 86.9162 43.112 86.6442 43.376C86.3722 43.632 86.0522 43.828 85.6842 43.964C85.3242 44.1 84.9482 44.168 84.5562 44.168C84.1562 44.168 83.7762 44.1 83.4162 43.964C83.0562 43.828 82.7402 43.632 82.4682 43.376C82.1962 43.112 81.9762 42.792 81.8082 42.416C81.6482 42.032 81.5682 41.592 81.5682 41.096V40.952C81.5682 40.464 81.6482 40.032 81.8082 39.656C81.9762 39.272 82.1962 38.948 82.4682 38.684C82.7482 38.42 83.0682 38.22 83.4282 38.084C83.7882 37.948 84.1642 37.88 84.5562 37.88C84.9482 37.88 85.3242 37.948 85.6842 38.084C86.0442 38.22 86.3602 38.42 86.6322 38.684C86.9122 38.948 87.1322 39.272 87.2922 39.656C87.4602 40.032 87.5442 40.464 87.5442 40.952V41.096ZM84.5562 43.28C84.8442 43.28 85.1082 43.232 85.3482 43.136C85.5962 43.032 85.8122 42.884 85.9962 42.692C86.1802 42.5 86.3242 42.272 86.4282 42.008C86.5322 41.736 86.5842 41.432 86.5842 41.096V40.952C86.5842 40.632 86.5322 40.34 86.4282 40.076C86.3242 39.804 86.1802 39.572 85.9962 39.38C85.8122 39.188 85.5962 39.04 85.3482 38.936C85.1002 38.824 84.8362 38.768 84.5562 38.768C84.2762 38.768 84.0122 38.824 83.7642 38.936C83.5162 39.04 83.3002 39.188 83.1162 39.38C82.9322 39.572 82.7882 39.804 82.6842 40.076C82.5802 40.34 82.5282 40.632 82.5282 40.952V41.096C82.5282 41.432 82.5802 41.736 82.6842 42.008C82.7882 42.272 82.9322 42.5 83.1162 42.692C83.3002 42.884 83.5122 43.032 83.7522 43.136C84.0002 43.232 84.2682 43.28 84.5562 43.28Z" fill="white"/>
<path d="M88.9398 38.048H91.0998V38.84H91.2438C91.3958 38.512 91.6118 38.272 91.8918 38.12C92.1718 37.96 92.4918 37.88 92.8518 37.88C93.4518 37.88 93.9358 38.076 94.3038 38.468C94.6718 38.86 94.8678 39.432 94.8918 40.184L93.9078 40.328C93.9078 39.776 93.7758 39.38 93.5118 39.14C93.2478 38.892 92.9238 38.768 92.5398 38.768C92.2918 38.768 92.0758 38.816 91.8918 38.912C91.7158 39.008 91.5678 39.14 91.4478 39.308C91.3278 39.476 91.2398 39.672 91.1838 39.896C91.1278 40.12 91.0998 40.36 91.0998 40.616V43.136H92.6118V44H88.7958V43.136H90.1638V38.912H88.9398V38.048Z" fill="white"/>
<path d="M80.0165 54.912H78.9125L77.2805 51.96H77.1365L75.5045 54.912H74.4005L76.2965 51.6H78.1205L80.0165 54.912Z" fill="white"/>
<path d="M5.7121 70.024C5.7121 69.752 5.6561 69.512 5.5441 69.304C5.4401 69.096 5.2961 68.924 5.1121 68.788C4.9281 68.652 4.7161 68.548 4.4761 68.476C4.2361 68.404 3.9841 68.368 3.7201 68.368C3.4881 68.368 3.2681 68.4 3.0601 68.464C2.8521 68.52 2.6641 68.604 2.4961 68.716C2.3361 68.828 2.2081 68.968 2.1121 69.136C2.0161 69.296 1.9681 69.484 1.9681 69.7V69.772C1.9681 70.004 2.0161 70.204 2.1121 70.372C2.2081 70.532 2.3481 70.672 2.5321 70.792C2.7241 70.904 2.9601 71 3.2401 71.08C3.5201 71.152 3.8481 71.216 4.2241 71.272C5.1041 71.408 5.7521 71.668 6.1681 72.052C6.5841 72.428 6.7921 72.936 6.7921 73.576V73.72C6.7921 74.08 6.7281 74.412 6.6001 74.716C6.4801 75.012 6.2961 75.268 6.0481 75.484C5.8081 75.7 5.5081 75.868 5.1481 75.988C4.7881 76.108 4.3721 76.168 3.9001 76.168C3.3641 76.168 2.8881 76.092 2.4721 75.94C2.0641 75.78 1.7201 75.564 1.4401 75.292C1.1681 75.012 0.960098 74.688 0.816098 74.32C0.672098 73.944 0.600098 73.536 0.600098 73.096V72.736H1.6081V73.024C1.6081 73.76 1.8081 74.312 2.2081 74.68C2.6161 75.048 3.1801 75.232 3.9001 75.232C4.5241 75.232 4.9921 75.096 5.3041 74.824C5.6241 74.544 5.7841 74.176 5.7841 73.72V73.648C5.7841 73.208 5.6201 72.872 5.2921 72.64C4.9721 72.408 4.4481 72.24 3.7201 72.136C3.2961 72.08 2.9121 71.996 2.5681 71.884C2.2321 71.764 1.9441 71.612 1.7041 71.428C1.4641 71.236 1.2801 71.008 1.1521 70.744C1.0241 70.48 0.960098 70.168 0.960098 69.808V69.664C0.960098 69.336 1.0281 69.036 1.1641 68.764C1.3001 68.492 1.4881 68.256 1.7281 68.056C1.9761 67.856 2.2681 67.704 2.6041 67.6C2.9481 67.488 3.3241 67.432 3.7321 67.432C4.2041 67.432 4.6241 67.5 4.9921 67.636C5.3681 67.772 5.6841 67.956 5.9401 68.188C6.1961 68.412 6.3881 68.68 6.5161 68.992C6.6521 69.296 6.7201 69.616 6.7201 69.952V70.456H5.7121V70.024Z" fill="#FA2162"/>
<path d="M12.7718 74.92H12.6278C12.4358 75.304 12.1838 75.608 11.8718 75.832C11.5598 76.056 11.1638 76.168 10.6838 76.168C10.3558 76.168 10.0518 76.112 9.77175 76C9.49975 75.896 9.26375 75.736 9.06375 75.52C8.87175 75.304 8.71975 75.036 8.60775 74.716C8.50375 74.396 8.45175 74.024 8.45175 73.6V70.048H9.38775V73.48C9.38775 74.104 9.51575 74.56 9.77175 74.848C10.0278 75.136 10.4198 75.28 10.9478 75.28C11.5158 75.28 11.9598 75.088 12.2798 74.704C12.6078 74.312 12.7718 73.792 12.7718 73.144V70.048H13.7078V77.464C13.7078 77.736 13.6198 77.96 13.4438 78.136C13.2758 78.312 13.0558 78.4 12.7838 78.4H9.38775V77.536H12.4478C12.6638 77.536 12.7718 77.416 12.7718 77.176V74.92Z" fill="#FA2162"/>
<path d="M16.7354 76H15.7994V70.048H16.7354V71.056H16.8794C17.2474 70.272 17.8874 69.88 18.7994 69.88C19.4874 69.88 20.0354 70.096 20.4434 70.528C20.8514 70.952 21.0554 71.592 21.0554 72.448V76H20.1194V72.64C20.1194 72.016 19.9794 71.548 19.6994 71.236C19.4194 70.924 19.0394 70.768 18.5594 70.768C17.9914 70.768 17.5434 70.964 17.2154 71.356C16.8954 71.74 16.7354 72.256 16.7354 72.904V76Z" fill="#FA2162"/>
<path d="M22.9431 70.048H24.8151V67.6H25.7511V70.048H28.0551V70.912H25.7511V74.776C25.7511 75.016 25.8591 75.136 26.0751 75.136H27.7671V76H25.7391C25.4671 76 25.2431 75.912 25.0671 75.736C24.8991 75.56 24.8151 75.336 24.8151 75.064V70.912H22.9431V70.048Z" fill="#FA2162"/>
<path d="M34.8147 74.992H34.6707C34.4787 75.392 34.2107 75.688 33.8667 75.88C33.5307 76.072 33.1747 76.168 32.7987 76.168C32.4067 76.168 32.0427 76.104 31.7067 75.976C31.3707 75.84 31.0747 75.644 30.8187 75.388C30.5707 75.124 30.3747 74.804 30.2307 74.428C30.0867 74.052 30.0147 73.616 30.0147 73.12V72.928C30.0147 72.44 30.0867 72.008 30.2307 71.632C30.3747 71.256 30.5707 70.94 30.8187 70.684C31.0747 70.42 31.3707 70.22 31.7067 70.084C32.0427 69.948 32.3987 69.88 32.7747 69.88C33.1827 69.88 33.5507 69.972 33.8787 70.156C34.2147 70.332 34.4787 70.608 34.6707 70.984H34.8147V70.048H35.7507V74.776C35.7507 75.016 35.8587 75.136 36.0747 75.136H36.3747V76H35.7387C35.4667 76 35.2427 75.912 35.0667 75.736C34.8987 75.56 34.8147 75.336 34.8147 75.064V74.992ZM32.8947 75.28C33.1747 75.28 33.4307 75.228 33.6627 75.124C33.9027 75.02 34.1067 74.872 34.2747 74.68C34.4427 74.488 34.5747 74.26 34.6707 73.996C34.7667 73.724 34.8147 73.424 34.8147 73.096V72.952C34.8147 72.632 34.7667 72.34 34.6707 72.076C34.5747 71.804 34.4387 71.572 34.2627 71.38C34.0947 71.188 33.8907 71.04 33.6507 70.936C33.4187 70.824 33.1667 70.768 32.8947 70.768C32.6147 70.768 32.3587 70.82 32.1267 70.924C31.8947 71.028 31.6907 71.176 31.5147 71.368C31.3467 71.552 31.2147 71.78 31.1187 72.052C31.0227 72.316 30.9747 72.608 30.9747 72.928V73.12C30.9747 73.8 31.1507 74.332 31.5027 74.716C31.8627 75.092 32.3267 75.28 32.8947 75.28Z" fill="#FA2162"/>
<path d="M42.0784 70.048H43.1464L41.3944 72.88V73.024L43.2904 76H42.1984L40.5784 73.384H40.3624L38.7424 76H37.6504L39.5464 73.024V72.88L37.7944 70.048H38.8624L40.3624 72.52H40.5784L42.0784 70.048Z" fill="#FA2162"/>
<path d="M45.274 67.6H50.362V68.536H46.282V71.32H50.29V72.256H46.282V75.064H50.434V76H45.274V67.6Z" fill="#FA2162"/>
<path d="M52.2017 70.048H54.3617V70.84H54.5057C54.6577 70.512 54.8737 70.272 55.1537 70.12C55.4337 69.96 55.7537 69.88 56.1137 69.88C56.7137 69.88 57.1977 70.076 57.5657 70.468C57.9337 70.86 58.1297 71.432 58.1537 72.184L57.1697 72.328C57.1697 71.776 57.0377 71.38 56.7737 71.14C56.5097 70.892 56.1857 70.768 55.8017 70.768C55.5537 70.768 55.3377 70.816 55.1537 70.912C54.9777 71.008 54.8297 71.14 54.7097 71.308C54.5897 71.476 54.5017 71.672 54.4457 71.896C54.3897 72.12 54.3617 72.36 54.3617 72.616V75.136H55.8737V76H52.0577V75.136H53.4257V70.912H52.2017V70.048Z" fill="#FA2162"/>
<path d="M59.5493 70.048H61.7093V70.84H61.8533C62.0053 70.512 62.2213 70.272 62.5013 70.12C62.7813 69.96 63.1013 69.88 63.4613 69.88C64.0613 69.88 64.5453 70.076 64.9133 70.468C65.2813 70.86 65.4774 71.432 65.5014 72.184L64.5173 72.328C64.5173 71.776 64.3853 71.38 64.1213 71.14C63.8573 70.892 63.5333 70.768 63.1493 70.768C62.9013 70.768 62.6853 70.816 62.5013 70.912C62.3253 71.008 62.1773 71.14 62.0573 71.308C61.9373 71.476 61.8493 71.672 61.7933 71.896C61.7373 72.12 61.7093 72.36 61.7093 72.616V75.136H63.2213V76H59.4053V75.136H60.7733V70.912H59.5493V70.048Z" fill="#FA2162"/>
<path d="M72.849 73.096C72.849 73.592 72.765 74.032 72.597 74.416C72.437 74.792 72.221 75.112 71.949 75.376C71.677 75.632 71.357 75.828 70.989 75.964C70.629 76.1 70.253 76.168 69.861 76.168C69.461 76.168 69.081 76.1 68.721 75.964C68.361 75.828 68.045 75.632 67.773 75.376C67.501 75.112 67.281 74.792 67.113 74.416C66.953 74.032 66.873 73.592 66.873 73.096V72.952C66.873 72.464 66.953 72.032 67.113 71.656C67.281 71.272 67.501 70.948 67.773 70.684C68.053 70.42 68.373 70.22 68.733 70.084C69.093 69.948 69.469 69.88 69.861 69.88C70.253 69.88 70.629 69.948 70.989 70.084C71.349 70.22 71.665 70.42 71.937 70.684C72.217 70.948 72.437 71.272 72.597 71.656C72.765 72.032 72.849 72.464 72.849 72.952V73.096ZM69.861 75.28C70.149 75.28 70.413 75.232 70.653 75.136C70.901 75.032 71.117 74.884 71.301 74.692C71.485 74.5 71.629 74.272 71.733 74.008C71.837 73.736 71.889 73.432 71.889 73.096V72.952C71.889 72.632 71.837 72.34 71.733 72.076C71.629 71.804 71.485 71.572 71.301 71.38C71.117 71.188 70.901 71.04 70.653 70.936C70.405 70.824 70.141 70.768 69.861 70.768C69.581 70.768 69.317 70.824 69.069 70.936C68.821 71.04 68.605 71.188 68.421 71.38C68.237 71.572 68.093 71.804 67.989 72.076C67.885 72.34 67.833 72.632 67.833 72.952V73.096C67.833 73.432 67.885 73.736 67.989 74.008C68.093 74.272 68.237 74.5 68.421 74.692C68.605 74.884 68.817 75.032 69.057 75.136C69.305 75.232 69.573 75.28 69.861 75.28Z" fill="#FA2162"/>
<path d="M74.2447 70.048H76.4047V70.84H76.5487C76.7007 70.512 76.9167 70.272 77.1967 70.12C77.4767 69.96 77.7967 69.88 78.1567 69.88C78.7567 69.88 79.2407 70.076 79.6087 70.468C79.9767 70.86 80.1727 71.432 80.1967 72.184L79.2127 72.328C79.2127 71.776 79.0807 71.38 78.8167 71.14C78.5527 70.892 78.2287 70.768 77.8447 70.768C77.5967 70.768 77.3807 70.816 77.1967 70.912C77.0207 71.008 76.8727 71.14 76.7527 71.308C76.6327 71.476 76.5447 71.672 76.4887 71.896C76.4327 72.12 76.4047 72.36 76.4047 72.616V75.136H77.9167V76H74.1007V75.136H75.4687V70.912H74.2447V70.048Z" fill="#FA2162"/>
<path d="M83.7163 75.328C83.7163 75.096 83.7963 74.9 83.9563 74.74C84.1243 74.572 84.3243 74.488 84.5563 74.488C84.7883 74.488 84.9843 74.572 85.1443 74.74C85.3123 74.9 85.3963 75.096 85.3963 75.328C85.3963 75.56 85.3123 75.76 85.1443 75.928C84.9843 76.088 84.7883 76.168 84.5563 76.168C84.3243 76.168 84.1243 76.088 83.9563 75.928C83.7963 75.76 83.7163 75.56 83.7163 75.328ZM83.7163 70.72C83.7163 70.488 83.7963 70.292 83.9563 70.132C84.1243 69.964 84.3243 69.88 84.5563 69.88C84.7883 69.88 84.9843 69.964 85.1443 70.132C85.3123 70.292 85.3963 70.488 85.3963 70.72C85.3963 70.952 85.3123 71.152 85.1443 71.32C84.9843 71.48 84.7883 71.56 84.5563 71.56C84.3243 71.56 84.1243 71.48 83.9563 71.32C83.7963 71.152 83.7163 70.952 83.7163 70.72Z" fill="white"/>
<path d="M98.4716 68.272C98.4716 68.04 98.5516 67.844 98.7116 67.684C98.8796 67.516 99.0796 67.432 99.3116 67.432C99.5436 67.432 99.7396 67.516 99.8996 67.684C100.068 67.844 100.152 68.04 100.152 68.272C100.152 68.504 100.068 68.704 99.8996 68.872C99.7396 69.032 99.5436 69.112 99.3116 69.112C99.0796 69.112 98.8796 69.032 98.7116 68.872C98.5516 68.704 98.4716 68.504 98.4716 68.272ZM96.7676 75.136H98.8556V70.912H96.9836V70.048H99.7916V75.136H101.736V76H96.7676V75.136Z" fill="white"/>
<path d="M104.907 76H103.971V70.048H104.907V71.056H105.051C105.419 70.272 106.059 69.88 106.971 69.88C107.659 69.88 108.207 70.096 108.615 70.528C109.023 70.952 109.227 71.592 109.227 72.448V76H108.291V72.64C108.291 72.016 108.151 71.548 107.871 71.236C107.591 70.924 107.211 70.768 106.731 70.768C106.163 70.768 105.715 70.964 105.387 71.356C105.067 71.74 104.907 72.256 104.907 72.904V76Z" fill="white"/>
<path d="M111.115 70.048H112.987V67.6H113.923V70.048H116.227V70.912H113.923V74.776C113.923 75.016 114.031 75.136 114.247 75.136H115.939V76H113.911C113.639 76 113.415 75.912 113.239 75.736C113.071 75.56 112.987 75.336 112.987 75.064V70.912H111.115V70.048Z" fill="white"/>
<path d="M119.351 73.312C119.375 73.904 119.559 74.38 119.903 74.74C120.247 75.1 120.727 75.28 121.343 75.28C121.623 75.28 121.867 75.248 122.075 75.184C122.283 75.12 122.459 75.032 122.603 74.92C122.755 74.808 122.875 74.68 122.963 74.536C123.059 74.384 123.135 74.224 123.191 74.056L124.079 74.296C123.911 74.848 123.599 75.3 123.143 75.652C122.695 75.996 122.087 76.168 121.319 76.168C120.895 76.168 120.503 76.096 120.143 75.952C119.791 75.8 119.487 75.588 119.231 75.316C118.975 75.044 118.775 74.72 118.631 74.344C118.487 73.968 118.415 73.552 118.415 73.096V72.808C118.415 72.392 118.487 72.004 118.631 71.644C118.783 71.284 118.991 70.976 119.255 70.72C119.519 70.456 119.827 70.252 120.179 70.108C120.539 69.956 120.927 69.88 121.343 69.88C121.831 69.88 122.251 69.972 122.603 70.156C122.963 70.332 123.255 70.552 123.479 70.816C123.711 71.08 123.879 71.368 123.983 71.68C124.095 71.992 124.151 72.28 124.151 72.544V73.312H119.351ZM121.343 70.768C121.079 70.768 120.831 70.812 120.599 70.9C120.375 70.98 120.175 71.096 119.999 71.248C119.831 71.4 119.691 71.58 119.579 71.788C119.475 71.988 119.407 72.208 119.375 72.448H123.215C123.199 72.192 123.135 71.96 123.023 71.752C122.919 71.544 122.779 71.368 122.603 71.224C122.435 71.08 122.239 70.968 122.015 70.888C121.799 70.808 121.575 70.768 121.343 70.768Z" fill="white"/>
<path d="M125.678 70.048H127.838V70.84H127.982C128.134 70.512 128.35 70.272 128.63 70.12C128.91 69.96 129.23 69.88 129.59 69.88C130.19 69.88 130.674 70.076 131.042 70.468C131.41 70.86 131.606 71.432 131.63 72.184L130.646 72.328C130.646 71.776 130.514 71.38 130.25 71.14C129.986 70.892 129.662 70.768 129.278 70.768C129.03 70.768 128.814 70.816 128.63 70.912C128.454 71.008 128.306 71.14 128.186 71.308C128.066 71.476 127.978 71.672 127.922 71.896C127.866 72.12 127.838 72.36 127.838 72.616V75.136H129.35V76H125.534V75.136H126.902V70.912H125.678V70.048Z" fill="white"/>
<path d="M134.298 76H133.362V70.048H134.298V71.056H134.442C134.81 70.272 135.45 69.88 136.362 69.88C137.05 69.88 137.598 70.096 138.006 70.528C138.414 70.952 138.618 71.592 138.618 72.448V76H137.682V72.64C137.682 72.016 137.542 71.548 137.262 71.236C136.982 70.924 136.602 70.768 136.122 70.768C135.554 70.768 135.106 70.964 134.778 71.356C134.458 71.74 134.298 72.256 134.298 72.904V76Z" fill="white"/>
<path d="M145.03 74.992H144.886C144.694 75.392 144.426 75.688 144.082 75.88C143.746 76.072 143.39 76.168 143.014 76.168C142.622 76.168 142.258 76.104 141.922 75.976C141.586 75.84 141.29 75.644 141.034 75.388C140.786 75.124 140.59 74.804 140.446 74.428C140.302 74.052 140.23 73.616 140.23 73.12V72.928C140.23 72.44 140.302 72.008 140.446 71.632C140.59 71.256 140.786 70.94 141.034 70.684C141.29 70.42 141.586 70.22 141.922 70.084C142.258 69.948 142.614 69.88 142.99 69.88C143.398 69.88 143.766 69.972 144.094 70.156C144.43 70.332 144.694 70.608 144.886 70.984H145.03V70.048H145.966V74.776C145.966 75.016 146.074 75.136 146.29 75.136H146.59V76H145.954C145.682 76 145.458 75.912 145.282 75.736C145.114 75.56 145.03 75.336 145.03 75.064V74.992ZM143.11 75.28C143.39 75.28 143.646 75.228 143.878 75.124C144.118 75.02 144.322 74.872 144.49 74.68C144.658 74.488 144.79 74.26 144.886 73.996C144.982 73.724 145.03 73.424 145.03 73.096V72.952C145.03 72.632 144.982 72.34 144.886 72.076C144.79 71.804 144.654 71.572 144.478 71.38C144.31 71.188 144.106 71.04 143.866 70.936C143.634 70.824 143.382 70.768 143.11 70.768C142.83 70.768 142.574 70.82 142.342 70.924C142.11 71.028 141.906 71.176 141.73 71.368C141.562 71.552 141.43 71.78 141.334 72.052C141.238 72.316 141.19 72.608 141.19 72.928V73.12C141.19 73.8 141.366 74.332 141.718 74.716C142.078 75.092 142.542 75.28 143.11 75.28Z" fill="white"/>
<path d="M148.057 75.136H150.217V68.464H148.129V67.6H151.153V75.136H153.313V76H148.057V75.136Z" fill="white"/>
<path d="M163.989 71.584C163.989 71.872 164.109 72.092 164.349 72.244C164.597 72.396 165.045 72.496 165.693 72.544C166.389 72.6 166.917 72.768 167.277 73.048C167.645 73.32 167.829 73.72 167.829 74.248V74.32C167.829 74.608 167.769 74.868 167.649 75.1C167.537 75.324 167.377 75.516 167.169 75.676C166.969 75.836 166.721 75.956 166.425 76.036C166.137 76.124 165.821 76.168 165.477 76.168C165.013 76.168 164.613 76.108 164.277 75.988C163.949 75.86 163.673 75.696 163.449 75.496C163.233 75.288 163.069 75.056 162.957 74.8C162.845 74.536 162.781 74.272 162.765 74.008L163.653 73.792C163.693 74.248 163.869 74.616 164.181 74.896C164.493 75.168 164.909 75.304 165.429 75.304C165.869 75.304 166.221 75.22 166.485 75.052C166.757 74.876 166.893 74.632 166.893 74.32C166.893 73.984 166.761 73.744 166.497 73.6C166.233 73.456 165.805 73.364 165.213 73.324C164.525 73.276 163.997 73.116 163.629 72.844C163.261 72.572 163.077 72.176 163.077 71.656V71.584C163.077 71.304 163.137 71.06 163.257 70.852C163.377 70.636 163.537 70.456 163.737 70.312C163.945 70.168 164.177 70.06 164.433 69.988C164.689 69.916 164.957 69.88 165.237 69.88C165.629 69.88 165.973 69.936 166.269 70.048C166.565 70.152 166.813 70.292 167.013 70.468C167.213 70.636 167.365 70.832 167.469 71.056C167.581 71.28 167.653 71.504 167.685 71.728L166.797 71.944C166.757 71.56 166.601 71.26 166.329 71.044C166.065 70.828 165.717 70.72 165.285 70.72C165.117 70.72 164.953 70.74 164.793 70.78C164.641 70.812 164.505 70.864 164.385 70.936C164.265 71.008 164.169 71.1 164.097 71.212C164.025 71.316 163.989 71.44 163.989 71.584Z" fill="white"/>
<path d="M170.784 73.312C170.808 73.904 170.992 74.38 171.336 74.74C171.68 75.1 172.16 75.28 172.776 75.28C173.056 75.28 173.3 75.248 173.508 75.184C173.716 75.12 173.892 75.032 174.036 74.92C174.188 74.808 174.308 74.68 174.396 74.536C174.492 74.384 174.568 74.224 174.624 74.056L175.512 74.296C175.344 74.848 175.032 75.3 174.576 75.652C174.128 75.996 173.52 76.168 172.752 76.168C172.328 76.168 171.936 76.096 171.576 75.952C171.224 75.8 170.92 75.588 170.664 75.316C170.408 75.044 170.208 74.72 170.064 74.344C169.92 73.968 169.848 73.552 169.848 73.096V72.808C169.848 72.392 169.92 72.004 170.064 71.644C170.216 71.284 170.424 70.976 170.688 70.72C170.952 70.456 171.26 70.252 171.612 70.108C171.972 69.956 172.36 69.88 172.776 69.88C173.264 69.88 173.684 69.972 174.036 70.156C174.396 70.332 174.688 70.552 174.912 70.816C175.144 71.08 175.312 71.368 175.416 71.68C175.528 71.992 175.584 72.28 175.584 72.544V73.312H170.784ZM172.776 70.768C172.512 70.768 172.264 70.812 172.032 70.9C171.808 70.98 171.608 71.096 171.432 71.248C171.264 71.4 171.124 71.58 171.012 71.788C170.908 71.988 170.84 72.208 170.808 72.448H174.648C174.632 72.192 174.568 71.96 174.456 71.752C174.352 71.544 174.212 71.368 174.036 71.224C173.868 71.08 173.672 70.968 173.448 70.888C173.232 70.808 173.008 70.768 172.776 70.768Z" fill="white"/>
<path d="M177.112 70.048H179.272V70.84H179.416C179.568 70.512 179.784 70.272 180.064 70.12C180.344 69.96 180.664 69.88 181.024 69.88C181.624 69.88 182.108 70.076 182.476 70.468C182.844 70.86 183.04 71.432 183.064 72.184L182.08 72.328C182.08 71.776 181.948 71.38 181.684 71.14C181.42 70.892 181.096 70.768 180.712 70.768C180.464 70.768 180.248 70.816 180.064 70.912C179.888 71.008 179.74 71.14 179.62 71.308C179.5 71.476 179.412 71.672 179.356 71.896C179.3 72.12 179.272 72.36 179.272 72.616V75.136H180.784V76H176.968V75.136H178.336V70.912H177.112V70.048Z" fill="white"/>
<path d="M188.336 76H186.488L184.412 70.048H185.516L187.34 75.568H187.483L189.308 70.048H190.412L188.336 76Z" fill="white"/>
<path d="M192.827 73.312C192.851 73.904 193.035 74.38 193.379 74.74C193.723 75.1 194.203 75.28 194.819 75.28C195.099 75.28 195.343 75.248 195.551 75.184C195.759 75.12 195.935 75.032 196.079 74.92C196.231 74.808 196.351 74.68 196.439 74.536C196.535 74.384 196.611 74.224 196.667 74.056L197.555 74.296C197.387 74.848 197.075 75.3 196.619 75.652C196.171 75.996 195.563 76.168 194.795 76.168C194.371 76.168 193.979 76.096 193.619 75.952C193.267 75.8 192.963 75.588 192.707 75.316C192.451 75.044 192.251 74.72 192.107 74.344C191.963 73.968 191.891 73.552 191.891 73.096V72.808C191.891 72.392 191.963 72.004 192.107 71.644C192.259 71.284 192.467 70.976 192.731 70.72C192.995 70.456 193.303 70.252 193.655 70.108C194.015 69.956 194.403 69.88 194.819 69.88C195.307 69.88 195.727 69.972 196.079 70.156C196.439 70.332 196.731 70.552 196.955 70.816C197.187 71.08 197.355 71.368 197.459 71.68C197.571 71.992 197.627 72.28 197.627 72.544V73.312H192.827ZM194.819 70.768C194.555 70.768 194.307 70.812 194.075 70.9C193.851 70.98 193.651 71.096 193.475 71.248C193.307 71.4 193.167 71.58 193.055 71.788C192.951 71.988 192.883 72.208 192.851 72.448H196.691C196.675 72.192 196.611 71.96 196.499 71.752C196.395 71.544 196.255 71.368 196.079 71.224C195.911 71.08 195.715 70.968 195.491 70.888C195.275 70.808 195.051 70.768 194.819 70.768Z" fill="white"/>
<path d="M199.155 70.048H201.315V70.84H201.459C201.611 70.512 201.827 70.272 202.107 70.12C202.387 69.96 202.707 69.88 203.067 69.88C203.667 69.88 204.151 70.076 204.519 70.468C204.887 70.86 205.083 71.432 205.107 72.184L204.123 72.328C204.123 71.776 203.991 71.38 203.727 71.14C203.463 70.892 203.139 70.768 202.755 70.768C202.507 70.768 202.291 70.816 202.107 70.912C201.931 71.008 201.783 71.14 201.663 71.308C201.543 71.476 201.455 71.672 201.399 71.896C201.343 72.12 201.315 72.36 201.315 72.616V75.136H202.827V76H199.011V75.136H200.379V70.912H199.155V70.048Z" fill="white"/>
<path d="M214.87 73.312C214.894 73.904 215.078 74.38 215.422 74.74C215.766 75.1 216.246 75.28 216.862 75.28C217.142 75.28 217.386 75.248 217.594 75.184C217.802 75.12 217.978 75.032 218.122 74.92C218.274 74.808 218.394 74.68 218.482 74.536C218.578 74.384 218.654 74.224 218.71 74.056L219.598 74.296C219.43 74.848 219.118 75.3 218.662 75.652C218.214 75.996 217.606 76.168 216.838 76.168C216.414 76.168 216.022 76.096 215.662 75.952C215.31 75.8 215.006 75.588 214.75 75.316C214.494 75.044 214.294 74.72 214.15 74.344C214.006 73.968 213.934 73.552 213.934 73.096V72.808C213.934 72.392 214.006 72.004 214.15 71.644C214.302 71.284 214.51 70.976 214.774 70.72C215.038 70.456 215.346 70.252 215.698 70.108C216.058 69.956 216.446 69.88 216.862 69.88C217.35 69.88 217.77 69.972 218.122 70.156C218.482 70.332 218.774 70.552 218.998 70.816C219.23 71.08 219.398 71.368 219.502 71.68C219.614 71.992 219.67 72.28 219.67 72.544V73.312H214.87ZM216.862 70.768C216.598 70.768 216.35 70.812 216.118 70.9C215.894 70.98 215.694 71.096 215.518 71.248C215.35 71.4 215.21 71.58 215.098 71.788C214.994 71.988 214.926 72.208 214.894 72.448H218.734C218.718 72.192 218.654 71.96 218.542 71.752C218.438 71.544 218.298 71.368 218.122 71.224C217.954 71.08 217.758 70.968 217.534 70.888C217.318 70.808 217.094 70.768 216.862 70.768Z" fill="white"/>
<path d="M221.198 70.048H223.358V70.84H223.502C223.654 70.512 223.87 70.272 224.15 70.12C224.43 69.96 224.75 69.88 225.11 69.88C225.71 69.88 226.194 70.076 226.562 70.468C226.93 70.86 227.126 71.432 227.15 72.184L226.166 72.328C226.166 71.776 226.034 71.38 225.77 71.14C225.506 70.892 225.182 70.768 224.798 70.768C224.55 70.768 224.334 70.816 224.15 70.912C223.974 71.008 223.826 71.14 223.706 71.308C223.586 71.476 223.498 71.672 223.442 71.896C223.386 72.12 223.358 72.36 223.358 72.616V75.136H224.87V76H221.054V75.136H222.422V70.912H221.198V70.048Z" fill="white"/>
<path d="M228.545 70.048H230.705V70.84H230.849C231.001 70.512 231.217 70.272 231.497 70.12C231.777 69.96 232.097 69.88 232.457 69.88C233.057 69.88 233.541 70.076 233.909 70.468C234.277 70.86 234.473 71.432 234.497 72.184L233.513 72.328C233.513 71.776 233.381 71.38 233.117 71.14C232.853 70.892 232.529 70.768 232.145 70.768C231.897 70.768 231.681 70.816 231.497 70.912C231.321 71.008 231.173 71.14 231.053 71.308C230.933 71.476 230.845 71.672 230.789 71.896C230.733 72.12 230.705 72.36 230.705 72.616V75.136H232.217V76H228.401V75.136H229.769V70.912H228.545V70.048Z" fill="white"/>
<path d="M241.845 73.096C241.845 73.592 241.761 74.032 241.593 74.416C241.433 74.792 241.217 75.112 240.945 75.376C240.673 75.632 240.353 75.828 239.985 75.964C239.625 76.1 239.249 76.168 238.857 76.168C238.457 76.168 238.077 76.1 237.717 75.964C237.357 75.828 237.041 75.632 236.769 75.376C236.497 75.112 236.277 74.792 236.109 74.416C235.949 74.032 235.869 73.592 235.869 73.096V72.952C235.869 72.464 235.949 72.032 236.109 71.656C236.277 71.272 236.497 70.948 236.769 70.684C237.049 70.42 237.369 70.22 237.729 70.084C238.089 69.948 238.465 69.88 238.857 69.88C239.249 69.88 239.625 69.948 239.985 70.084C240.345 70.22 240.661 70.42 240.933 70.684C241.213 70.948 241.433 71.272 241.593 71.656C241.761 72.032 241.845 72.464 241.845 72.952V73.096ZM238.857 75.28C239.145 75.28 239.409 75.232 239.649 75.136C239.897 75.032 240.113 74.884 240.297 74.692C240.481 74.5 240.625 74.272 240.729 74.008C240.833 73.736 240.885 73.432 240.885 73.096V72.952C240.885 72.632 240.833 72.34 240.729 72.076C240.625 71.804 240.481 71.572 240.297 71.38C240.113 71.188 239.897 71.04 239.649 70.936C239.401 70.824 239.137 70.768 238.857 70.768C238.577 70.768 238.313 70.824 238.065 70.936C237.817 71.04 237.601 71.188 237.417 71.38C237.233 71.572 237.089 71.804 236.985 72.076C236.881 72.34 236.829 72.632 236.829 72.952V73.096C236.829 73.432 236.881 73.736 236.985 74.008C237.089 74.272 237.233 74.5 237.417 74.692C237.601 74.884 237.813 75.032 238.053 75.136C238.301 75.232 238.569 75.28 238.857 75.28Z" fill="white"/>
<path d="M243.241 70.048H245.401V70.84H245.545C245.697 70.512 245.913 70.272 246.193 70.12C246.473 69.96 246.793 69.88 247.153 69.88C247.753 69.88 248.237 70.076 248.605 70.468C248.973 70.86 249.169 71.432 249.193 72.184L248.209 72.328C248.209 71.776 248.077 71.38 247.813 71.14C247.549 70.892 247.225 70.768 246.841 70.768C246.593 70.768 246.377 70.816 246.193 70.912C246.017 71.008 245.869 71.14 245.749 71.308C245.629 71.476 245.541 71.672 245.485 71.896C245.429 72.12 245.401 72.36 245.401 72.616V75.136H246.913V76H243.097V75.136H244.465V70.912H243.241V70.048Z" fill="white"/>
</svg>
