<svg width="51" height="51" viewBox="0 0 51 51" fill="none" xmlns="http://www.w3.org/2000/svg">
<path fill-rule="evenodd" clip-rule="evenodd" d="M16.7685 3.0061C19.4407 1.41955 23.0609 0.216306 25.702 0.0369586C26.7879 -0.0367989 27.3454 -0.00725624 28.5963 0.190316C30.6344 0.512203 32.5851 1.30411 35.2247 2.88102C35.7922 3.22006 38.6845 5.23171 39.5612 5.89706C40.5707 6.66333 41.304 7.06776 42.7339 7.64692C44.5038 8.36379 45.8751 9.15418 46.1434 9.61196C46.6 10.391 46.1395 11.7343 45.1993 12.3665C44.6091 12.7633 44.5923 12.9434 45.1197 13.2181C46.7217 14.0524 47.7833 15.6402 48.2133 17.8453C48.3956 18.7806 48.3686 19.0826 48.1097 19.006C46.9877 18.674 46.5973 18.4587 46.6332 18.1914C46.6734 17.8916 46.5681 17.6831 46.2961 17.5237C46.1703 17.45 46.0097 17.3141 45.9392 17.2217C45.7783 17.0107 45.6511 16.9617 45.0104 16.8635C44.12 16.7272 44.0448 16.8951 44.5976 17.7851C44.8432 18.1806 45.0356 18.606 45.3273 19.3989C45.8439 20.8034 46.4049 21.7097 47.0171 22.1293C47.7655 22.6422 46.5386 23.5063 46.5386 23.5063C46.3953 22.7572 46.1402 22.4685 45.7964 22.6663C45.4339 22.875 45.3863 22.8077 45.0691 21.6371C44.9713 21.2763 44.8913 20.9505 44.8913 20.913C44.8913 20.8092 44.6415 19.7744 44.5769 19.6109C44.5091 19.4392 44.3599 19.3741 44.0339 19.3741C43.6886 19.3741 43.5726 19.2375 43.5213 18.7709C43.4868 18.4562 43.4533 18.3737 43.2368 18.0693C42.6035 17.1789 42.3864 17.0592 41.8327 17.2948C41.32 17.5129 41.2084 17.4993 40.8436 17.1737C40.5815 16.94 40.5027 16.8981 40.2732 16.8709C40.1268 16.8536 39.9283 16.793 39.8322 16.7363C39.7362 16.6796 39.5678 16.6189 39.458 16.6013C38.9249 16.5161 39.2039 16.0796 39.8047 16.059L40.0942 16.0491L40.0882 15.8714C40.0484 14.6947 39.6712 14.3174 38.4891 14.2715L37.876 14.2476L37.5638 14.4189C37.3662 14.5273 37.1489 14.6015 36.9722 14.6208C36.7838 14.6414 36.561 14.7215 36.2869 14.8672C35.8858 15.0804 35.8751 15.083 35.4147 15.0714C34.5871 15.0507 34.6384 15.6574 35.5769 16.9891C35.7312 17.2081 35.9313 17.5431 36.0215 17.7335L36.1854 18.0796L36.1729 19.0441C36.1448 21.2182 35.8175 21.5221 32.7589 22.2146C31.8515 22.42 31.3795 22.7613 31.1551 23.3743C31.1071 23.5055 30.9899 23.8184 30.8946 24.0697C30.6194 24.796 30.6173 24.9554 30.8794 25.2216L31.0947 25.4403L31.0604 25.9225C31.0068 26.6756 30.8524 27.7466 30.6471 28.7906C30.4923 29.5771 30.5405 31.1336 30.7806 33.1055C30.91 34.1682 30.7184 34.4903 30.1483 34.1688C29.9128 34.0361 29.8382 34.0219 29.2759 34.0029L28.6611 33.9821L28.3318 34.1807C27.8024 34.5 27.4459 34.5874 27.0861 34.4863C25.1175 33.933 24.6188 34.9534 26.3187 36.0566C27.3428 36.7212 27.3025 37.1452 26.2011 37.294C25.9689 37.3253 25.466 37.4294 25.0836 37.5253C24.2378 37.7372 24.2011 37.738 23.9211 37.5482C23.3356 37.1515 22.657 37.6262 22.657 38.4325C22.657 38.767 23.729 38.8887 24.4635 38.6376C25.2159 38.3805 25.5706 38.4184 26.4248 38.8474C26.6722 38.9717 26.9936 39.1201 27.139 39.1773C28.0292 39.5274 27.4322 39.8824 25.9535 39.8824C25.3128 39.8824 25.1896 40.0484 25.3255 40.7288C25.3948 41.0764 25.7631 41.2884 26.5867 41.4551C29.3905 42.0227 31.0119 44.1442 28.6435 44.1462C28.3807 44.1465 28.1976 44.1885 27.7805 44.3443C26.9054 44.6711 26.6136 44.701 26.1755 44.5088C25.315 44.1311 24.8003 44.1925 24.1668 44.7485C23.7245 45.1367 23.4754 45.1482 22.5358 44.8241C21.2581 44.3833 20.6128 43.8836 20.3464 43.1285C20.0899 42.4016 18.8087 41.6061 17.6061 41.4268C16.9661 41.3314 16.8154 41.2823 16.5505 41.0828C16.2259 40.8384 16.1017 40.7667 15.8801 40.6958C15.7685 40.6601 15.5452 40.5762 15.384 40.5093C15.0801 40.3832 14.9844 40.3931 14.8418 40.5649C14.6778 40.7626 14.3745 40.66 13.9086 40.2493C13.2399 39.66 14.257 41.4238 15.4387 42.9028C16.5227 44.2596 17.6106 45.2775 19.1279 46.3549C19.7384 46.7884 19.8229 46.8676 20.0321 47.2033C20.4076 47.8057 20.9199 48.1658 22.6824 49.0659C23.8657 49.6702 25.5437 50.4501 26.0256 50.6196C26.245 50.6968 26.4848 50.8132 26.5586 50.8782L26.6927 50.9963L20.6442 50.9979L14.5956 50.9995H12.9073H11.732L11.7621 50.5046C11.8568 48.9488 11.9026 48.2636 11.7545 47.6233C11.7168 47.4605 11.6666 47.3006 11.6015 47.1301C11.6215 46.937 11.5973 46.7853 11.5203 46.6847C11.354 46.4672 11.1363 46.0942 10.8926 45.6306C10.7465 45.3398 10.6215 45.0915 10.5138 44.882C9.56045 42.9367 8.42998 40.2267 8.32223 39.8316L8.30845 39.8504C7.6904 38.2694 7.39484 37.234 6.76664 34.5269C6.6241 33.9127 6.42759 33.0674 6.32998 32.6486C6.23229 32.2299 6.09839 31.5902 6.03229 31.2273C5.96626 30.8643 5.87675 30.4075 5.8334 30.212C5.59755 29.1479 5.78732 28.4166 6.18017 28.8756C6.56505 29.3252 6.65359 29.7024 6.45089 30.0284C6.17226 30.4764 6.32834 31.0427 7.01243 32.0648C7.37635 32.6086 7.5015 32.6689 7.75541 32.4227C8.00348 32.1823 8.13502 32.2498 8.57407 32.8429C8.76361 33.099 9.05845 33.4799 9.22925 33.6893C9.75776 34.3372 10.1483 34.9864 10.3896 35.6183C10.5941 36.1536 10.8892 36.8591 10.9252 36.8987C10.9436 36.919 10.9498 36.6985 10.9391 36.4088C10.903 35.4327 11.207 35.0591 11.6855 35.4914C11.9225 35.7055 11.9949 35.7142 12.0023 35.5295C12.0498 34.3415 11.9758 31.2678 11.8956 31.0885C11.7827 30.8363 11.8165 30.6959 12.0933 30.2688C12.2555 30.0188 12.3557 29.7453 12.6072 28.8668C12.8083 28.1647 12.9873 27.6486 13.109 27.42C13.3212 27.0219 13.7614 26.0437 13.9239 25.6092C14.1014 25.1348 14.4096 24.7201 15.064 24.0749C15.9327 23.2183 16.2335 22.6885 16.7527 21.1C17.1096 20.0079 17.5511 19.5631 19.3216 18.5116C19.6231 18.3325 20.1206 17.9864 20.4272 17.7422C21.3835 16.9808 21.8621 16.7635 23.317 16.4298C24.4314 16.1742 24.9908 15.9466 25.8099 15.4157C26.072 15.2457 26.4037 15.0723 26.5469 15.0303C27.1822 14.8443 27.2305 14.1014 26.6273 13.7944C26.4491 13.7036 26.1453 13.4602 25.8388 13.1623C25.1968 12.5386 25.0297 12.5148 24.5077 12.973C24.4149 13.0546 24.2974 13.133 24.2468 13.1474C24.0083 13.215 22.7734 13.3889 22.2472 13.4289C21.2135 13.5076 20.779 13.9105 20.7786 14.791C20.7783 15.4936 20.4601 15.7539 19.515 15.8246C19.2189 15.8467 18.888 15.8813 18.7797 15.9013C18.6625 15.9229 18.3539 15.9036 18.0182 15.8537C17.7078 15.8075 17.3438 15.7567 17.2092 15.7408C17.0104 15.7173 16.8368 15.6264 16.2819 15.2557C14.9106 14.3394 14.3813 14.4259 14.3179 15.5769C14.2995 15.9103 14.2509 16.2086 14.1836 16.3997C13.9806 16.9765 13.9855 16.985 15.0403 17.865C16.0062 18.671 16.3618 19.2308 16.0705 19.4874C15.7973 19.7281 14.2817 19.8197 13.7373 19.6283C13.0074 19.3718 12.7333 19.4449 12.5007 19.9579C12.2894 20.4238 12.0229 20.468 11.8409 20.0671C11.6465 19.6391 11.7607 19.1595 12.1832 18.6294C12.6049 18.1001 12.6112 17.8434 12.1977 18.0298C11.6386 18.2819 10.9307 19.4721 10.7278 20.5011C10.644 20.926 10.7077 21.003 11.2395 21.1197C11.4396 21.1636 11.8445 21.5426 11.8445 21.6859C11.8445 21.788 11.7707 21.8418 11.3611 22.0384C10.9321 22.2443 10.8506 22.3058 10.6377 22.585C10.3211 23 10.2195 23.0888 9.98498 23.1559C9.48748 23.2981 9.91091 23.8757 10.8774 24.3733C11.0257 24.4496 11.1281 24.4583 11.5439 24.4297C12.4157 24.3696 12.2009 24.8721 11.2626 25.0876C10.2997 25.3088 9.57282 25.0537 8.64325 24.1682C8.16414 23.7118 8.08334 23.6976 7.74317 24.0098C7.61175 24.1304 7.43165 24.2793 7.34291 24.3406C6.69003 24.7918 7.90131 27.7023 8.6027 27.3678C8.83472 27.2571 9.0317 27.3324 9.13078 27.5696C9.25806 27.8742 9.11003 28.0839 8.81011 28.0239C8.70412 28.0026 8.62275 28.0337 8.47371 28.1521C8.23389 28.3427 8.08968 28.3478 7.70073 28.1793C7.18951 27.9579 7.15498 27.932 6.99766 27.652C6.71167 27.143 6.45332 27.074 6.38495 27.4886C6.3186 27.8906 6.04047 28.2576 5.80219 28.2576C5.46061 28.2576 5.04186 27.0015 4.93917 25.6687C4.87658 24.8566 4.81489 24.5854 4.54655 23.9422C4.29442 23.3377 4.19889 22.9205 4.12807 22.1153C4.00709 20.7384 4.00771 20.6613 4.14649 19.9552C4.45325 18.3943 4.32027 17.4624 3.72232 16.9822C3.44012 16.7556 3.34992 16.5647 3.17012 15.8142C3.08738 15.4688 2.95742 15.0034 2.88138 14.78C2.61609 14.0011 2.7104 13.3307 3.24215 12.216C3.64577 11.3698 3.64781 11.3267 3.31576 10.6682C2.65056 9.3488 2.70071 8.67563 3.52591 7.84647C3.93766 7.4327 3.957 7.40244 4.14411 6.87907C4.8456 4.91662 7.11676 4.44731 7.94414 6.09377C8.15537 6.51409 8.29826 6.56409 8.7733 6.38393C8.9129 6.33098 9.23272 6.25007 9.48399 6.20408C11.2073 5.88869 12.925 5.24613 14.3065 4.40005C14.6415 4.19492 15.2697 3.8346 15.7025 3.59947C16.1352 3.36428 16.6149 3.09727 16.7685 3.0061ZM29.5033 10.8966C30.3672 10.0951 30.1139 9.72618 28.5963 9.57597C27.216 9.43936 26.993 9.4552 26.5658 9.72004C26.3452 9.85684 26.2517 9.85877 26.1343 9.72907C25.8411 9.4051 25.4994 9.7875 25.4645 10.4787C25.4348 11.0683 25.5149 11.2353 25.8964 11.3789C26.075 11.4461 26.3664 11.6481 26.7594 11.977C27.1827 12.3313 27.394 12.5106 27.6003 12.5052C27.8116 12.4996 28.0179 12.3004 28.4411 11.8971C28.7695 11.5842 29.2474 11.1339 29.5033 10.8966ZM36.2641 11.413C36.216 11.236 36.1708 11.1793 36.0315 11.1211C35.7925 11.0213 35.2715 11.0339 34.9835 11.1465C34.8529 11.1975 34.6131 11.2553 34.4505 11.2748C33.5423 11.3836 33.0579 11.5907 32.8389 11.9637C32.703 12.1953 32.6446 12.2459 32.4312 12.3172C31.9652 12.4731 32.0112 12.7784 32.5518 13.1183C32.7177 13.2226 32.9943 13.3965 33.1667 13.5048C33.9037 13.9678 33.9786 14.6217 33.3447 15.0578C33.1071 15.2213 32.973 15.2743 32.3147 15.4647C31.7282 15.6344 31.9316 15.8434 32.6828 15.843C33.3071 15.8427 33.663 15.5767 34.8166 14.2482C35.0948 13.9277 35.4947 13.4823 35.7053 13.2583C36.5414 12.3686 36.5492 12.3526 36.3943 11.8575C36.3556 11.7339 36.297 11.5339 36.2641 11.413ZM27.5303 23.6575C27.5303 22.5096 27.1617 22.2084 25.5505 22.0401C24.1204 21.8907 23.7557 21.9465 22.4032 22.5217C22.0896 22.6551 21.9182 22.6917 21.4312 22.7294C20.8077 22.7776 17.9261 23.664 17.403 23.9685C16.7718 24.3359 16.6527 24.6993 16.9849 25.2439C17.4562 26.0167 17.8977 26.1648 19.2222 25.994C19.3782 25.9739 19.5725 25.9905 19.7552 26.0396C19.9133 26.0821 20.155 26.1321 20.2921 26.1509C20.94 26.2395 21.0278 26.7855 20.3941 26.7855C19.594 26.7855 20.2575 27.6725 21.5656 28.3516C23.0392 29.1166 26.7726 27.0252 26.9162 25.3543C26.9492 24.9701 26.9572 24.9509 27.1836 24.7169C27.5144 24.3752 27.5303 24.3266 27.5303 23.6575ZM36.9204 34.789C37.0393 34.5388 37.2528 34.2144 37.4531 33.9796C37.7815 33.5948 37.886 33.5174 37.886 33.659C37.886 33.7848 37.5339 34.7466 37.321 35.2022C37.2076 35.445 36.8905 36.249 36.6164 36.9889C35.9953 38.6651 35.6295 39.6342 35.2368 40.6438C34.4786 42.5933 34.2113 46.9519 34.6196 50.7076L34.6514 50.9995H34.1169H33.5823L33.5448 49.8977C33.5242 49.2917 33.5273 48.201 33.5519 47.4738C33.6686 44.0161 33.6236 43.7785 32.9034 44.0479C32.2318 44.299 32.3816 43.792 33.3046 42.6896C33.4229 42.5483 33.6364 42.2072 33.7789 41.9317C33.9215 41.6561 34.0795 41.3621 34.13 41.2784C34.2314 41.1102 34.5174 40.2344 34.6771 39.6032C34.9036 38.7074 35.1045 38.0799 35.2675 37.7585C35.3618 37.5725 35.479 37.2947 35.5281 37.1412C35.6801 36.6651 35.7854 36.4582 35.9816 36.2503C36.0857 36.14 36.2128 35.9675 36.264 35.8671C36.3154 35.7666 36.4394 35.5769 36.5397 35.4455C36.64 35.3141 36.8113 35.0187 36.9204 34.789Z" fill="#858585"/>
</svg>
