<?xml version="1.0" standalone="no"?>
<!DOCTYPE svg PUBLIC "-//W3C//DTD SVG 20010904//EN"
 "http://www.w3.org/TR/2001/REC-SVG-20010904/DTD/svg10.dtd">
<svg version="1.0" xmlns="http://www.w3.org/2000/svg"
 width="700.000000pt" height="700.000000pt" viewBox="0 0 700.000000 700.000000"
 preserveAspectRatio="xMidYMid meet">
<metadata>
Created by potrace 1.14, written by Peter Selinger 2001-2017
</metadata>
<g transform="translate(0.000000,700.000000) scale(0.100000,-0.100000)"
fill="#000000" stroke="none">
<path d="M3430 6985 c-131 -19 -145 -22 -262 -49 -260 -62 -605 -199 -848
-337 -30 -17 -111 -63 -180 -102 -69 -38 -142 -81 -163 -94 -162 -102 -401
-195 -637 -247 -58 -13 -127 -30 -153 -37 l-49 -14 -26 32 c-15 17 -39 49 -54
71 -17 26 -45 49 -82 67 -49 24 -65 27 -115 22 -135 -12 -231 -93 -295 -248
-17 -40 -48 -88 -77 -120 -84 -92 -108 -158 -89 -247 11 -50 11 -51 60 -155
37 -80 36 -91 -20 -217 -71 -158 -78 -226 -37 -365 14 -49 32 -112 38 -140 16
-67 31 -94 79 -146 57 -61 74 -126 67 -243 -4 -50 -9 -107 -13 -126 -3 -19 -9
-53 -13 -75 -8 -45 -7 -115 3 -225 11 -119 24 -178 60 -276 33 -89 40 -119 51
-219 21 -187 67 -345 106 -366 29 -15 54 4 79 58 31 70 34 74 45 76 5 1 26
-20 47 -48 27 -36 53 -57 94 -76 60 -27 80 -27 128 2 16 10 33 16 38 13 13 -9
48 16 48 34 0 10 -7 28 -16 40 -14 20 -22 22 -54 17 -34 -6 -43 -3 -78 29 -66
60 -137 245 -127 330 3 22 6 41 8 42 45 42 106 84 122 84 11 0 38 -17 60 -36
22 -20 52 -47 67 -60 32 -28 115 -73 149 -80 30 -6 117 -6 146 0 36 8 110 43
118 56 15 24 -25 40 -88 37 -57 -3 -64 -1 -127 41 -60 40 -100 83 -100 110 0
5 14 15 31 22 16 7 52 38 79 69 32 37 69 66 109 86 47 23 61 35 61 52 0 27
-54 70 -98 79 -17 4 -37 12 -43 20 -29 36 32 214 110 316 46 62 79 88 110 88
18 0 19 -4 11 -24 -5 -14 -24 -46 -43 -73 -59 -82 -69 -144 -32 -199 26 -40
49 -31 85 33 34 61 59 68 158 41 66 -18 213 -19 277 -3 37 9 65 33 65 54 0 18
-44 87 -70 111 -9 8 -50 44 -90 80 -137 122 -136 121 -116 192 8 29 18 82 21
117 10 99 32 131 90 131 33 0 63 -14 184 -87 57 -35 109 -63 115 -63 6 -1 56
-7 111 -14 55 -7 102 -12 105 -11 3 2 34 6 70 9 168 16 197 36 211 146 5 40
17 87 27 104 21 38 92 75 153 80 71 7 161 17 183 22 12 2 41 7 66 10 28 4 62
19 91 40 26 19 58 34 72 34 17 0 52 -23 106 -67 43 -38 98 -83 120 -101 32
-25 41 -40 41 -63 0 -46 -17 -69 -68 -91 -26 -12 -72 -37 -102 -56 -92 -59
-188 -97 -339 -136 -221 -57 -239 -66 -453 -219 -47 -34 -131 -90 -185 -125
-172 -109 -213 -158 -273 -327 -66 -186 -104 -253 -197 -352 -148 -158 -142
-149 -203 -288 -5 -11 -33 -74 -63 -140 -30 -66 -74 -181 -96 -255 -23 -74
-57 -165 -76 -201 -19 -37 -33 -68 -31 -70 11 -11 17 -112 22 -371 5 -217 4
-288 -5 -288 -7 0 -25 10 -41 21 -20 15 -36 20 -54 15 -30 -8 -42 -41 -45
-136 -1 -35 -4 -66 -5 -68 -2 -1 -14 26 -26 60 -47 129 -120 264 -195 363 -43
55 -89 116 -104 136 -14 20 -36 44 -48 53 -21 15 -24 15 -59 -3 -20 -11 -42
-17 -49 -15 -15 6 -93 123 -119 179 -28 59 -32 119 -11 165 15 34 16 46 7 79
-24 77 -82 119 -98 69 -7 -22 -7 -135 0 -147 2 -3 7 -22 10 -41 3 -19 15 -82
27 -140 11 -58 23 -115 25 -126 2 -12 19 -86 38 -165 19 -79 37 -155 40 -169
11 -61 89 -363 117 -454 50 -162 182 -493 285 -714 19 -41 34 -76 34 -79 0
-12 151 -305 182 -354 19 -30 38 -72 42 -94 4 -22 13 -67 20 -100 13 -61 14
-173 2 -348 l-7 -97 1025 0 c564 0 1026 3 1026 6 0 5 -51 29 -220 104 -174 77
-437 210 -526 266 -87 55 -139 102 -172 157 -9 16 -71 69 -137 119 -228 173
-346 285 -496 473 -108 136 -240 347 -226 362 3 3 23 -9 44 -26 47 -38 94 -49
112 -27 8 9 21 16 31 16 29 0 157 -56 195 -84 30 -23 96 -44 193 -61 49 -8
147 -50 203 -86 63 -40 108 -91 142 -161 46 -94 137 -158 304 -214 105 -35
142 -34 202 10 107 76 151 84 266 44 81 -28 119 -27 214 7 62 23 87 28 188 40
95 10 129 53 98 119 -49 103 -249 214 -454 252 -14 3 -47 15 -74 26 -53 23
-77 59 -77 116 0 49 18 62 95 67 165 11 218 25 213 54 -2 9 -30 30 -63 46
-188 96 -240 106 -354 74 -124 -36 -251 -18 -251 35 0 48 50 125 83 127 7 0
20 2 29 4 10 2 34 -6 55 -17 37 -19 84 -20 148 -4 43 11 162 37 195 42 55 9
90 31 90 57 -1 31 -24 56 -112 121 -76 55 -128 118 -128 154 0 63 95 84 237
52 61 -13 110 -3 181 39 43 25 54 27 131 24 49 -2 96 -10 113 -19 49 -25 67
-25 85 2 13 20 15 41 10 112 -4 48 -9 97 -11 109 -23 114 -24 525 -1 563 2 3
6 26 10 50 3 25 8 52 10 60 4 14 9 59 20 155 3 25 7 66 10 91 5 40 2 49 -25
80 -16 19 -30 43 -30 54 0 22 60 192 85 239 30 59 142 117 265 137 67 12 211
59 263 87 83 44 118 93 132 188 12 74 12 273 1 299 -5 14 -40 72 -76 130 -131
209 -131 252 0 262 40 4 79 13 100 26 19 11 63 28 98 37 34 8 76 24 93 34 19
11 44 17 67 15 20 -2 60 -5 89 -8 108 -9 153 -54 171 -170 8 -49 7 -58 -8 -66
-10 -5 -19 -7 -22 -5 -7 7 -72 -17 -80 -29 -20 -29 4 -44 133 -80 26 -7 64
-27 85 -44 44 -36 66 -39 140 -15 68 21 100 9 152 -61 59 -77 69 -97 77 -148
7 -54 32 -78 80 -78 55 0 65 -16 94 -150 19 -91 36 -159 60 -240 6 -20 17 -45
25 -55 13 -18 17 -18 51 -6 32 11 39 11 55 -4 11 -10 25 -34 31 -54 6 -20 14
-39 16 -43 8 -15 64 37 84 78 24 51 22 57 -59 136 -68 68 -126 171 -202 363
-28 72 -65 155 -83 185 -50 84 -60 110 -46 126 28 34 179 4 235 -47 80 -73 84
-78 84 -109 0 -20 9 -39 26 -55 29 -27 178 -80 195 -69 28 17 -11 230 -67 371
-67 168 -194 322 -332 402 -40 23 -76 50 -79 58 -4 11 7 28 33 51 98 86 119
111 148 172 37 79 42 166 12 222 -36 67 -188 157 -462 274 -224 96 -285 132
-536 311 -123 87 -234 166 -248 176 -146 99 -284 189 -325 212 -27 15 -54 31
-60 35 -24 19 -298 151 -383 184 -88 35 -235 80 -291 91 -218 41 -444 52 -601
30z m497 -1299 c156 -17 211 -52 179 -114 -13 -25 -231 -238 -278 -270 -43
-31 -57 -25 -168 64 -36 28 -83 61 -106 72 -22 11 -45 31 -51 44 -23 52 4 180
43 195 8 3 25 -2 39 -11 23 -15 27 -15 57 0 18 9 44 20 58 24 27 8 137 5 227
-4z m1031 -220 c16 -9 46 -114 44 -149 -2 -26 -17 -46 -97 -132 -16 -18 -59
-65 -95 -106 -198 -222 -234 -250 -322 -251 -61 -1 -101 9 -95 25 2 6 38 22
80 36 91 31 143 69 155 114 17 61 -7 96 -118 170 -41 27 -81 57 -87 65 -22 28
-15 52 20 67 18 7 47 31 64 53 17 21 47 46 65 55 28 13 154 44 263 63 17 3 31
7 33 9 4 4 78 -11 90 -19z m-1464 -1490 c114 -12 162 -23 207 -48 48 -27 67
-63 75 -141 9 -90 0 -129 -41 -174 -23 -26 -35 -52 -40 -83 -11 -74 -40 -126
-112 -197 -190 -190 -485 -293 -630 -220 -69 36 -165 110 -186 145 -19 33 -14
61 12 63 112 8 106 72 -9 93 -19 3 -46 9 -60 12 -14 2 -50 4 -80 3 -171 -5
-191 -2 -235 33 -40 31 -85 107 -85 143 0 79 61 113 393 215 152 47 174 52
276 65 30 3 87 20 125 36 138 59 226 71 390 55z"/>
<path d="M5165 2363 c-32 -33 -95 -125 -114 -169 -11 -24 -61 -101 -111 -169
-54 -74 -168 -375 -195 -515 -18 -93 -113 -291 -180 -375 -59 -74 -105 -147
-105 -166 0 -22 32 -25 76 -9 23 9 31 7 48 -10 21 -20 21 -30 22 -448 0 -235
2 -444 2 -465 l2 -38 73 3 c41 2 71 7 71 13 -1 6 -5 46 -9 90 -3 44 -8 105
-11 135 -7 84 -7 515 0 605 7 86 12 129 27 245 12 99 17 122 39 210 17 64 101
303 130 365 5 11 38 100 74 198 37 98 90 237 120 310 60 147 80 206 74 213 -3
2 -17 -8 -33 -23z"/>
</g>
</svg>
